<svg xmlns="http://www.w3.org/2000/svg" viewBox="0 0 1242 2208"><title>SVG-PHONE-RESPONSIVE</title><path d="M1121.6,1528.59c-15.54,8.69-37.91.18-40.89-16.11-1-5.63,1.88-12,2.79-18,.37-2.46,1-5.32.16-7.44-3.53-8.75-3.36-17.42-1.19-26.4.86-3.59.73-7.46.79-11.2.06-4-.54-8.07-.21-12,.38-4.44,3.2-6.48,7.68-5.33,2.1.54,4.49,1.11,6,2.48,4.75,4.26,9.68,4.89,15.39,2.26a14.56,14.56,0,0,1,5.91-1.06c9.26,0,17.83-.44,25.43-7.74,5.41-5.21,11-2.35,11.76,5.37.85,8.63,2.83,16.45,7.33,24.08,4.06,6.9,3.8,15.08,2.39,23a16.08,16.08,0,0,0,.73,6.7c1.38,5.09,3.68,10,4.46,15.16,1.79,12-4.61,22.55-15.79,27.25C1142.16,1534.77,1129.54,1534.43,1121.6,1528.59Zm-16.39-85.33c-2.54-2-4.5-4.11-6.91-5.25-3.51-1.64-7.36-2.57-11.06-3.8-.73,3.76-2.55,7.7-2,11.24,1.17,7.1-.21,13.63-1.58,20.45-3.48,17.45,5.39,31.84,22.4,36.88,12.4,3.68,24.71,2.62,36.66-1.92,18.27-6.94,26.19-24.14,18-41.86-3.85-8.37-7.08-16.35-7.77-25.59-.43-5.84-3.76-7.07-8.82-3.68-4.07,2.73-7.61,6.25-11.45,9.47C1126.06,1435.42,1109,1437.7,1105.21,1443.26Zm59.07,44-1.74.24c-11.64,21.2-55.75,28.06-76.55,4.83-1.44,5.81-3.14,10.77-3.81,15.87-.93,7.06,1.37,13.32,7.93,16.78,7.58,4,15.89,5.89,24.42,4.21,2.36-.46,5.71-3.13,5.94-5.1s-2.23-5.38-4.39-6.59c-3.43-1.91-7.69-2.26-11.4-3.77-3-1.21-5.69-3.15-8.53-4.77l.72-1.14,26.2,10.67,26.6-10c-1.18,3.88-5.1,5-8.71,6.25-4.31,1.48-9,2.06-13,4.06-2.14,1.07-4.85,4.8-4.36,6.45.68,2.28,4.18,5.28,6.41,5.23,7.59-.15,15.43-.54,22.66-2.63,10.23-3,16.22-12,15.57-22.67C1167.81,1499.14,1165.64,1493.22,1164.28,1487.26Z"/><path d="M1118.57,1478.33l9.1-.71-3.77,6c4.17,5,6.19,5.21,11,1.5-.64,4.6-3.31,6.21-7.77,3.94-3-1.54-5.14-1.53-7.92.42-3.14,2.2-6.13,1.76-8.42-3.57,4.44,3.26,8,3,10.26-.59.63-1-1.16-3.55-1.83-5.39Z"/><path d="M1089.51,1450.68l7.39-4.19-8.59-9,1.17-1.2c3.11,3,6.21,6,9.64,9.4l-7.92,6.74Z"/><path d="M1149.3,1470.6l-14.74,6C1138.56,1470.49,1144.14,1468.27,1149.3,1470.6Z"/><path d="M1110.87,1478.32l-15.76-2.92C1099,1472,1104.25,1472.81,1110.87,1478.32Z"/><path d="M1148.42,1445.73l-9.38-4.18,8.53-11.45,1.53,1.06-6.71,9.11,6.7,4.06Z"/><path d="M1058.45,692.3c-17.51,9.8-42.72.21-46.08-18.15-1.17-6.34,2.12-13.46,3.15-20.26.41-2.77,1.14-6,.18-8.39-4-9.85-3.79-19.62-1.35-29.75,1-4,.83-8.4.9-12.62.07-4.53-.62-9.09-.24-13.57.42-5,3.61-7.31,8.66-6,2.36.61,5.05,1.25,6.78,2.79,5.35,4.8,10.9,5.51,17.34,2.55a16.28,16.28,0,0,1,6.66-1.2c10.44,0,20.09-.49,28.65-8.73,6.1-5.86,12.4-2.64,13.26,6.06,1,9.73,3.19,18.54,8.26,27.14,4.58,7.77,4.29,17,2.69,26a18.1,18.1,0,0,0,.83,7.54c1.55,5.74,4.15,11.28,5,17.09,2,13.52-5.19,25.41-17.79,30.71C1081.62,699.27,1067.39,698.88,1058.45,692.3ZM1040,596.14c-2.88-2.23-5.07-4.63-7.8-5.91-4-1.85-8.29-2.9-12.46-4.29-.82,4.24-2.88,8.68-2.21,12.67,1.32,8-.24,15.36-1.77,23-3.93,19.67,6.07,35.88,25.23,41.56,14,4.15,27.86,3,41.32-2.16,20.59-7.83,29.51-27.21,20.33-47.18-4.34-9.43-8-18.43-8.75-28.84-.49-6.57-4.24-8-10-4.14-4.58,3.07-8.57,7-12.9,10.67C1063.48,587.3,1044.27,589.88,1040,596.14Zm66.56,49.59-2,.27c-13.11,23.89-62.82,31.62-86.26,5.44-1.62,6.55-3.54,12.14-4.29,17.89-1,7.95,1.54,15,8.93,18.91,8.55,4.51,17.91,6.64,27.53,4.75,2.65-.52,6.43-3.53,6.69-5.75s-2.51-6.07-5-7.43c-3.86-2.15-8.66-2.55-12.85-4.24-3.37-1.37-6.41-3.56-9.6-5.38l.8-1.29,29.53,12,30-11.3c-1.33,4.37-5.75,5.64-9.81,7-4.86,1.68-10.17,2.33-14.7,4.59-2.42,1.2-5.47,5.4-4.92,7.26.77,2.56,4.71,6,7.22,5.9,8.55-.17,17.39-.61,25.54-3,11.53-3.33,18.28-13.58,17.54-25.55C1110.53,659.11,1108.09,652.45,1106.55,645.73Z"/><path d="M1055,635.66l10.26-.8-4.24,6.73c4.7,5.59,7,5.88,12.39,1.7-.72,5.17-3.73,7-8.75,4.43-3.4-1.73-5.8-1.72-8.93.48-3.54,2.48-6.91,2-9.5-4,5,3.67,9,3.36,11.57-.67.72-1.14-1.3-4-2.06-6.07Z"/><path d="M1022.29,604.5l8.33-4.72-9.68-10.18,1.32-1.35,10.86,10.6-8.93,7.6Z"/><path d="M1089.67,627l-16.62,6.72C1077.56,626.83,1083.86,624.33,1089.67,627Z"/><path d="M1046.36,635.65l-17.76-3.29C1033,628.52,1038.9,629.44,1046.36,635.65Z"/><path d="M1088.68,598.92l-10.58-4.7,9.62-12.91,1.72,1.2-7.56,10.26,7.55,4.58Z"/><path d="M825.72,1409.91c-7.65,4.28-18.65.09-20.12-7.93-.51-2.77.92-5.88,1.37-8.85.18-1.21.5-2.62.08-3.66a20.64,20.64,0,0,1-.59-13,25.3,25.3,0,0,0,.39-5.52c0-2-.27-4-.1-5.92.18-2.19,1.57-3.19,3.78-2.63a7.26,7.26,0,0,1,3,1.22,6.36,6.36,0,0,0,7.58,1.12,7.12,7.12,0,0,1,2.9-.53c4.56,0,8.78-.21,12.52-3.81,2.66-2.56,5.41-1.15,5.79,2.65a27.82,27.82,0,0,0,3.61,11.85c2,3.39,1.87,7.42,1.17,11.35a8.11,8.11,0,0,0,.36,3.29c.68,2.51,1.82,4.92,2.2,7.46a12.3,12.3,0,0,1-7.77,13.41C835.84,1413,829.63,1412.78,825.72,1409.91Zm-8.06-42a20.92,20.92,0,0,0-3.41-2.59,49.81,49.81,0,0,0-5.44-1.87c-.36,1.85-1.25,3.79-1,5.53.58,3.5-.1,6.71-.77,10.07-1.72,8.59,2.65,15.67,11,18.15a27.67,27.67,0,0,0,18-.94c9-3.42,12.88-11.89,8.88-20.61-1.9-4.12-3.49-8.05-3.83-12.59-.21-2.88-1.85-3.49-4.34-1.81a69.62,69.62,0,0,0-5.64,4.66C827.92,1364.05,819.53,1365.18,817.66,1367.92Zm29.07,21.65-.86.12c-5.73,10.43-27.44,13.81-37.67,2.37a75.5,75.5,0,0,0-1.88,7.82c-.46,3.47.68,6.55,3.9,8.25a18,18,0,0,0,12,2.08c1.16-.23,2.81-1.54,2.93-2.51s-1.1-2.65-2.16-3.25c-1.69-.94-3.79-1.11-5.62-1.85a36.06,36.06,0,0,1-4.19-2.35l.35-.56,12.9,5.25,13.09-4.93c-.59,1.91-2.51,2.46-4.29,3.07-2.12.74-4.44,1-6.42,2-1.06.52-2.39,2.36-2.15,3.17.34,1.12,2.06,2.6,3.16,2.57a43.33,43.33,0,0,0,11.15-1.29,10.54,10.54,0,0,0,7.66-11.16C848.47,1395.42,847.4,1392.5,846.73,1389.57Z"/><path d="M824.23,1385.17l4.48-.35-1.85,2.94c2,2.44,3,2.57,5.41.74-.32,2.26-1.63,3.06-3.82,1.94a3.27,3.27,0,0,0-3.9.21c-1.55,1.08-3,.86-4.15-1.76,2.19,1.6,3.94,1.47,5.05-.29.31-.5-.57-1.75-.9-2.65Z"/><path d="M809.93,1371.57l3.64-2.07-4.23-4.44.58-.59,4.74,4.63-3.9,3.31Z"/><path d="M839.36,1381.37l-7.26,2.93C834.07,1381.32,836.82,1380.22,839.36,1381.37Z"/><path d="M820.44,1385.17l-7.76-1.44C814.59,1382.05,817.18,1382.46,820.44,1385.17Z"/><path d="M838.92,1369.13l-4.62-2.06,4.2-5.63.76.52-3.31,4.48,3.3,2Z"/><path d="M643.27,466c-8,4.46-19.45.09-21-8.27-.53-2.89,1-6.13,1.44-9.23.19-1.26.52-2.73.08-3.82a21.53,21.53,0,0,1-.61-13.55,26.79,26.79,0,0,0,.4-5.75c0-2.06-.28-4.14-.1-6.18.19-2.28,1.64-3.33,3.94-2.74a7.55,7.55,0,0,1,3.09,1.27,6.61,6.61,0,0,0,7.9,1.16,7.51,7.51,0,0,1,3-.54c4.76,0,9.15-.22,13-4,2.78-2.67,5.65-1.2,6,2.76a29.08,29.08,0,0,0,3.76,12.36c2.09,3.54,2,7.74,1.23,11.84a8.25,8.25,0,0,0,.37,3.43c.71,2.61,1.9,5.14,2.29,7.79a12.83,12.83,0,0,1-8.1,14C653.83,469.21,647.35,469,643.27,466Zm-8.41-43.8a21.67,21.67,0,0,0-3.55-2.7,51.9,51.9,0,0,0-5.67-2c-.38,1.93-1.31,4-1,5.77.6,3.65-.11,7-.81,10.5-1.79,9,2.77,16.34,11.5,18.93a28.77,28.77,0,0,0,18.81-1c9.38-3.57,13.45-12.4,9.26-21.49-2-4.3-3.63-8.4-4-13.14-.22-3-1.93-3.63-4.53-1.88a72,72,0,0,0-5.88,4.85C645.56,418.21,636.81,419.39,634.86,422.24Zm30.32,22.58-.9.13c-6,10.88-28.61,14.4-39.28,2.47a77.38,77.38,0,0,0-2,8.15c-.48,3.62.7,6.84,4.07,8.61a18.76,18.76,0,0,0,12.53,2.17c1.21-.24,2.94-1.61,3.05-2.62s-1.14-2.77-2.25-3.38c-1.76-1-4-1.17-5.85-1.94a37.8,37.8,0,0,1-4.38-2.45l.37-.58L644,460.86l13.65-5.15c-.61,2-2.62,2.57-4.47,3.21-2.21.76-4.63,1.06-6.7,2.08-1.1.55-2.49,2.47-2.23,3.31.34,1.17,2.14,2.71,3.28,2.69a45.64,45.64,0,0,0,11.63-1.35,11,11,0,0,0,8-11.64C667,450.92,665.88,447.88,665.18,444.82Z"/><path d="M641.72,440.24l4.67-.37-1.94,3.07c2.15,2.54,3.18,2.68,5.65.77-.33,2.36-1.7,3.19-4,2a3.41,3.41,0,0,0-4.06.22c-1.62,1.13-3.15.9-4.33-1.83,2.28,1.67,4.11,1.53,5.27-.31.33-.52-.59-1.82-.94-2.76Z"/><path d="M626.8,426.05l3.8-2.15-4.41-4.64.6-.62,5,4.83-4.07,3.46Z"/><path d="M657.49,436.27l-7.57,3.06C652,436.21,654.84,435.08,657.49,436.27Z"/><path d="M637.77,440.23l-8.1-1.49C631.66,437,634.37,437.41,637.77,440.23Z"/><path d="M657,423.5l-4.82-2.14c1.57-2.1,3-4,4.38-5.88l.79.55-3.45,4.67,3.44,2.09Z"/><path d="M82.82,1596.55c-15.82,8.85-38.59.18-41.64-16.4-1-5.73,1.92-12.16,2.85-18.31.38-2.5,1-5.41.16-7.58-3.59-8.9-3.42-17.72-1.21-26.87.88-3.66.75-7.59.81-11.41.06-4.08-.56-8.21-.22-12.26.38-4.53,3.26-6.6,7.82-5.43,2.14.55,4.57,1.14,6.13,2.53,4.84,4.33,9.85,5,15.67,2.3a14.71,14.71,0,0,1,6-1.08c9.44,0,18.16-.45,25.89-7.89,5.51-5.3,11.2-2.38,12,5.48.87,8.78,2.88,16.74,7.46,24.51,4.14,7,3.87,15.35,2.43,23.47a16.49,16.49,0,0,0,.75,6.82c1.4,5.18,3.75,10.19,4.54,15.44,1.83,12.21-4.7,23-16.07,27.74C103.75,1602.84,90.9,1602.49,82.82,1596.55Zm-16.68-86.87c-2.6-2-4.58-4.19-7-5.35-3.57-1.67-7.48-2.62-11.25-3.87-.75,3.83-2.6,7.84-2,11.44,1.19,7.23-.21,13.88-1.6,20.82-3.55,17.77,5.48,32.42,22.8,37.56,12.63,3.74,25.16,2.66,37.32-2,18.61-7.07,26.67-24.58,18.37-42.62-3.92-8.52-7.21-16.65-7.91-26.06-.43-5.94-3.82-7.2-9-3.74-4.14,2.78-7.75,6.36-11.66,9.64C87.36,1501.69,70,1504,66.14,1509.68Zm60.14,44.79-1.78.25c-11.85,21.58-56.76,28.57-77.93,4.91-1.47,5.92-3.21,11-3.89,16.16-.94,7.19,1.4,13.56,8.08,17.09,7.72,4.07,16.18,6,24.86,4.29,2.4-.47,5.82-3.19,6-5.2s-2.27-5.48-4.47-6.71c-3.49-1.94-7.83-2.3-11.61-3.83-3.05-1.24-5.79-3.21-8.68-4.86l.73-1.17,26.68,10.87,27.08-10.2c-1.21,3.94-5.2,5.09-8.86,6.36-4.4,1.51-9.19,2.1-13.29,4.14-2.19,1.08-4.94,4.88-4.44,6.56.69,2.32,4.25,5.37,6.52,5.33,7.73-.15,15.71-.55,23.07-2.68,10.42-3,16.52-12.27,15.85-23.08C129.87,1566.56,127.66,1560.54,126.28,1554.47Z"/><path d="M79.73,1545.38l9.27-.73-3.84,6.08c4.25,5,6.31,5.32,11.2,1.54-.65,4.67-3.37,6.32-7.91,4-3.06-1.56-5.23-1.55-8.06.43-3.2,2.25-6.24,1.79-8.58-3.63,4.52,3.31,8.15,3,10.45-.6.65-1-1.18-3.62-1.87-5.49Z"/><path d="M50.15,1517.23l7.52-4.27-8.74-9.19,1.19-1.23,9.82,9.58L51.87,1519Z"/><path d="M111,1537.51l-15,6.06C100.09,1537.4,105.77,1535.14,111,1537.51Z"/><path d="M71.9,1545.37l-16.05-3C59.79,1538.92,65.16,1539.76,71.9,1545.37Z"/><path d="M110.13,1512.18l-9.56-4.25,8.69-11.65,1.56,1.08c-2.24,3-4.48,6.07-6.83,9.27l6.82,4.14Z"/><path d="M336.71,872.34c-13.45,7.53-32.82.16-35.4-13.94-.9-4.87,1.63-10.35,2.42-15.57.32-2.13.88-4.61.14-6.44-3.06-7.57-2.91-15.08-1-22.85.75-3.11.64-6.46.69-9.7.05-3.48-.47-7-.18-10.43.32-3.85,2.77-5.61,6.65-4.61,1.82.46,3.88,1,5.21,2.14,4.11,3.68,8.37,4.23,13.32,2a12.45,12.45,0,0,1,5.12-.92c8,0,15.43-.38,22-6.71,4.68-4.5,9.52-2,10.18,4.66.74,7.47,2.46,14.24,6.35,20.84,3.52,6,3.29,13.06,2.07,20a13.94,13.94,0,0,0,.63,5.8c1.2,4.4,3.19,8.66,3.86,13.13,1.56,10.38-4,19.51-13.66,23.59C354.51,877.69,343.58,877.4,336.71,872.34Zm-14.18-73.87c-2.21-1.72-3.9-3.56-6-4.54a87.1,87.1,0,0,0-9.57-3.3c-.64,3.26-2.21,6.67-1.71,9.74,1,6.14-.18,11.8-1.35,17.7-3,15.11,4.66,27.57,19.38,31.93,10.74,3.18,21.4,2.27,31.74-1.66,15.82-6,22.67-20.9,15.62-36.24-3.33-7.25-6.14-14.16-6.72-22.16-.38-5.05-3.26-6.12-7.65-3.18-3.52,2.36-6.58,5.41-9.91,8.2C340.57,791.68,325.82,793.66,322.53,798.47Zm51.13,38.09-1.51.21c-10.07,18.35-48.26,24.29-66.26,4.18-1.25,5-2.73,9.33-3.31,13.74-.8,6.11,1.19,11.53,6.87,14.53,6.56,3.46,13.75,5.1,21.14,3.65,2-.4,5-2.72,5.14-4.42s-1.92-4.66-3.79-5.7c-3-1.66-6.66-2-9.88-3.27a63.85,63.85,0,0,1-7.38-4.13l.62-1L338,863.6l23-8.67c-1,3.35-4.42,4.33-7.53,5.4-3.74,1.29-7.82,1.79-11.3,3.53-1.86.92-4.2,4.15-3.78,5.58.59,2,3.62,4.56,5.55,4.53,6.57-.14,13.36-.47,19.61-2.28,8.86-2.57,14.05-10.43,13.48-19.63C376.72,846.84,374.84,841.73,373.66,836.56Z"/><path d="M334.09,828.83l7.88-.62-3.27,5.17c3.62,4.3,5.36,4.52,9.52,1.31-.55,4-2.86,5.37-6.72,3.4-2.61-1.33-4.45-1.32-6.86.37-2.72,1.91-5.3,1.52-7.29-3.09,3.85,2.82,6.93,2.58,8.88-.51.55-.87-1-3.07-1.58-4.67Z"/><path d="M308.93,804.89l6.4-3.62-7.44-7.82,1-1,8.34,8.14-6.86,5.84Z"/><path d="M360.69,822.14l-12.76,5.16C351.39,822,356.23,820.12,360.69,822.14Z"/><path d="M327.42,828.82l-13.64-2.52C317.13,823.34,321.69,824.05,327.42,828.82Z"/><path d="M359.93,800.61,351.81,797l7.38-9.91,1.33.92-5.81,7.88,5.8,3.52Z"/><path d="M852.83,687.51c-9,5-21.86.11-23.58-9.29-.6-3.24,1.08-6.89,1.61-10.37.21-1.41.58-3.07.09-4.29-2-5-1.94-10-.69-15.22a29.51,29.51,0,0,0,.46-6.46c0-2.32-.32-4.65-.12-7,.21-2.56,1.84-3.74,4.43-3.07a8.35,8.35,0,0,1,3.47,1.43,7.44,7.44,0,0,0,8.87,1.3,8.36,8.36,0,0,1,3.41-.61c5.34,0,10.28-.25,14.66-4.47,3.13-3,6.35-1.35,6.79,3.1a32.54,32.54,0,0,0,4.23,13.89c2.34,4,2.19,8.69,1.37,13.29a9.38,9.38,0,0,0,.43,3.87c.79,2.93,2.12,5.76,2.57,8.74,1,6.92-2.66,13-9.11,15.71C864.69,691.08,857.41,690.88,852.83,687.51Zm-9.45-49.21a24.37,24.37,0,0,0-4-3,57.12,57.12,0,0,0-6.38-2.2c-.42,2.17-1.47,4.44-1.13,6.49.68,4.09-.12,7.86-.9,11.79-2,10.06,3.1,18.36,12.91,21.27A32.36,32.36,0,0,0,865,671.52c10.54-4,15.1-13.92,10.41-24.14-2.22-4.83-4.09-9.43-4.48-14.76-.25-3.36-2.17-4.08-5.09-2.12a80.25,80.25,0,0,0-6.6,5.46C855.4,633.78,845.57,635.1,843.38,638.3Zm34.06,25.38-1,.14C869.73,676,844.29,680,832.29,666.6a88.85,88.85,0,0,0-2.2,9.15c-.53,4.07.8,7.68,4.58,9.68a21.09,21.09,0,0,0,14.08,2.43c1.36-.27,3.3-1.81,3.43-2.94s-1.29-3.11-2.53-3.8c-2-1.1-4.44-1.31-6.58-2.17a41.92,41.92,0,0,1-4.92-2.76l.42-.66,15.11,6.16L869,675.91c-.69,2.24-2.95,2.89-5,3.6-2.49.86-5.21,1.19-7.53,2.35-1.24.61-2.8,2.77-2.51,3.72.39,1.31,2.4,3,3.69,3a51,51,0,0,0,13.07-1.51,12.37,12.37,0,0,0,9-13.08C879.48,670.53,878.23,667.12,877.44,663.68Z"/><path d="M851.08,658.53l5.25-.41-2.17,3.44c2.4,2.86,3.57,3,6.34.87-.37,2.65-1.91,3.58-4.48,2.27a3.84,3.84,0,0,0-4.57.24c-1.81,1.27-3.53,1-4.86-2.06,2.57,1.88,4.62,1.72,5.92-.34.37-.58-.66-2-1.06-3.1Z"/><path d="M834.33,642.58l4.26-2.41c-2.07-2.18-3.51-3.7-5-5.21l.68-.7,5.56,5.43-4.57,3.88Z"/><path d="M868.8,654.07l-8.5,3.43C862.61,654,865.83,652.73,868.8,654.07Z"/><path d="M846.64,658.52l-9.09-1.68C839.79,654.87,842.83,655.34,846.64,658.52Z"/><path d="M868.3,639.73l-5.41-2.41,4.92-6.61.88.62-3.87,5.25,3.86,2.34Z"/><path d="M576.83,1337.51c-9,5-21.86.11-23.58-9.29-.6-3.24,1.08-6.89,1.61-10.37.21-1.41.58-3.07.09-4.29-2-5-1.94-10-.69-15.22a29.51,29.51,0,0,0,.46-6.46c0-2.32-.32-4.65-.12-7,.21-2.56,1.84-3.74,4.43-3.07a8.35,8.35,0,0,1,3.47,1.43,7.44,7.44,0,0,0,8.87,1.3,8.36,8.36,0,0,1,3.41-.61c5.34,0,10.28-.25,14.66-4.47,3.13-3,6.35-1.35,6.79,3.1a32.54,32.54,0,0,0,4.23,13.89c2.34,4,2.19,8.69,1.37,13.29a9.38,9.38,0,0,0,.43,3.87c.79,2.93,2.12,5.76,2.57,8.74,1,6.92-2.66,13-9.11,15.71C588.69,1341.08,581.41,1340.88,576.83,1337.51Zm-9.45-49.21a24.37,24.37,0,0,0-4-3,57.12,57.12,0,0,0-6.38-2.2c-.42,2.17-1.47,4.44-1.13,6.49.68,4.09-.12,7.86-.9,11.79-2,10.06,3.1,18.36,12.91,21.27a32.36,32.36,0,0,0,21.14-1.11c10.54-4,15.1-13.92,10.41-24.14-2.22-4.83-4.09-9.43-4.48-14.76-.25-3.36-2.17-4.08-5.09-2.12a80.25,80.25,0,0,0-6.6,5.46C579.4,1283.78,569.57,1285.1,567.38,1288.3Zm34.06,25.38-1,.14c-6.71,12.22-32.15,16.18-44.15,2.78a88.85,88.85,0,0,0-2.2,9.15c-.53,4.07.8,7.68,4.58,9.68a21.09,21.09,0,0,0,14.08,2.43c1.36-.27,3.3-1.81,3.43-2.94s-1.29-3.11-2.53-3.8c-2-1.1-4.44-1.31-6.58-2.17a41.92,41.92,0,0,1-4.92-2.76l.42-.66,15.11,6.16,15.34-5.78c-.69,2.24-2.95,2.89-5,3.6-2.49.86-5.21,1.19-7.53,2.35-1.24.61-2.8,2.77-2.51,3.72.39,1.31,2.4,3,3.69,3a51,51,0,0,0,13.07-1.51,12.37,12.37,0,0,0,9-13.08C603.48,1320.53,602.23,1317.12,601.44,1313.68Z"/><path d="M575.08,1308.53l5.25-.41-2.17,3.44c2.4,2.86,3.57,3,6.34.87-.37,2.65-1.91,3.58-4.48,2.27a3.84,3.84,0,0,0-4.57.24c-1.81,1.27-3.53,1-4.86-2.06,2.57,1.88,4.62,1.72,5.92-.34.37-.58-.66-2-1.06-3.1Z"/><path d="M558.33,1292.58l4.26-2.41c-2.07-2.18-3.51-3.7-5-5.21l.68-.7,5.56,5.43-4.57,3.88Z"/><path d="M592.8,1304.07l-8.5,3.43C586.61,1304,589.83,1302.73,592.8,1304.07Z"/><path d="M570.64,1308.52l-9.09-1.68C563.79,1304.87,566.83,1305.34,570.64,1308.52Z"/><path d="M592.3,1289.73l-5.41-2.41,4.92-6.61.88.62-3.87,5.25,3.86,2.34Z"/><path d="M489.71,289.34c-13.45,7.53-32.82.16-35.4-13.94-.9-4.87,1.63-10.35,2.42-15.57.32-2.13.88-4.61.14-6.44-3.06-7.57-2.91-15.08-1-22.85.75-3.11.64-6.46.69-9.7.05-3.48-.47-7-.18-10.43.32-3.85,2.77-5.61,6.65-4.61,1.82.46,3.88,1,5.21,2.14,4.11,3.68,8.37,4.23,13.32,2a12.45,12.45,0,0,1,5.12-.92c8,0,15.43-.38,22-6.71,4.68-4.5,9.52-2,10.18,4.66.74,7.47,2.46,14.24,6.35,20.84,3.52,6,3.29,13.06,2.07,20a13.94,13.94,0,0,0,.63,5.8c1.2,4.4,3.19,8.66,3.86,13.13,1.56,10.38-4,19.51-13.66,23.59C507.51,294.69,496.58,294.4,489.71,289.34Zm-14.18-73.87c-2.21-1.72-3.9-3.56-6-4.54a87.1,87.1,0,0,0-9.57-3.3c-.64,3.26-2.21,6.67-1.71,9.74,1,6.14-.18,11.8-1.35,17.7-3,15.11,4.66,27.57,19.38,31.93,10.74,3.18,21.4,2.27,31.74-1.66,15.82-6,22.67-20.9,15.62-36.24-3.33-7.25-6.14-14.16-6.72-22.16-.38-5.05-3.26-6.12-7.65-3.18-3.52,2.36-6.58,5.41-9.91,8.2C493.57,208.68,478.82,210.66,475.53,215.47Zm51.13,38.09-1.51.21c-10.07,18.35-48.26,24.29-66.26,4.18-1.25,5-2.73,9.33-3.31,13.74-.8,6.11,1.19,11.53,6.87,14.53,6.56,3.46,13.75,5.1,21.14,3.65,2-.4,5-2.72,5.14-4.42s-1.92-4.66-3.79-5.7c-3-1.66-6.66-2-9.88-3.27a63.85,63.85,0,0,1-7.38-4.13l.62-1L491,280.6l23-8.67c-1,3.35-4.42,4.33-7.53,5.4-3.74,1.29-7.82,1.79-11.3,3.53-1.86.92-4.2,4.15-3.78,5.58.59,2,3.62,4.56,5.55,4.53,6.57-.14,13.36-.47,19.61-2.28,8.86-2.57,14.05-10.43,13.48-19.63C529.72,263.84,527.84,258.73,526.66,253.56Z"/><path d="M487.09,245.83l7.88-.62-3.27,5.17c3.62,4.3,5.36,4.52,9.52,1.31-.55,4-2.86,5.37-6.72,3.4-2.61-1.33-4.45-1.32-6.86.37-2.72,1.91-5.3,1.52-7.29-3.09,3.85,2.82,6.93,2.58,8.88-.51.55-.87-1-3.07-1.58-4.67Z"/><path d="M461.93,221.89l6.4-3.62-7.44-7.82,1-1,8.34,8.14-6.86,5.84Z"/><path d="M513.69,239.14l-12.76,5.16C504.39,239,509.23,237.12,513.69,239.14Z"/><path d="M480.42,245.82l-13.64-2.52C470.13,240.34,474.69,241.05,480.42,245.82Z"/><path d="M512.93,217.61,504.81,214l7.38-9.91,1.33.92-5.81,7.88,5.8,3.52Z"/><path d="M128.71,212.34c-13.45,7.53-32.82.16-35.4-13.94-.9-4.87,1.63-10.35,2.42-15.57.32-2.13.88-4.61.14-6.44-3.06-7.57-2.91-15.08-1-22.85.75-3.11.64-6.46.69-9.7,0-3.48-.47-7-.18-10.43.32-3.85,2.77-5.61,6.65-4.61,1.82.46,3.88,1,5.21,2.14,4.11,3.68,8.37,4.23,13.32,2a12.45,12.45,0,0,1,5.12-.92c8,0,15.43-.38,22-6.71,4.68-4.5,9.52-2,10.18,4.66.74,7.47,2.46,14.24,6.35,20.84,3.52,6,3.29,13.06,2.07,20a13.94,13.94,0,0,0,.63,5.8c1.2,4.4,3.19,8.66,3.86,13.13,1.56,10.38-4,19.51-13.66,23.59C146.51,217.69,135.58,217.4,128.71,212.34Zm-14.18-73.87c-2.21-1.72-3.9-3.56-6-4.54a87.1,87.1,0,0,0-9.57-3.3c-.64,3.26-2.21,6.67-1.71,9.74,1,6.14-.18,11.8-1.35,17.7-3,15.11,4.66,27.57,19.38,31.93,10.74,3.18,21.4,2.27,31.74-1.66,15.82-6,22.67-20.9,15.62-36.24-3.33-7.25-6.14-14.16-6.72-22.16-.38-5-3.26-6.12-7.65-3.18-3.52,2.36-6.58,5.41-9.91,8.2C132.57,131.68,117.82,133.66,114.53,138.47Zm51.13,38.09-1.51.21c-10.07,18.35-48.26,24.29-66.26,4.18-1.25,5-2.73,9.33-3.31,13.74-.8,6.11,1.19,11.53,6.87,14.53,6.56,3.46,13.75,5.1,21.14,3.65,2-.4,5-2.72,5.14-4.42s-1.92-4.66-3.79-5.7c-3-1.66-6.66-2-9.88-3.27a63.85,63.85,0,0,1-7.38-4.13l.62-1L130,203.6l23-8.67c-1,3.35-4.42,4.33-7.53,5.4-3.74,1.29-7.82,1.79-11.3,3.53-1.86.92-4.2,4.15-3.78,5.58.59,2,3.62,4.56,5.55,4.53,6.57-.14,13.36-.47,19.61-2.28,8.86-2.57,14.05-10.43,13.48-19.63C168.72,186.84,166.84,181.73,165.66,176.56Z"/><path d="M126.09,168.83l7.88-.62-3.27,5.17c3.62,4.3,5.36,4.52,9.52,1.31-.55,4-2.86,5.37-6.72,3.4-2.61-1.33-4.45-1.32-6.86.37-2.72,1.91-5.3,1.52-7.29-3.09,3.85,2.82,6.93,2.58,8.88-.51.55-.87-1-3.07-1.58-4.67Z"/><path d="M100.93,144.89l6.4-3.62-7.44-7.82,1-1,8.34,8.14-6.86,5.84Z"/><path d="M152.69,162.14l-12.76,5.16C143.39,162,148.23,160.12,152.69,162.14Z"/><path d="M119.42,168.82l-13.64-2.52C109.13,163.34,113.69,164.05,119.42,168.82Z"/><path d="M151.93,140.61,143.81,137l7.38-9.91,1.33.92-5.81,7.88,5.8,3.52Z"/><path d="M167.71,1882.34c-13.45,7.53-32.82.16-35.4-13.94-.9-4.87,1.63-10.35,2.42-15.57.32-2.13.88-4.61.14-6.44-3.06-7.57-2.91-15.08-1-22.85.75-3.11.64-6.46.69-9.7,0-3.48-.47-7-.18-10.43.32-3.85,2.77-5.61,6.65-4.61,1.82.46,3.88,1,5.21,2.14,4.11,3.68,8.37,4.23,13.32,2a12.45,12.45,0,0,1,5.12-.92c8,0,15.43-.38,22-6.71,4.68-4.5,9.52-2,10.18,4.66.74,7.47,2.46,14.24,6.35,20.84,3.52,6,3.29,13.06,2.07,20a13.94,13.94,0,0,0,.63,5.8c1.2,4.4,3.19,8.66,3.86,13.13,1.56,10.38-4,19.51-13.66,23.59C185.51,1887.69,174.58,1887.4,167.71,1882.34Zm-14.18-73.87c-2.21-1.72-3.9-3.56-6-4.54a87.1,87.1,0,0,0-9.57-3.3c-.64,3.26-2.21,6.67-1.71,9.74,1,6.14-.18,11.8-1.35,17.7-3,15.11,4.66,27.57,19.38,31.93,10.74,3.18,21.4,2.27,31.74-1.66,15.82-6,22.67-20.9,15.62-36.24-3.33-7.25-6.14-14.16-6.72-22.16-.38-5-3.26-6.12-7.65-3.18-3.52,2.36-6.58,5.41-9.91,8.2C171.57,1801.68,156.82,1803.66,153.53,1808.47Zm51.13,38.09-1.51.21c-10.07,18.35-48.26,24.29-66.26,4.18-1.25,5-2.73,9.33-3.31,13.74-.8,6.11,1.19,11.53,6.87,14.53,6.56,3.46,13.75,5.1,21.14,3.65,2-.4,4.95-2.72,5.14-4.42s-1.92-4.66-3.79-5.7c-3-1.66-6.66-2-9.88-3.27a63.85,63.85,0,0,1-7.38-4.13l.62-1L169,1873.6l23-8.67c-1,3.35-4.42,4.33-7.53,5.4-3.74,1.29-7.82,1.79-11.3,3.53-1.86.92-4.2,4.15-3.78,5.58.59,2,3.62,4.56,5.55,4.53,6.57-.14,13.36-.47,19.61-2.28,8.86-2.57,14.05-10.43,13.48-19.63C207.72,1856.84,205.84,1851.73,204.66,1846.56Z"/><path d="M165.09,1838.83l7.88-.62-3.27,5.17c3.62,4.3,5.36,4.52,9.52,1.31-.55,4-2.86,5.37-6.72,3.4-2.61-1.33-4.45-1.32-6.86.37-2.72,1.91-5.3,1.52-7.29-3.09,3.85,2.82,6.93,2.58,8.88-.51.55-.87-1-3.07-1.58-4.67Z"/><path d="M139.93,1814.89l6.4-3.62-7.44-7.82,1-1,8.34,8.14-6.86,5.84Z"/><path d="M191.69,1832.14l-12.76,5.16C182.39,1832,187.23,1830.12,191.69,1832.14Z"/><path d="M158.42,1838.82l-13.64-2.52C148.13,1833.34,152.69,1834.05,158.42,1838.82Z"/><path d="M190.93,1810.61l-8.12-3.62,7.38-9.91,1.33.92-5.81,7.88,5.8,3.52Z"/><path d="M680.71,890.34c-13.45,7.53-32.82.16-35.4-13.94-.9-4.87,1.63-10.35,2.42-15.57.32-2.13.88-4.61.14-6.44-3.06-7.57-2.91-15.08-1-22.85.75-3.11.64-6.46.69-9.7.05-3.48-.47-7-.18-10.43.32-3.85,2.77-5.61,6.65-4.61,1.82.46,3.88,1,5.21,2.14,4.11,3.68,8.37,4.23,13.32,2a12.45,12.45,0,0,1,5.12-.92c8,0,15.43-.38,22-6.71,4.68-4.5,9.52-2,10.18,4.66.74,7.47,2.46,14.24,6.35,20.84,3.52,6,3.29,13.06,2.07,20a13.94,13.94,0,0,0,.63,5.8c1.2,4.4,3.19,8.66,3.86,13.13,1.56,10.38-4,19.51-13.66,23.59C698.51,895.69,687.58,895.4,680.71,890.34Zm-14.18-73.87c-2.21-1.72-3.9-3.56-6-4.54a87.1,87.1,0,0,0-9.57-3.3c-.64,3.26-2.21,6.67-1.71,9.74,1,6.14-.18,11.8-1.35,17.7-3,15.11,4.66,27.57,19.38,31.93,10.74,3.18,21.4,2.27,31.74-1.66,15.82-6,22.67-20.9,15.62-36.24-3.33-7.25-6.14-14.16-6.72-22.16-.38-5.05-3.26-6.12-7.65-3.18-3.52,2.36-6.58,5.41-9.91,8.2C684.57,809.68,669.82,811.66,666.53,816.47Zm51.13,38.09-1.51.21c-10.07,18.35-48.26,24.29-66.26,4.18-1.25,5-2.73,9.33-3.31,13.74-.8,6.11,1.19,11.53,6.87,14.53,6.56,3.46,13.75,5.1,21.14,3.65,2-.4,4.95-2.72,5.14-4.42s-1.92-4.66-3.79-5.7c-3-1.66-6.66-2-9.88-3.27a63.85,63.85,0,0,1-7.38-4.13l.62-1L682,881.6l23-8.67c-1,3.35-4.42,4.33-7.53,5.4-3.74,1.29-7.82,1.79-11.3,3.53-1.86.92-4.2,4.15-3.78,5.58.59,2,3.62,4.56,5.55,4.53,6.57-.14,13.36-.47,19.61-2.28,8.86-2.57,14.05-10.43,13.48-19.63C720.72,864.84,718.84,859.73,717.66,854.56Z"/><path d="M678.09,846.83l7.88-.62-3.27,5.17c3.62,4.3,5.36,4.52,9.52,1.31-.55,4-2.86,5.37-6.72,3.4-2.61-1.33-4.45-1.32-6.86.37-2.72,1.91-5.3,1.52-7.29-3.09,3.85,2.82,6.93,2.58,8.88-.51.55-.87-1-3.07-1.58-4.67Z"/><path d="M652.93,822.89l6.4-3.62-7.44-7.82,1-1,8.34,8.14-6.86,5.84Z"/><path d="M704.69,840.14l-12.76,5.16C695.39,840,700.23,838.12,704.69,840.14Z"/><path d="M671.42,846.82l-13.64-2.52C661.13,841.34,665.69,842.05,671.42,846.82Z"/><path d="M703.93,818.61,695.81,815l7.38-9.91,1.33.92-5.81,7.88,5.8,3.52Z"/><path d="M575.49,1769.69c-10.35,5.79-25.24.12-27.23-10.72-.68-3.75,1.26-8,1.87-12,.24-1.64.67-3.54.1-5-2.35-5.82-2.23-11.6-.79-17.57A35,35,0,0,0,550,1717c0-2.67-.37-5.37-.14-8,.25-3,2.13-4.31,5.11-3.55a9.61,9.61,0,0,1,4,1.65c3.17,2.84,6.44,3.26,10.25,1.51a9.63,9.63,0,0,1,3.93-.71c6.17,0,11.87-.29,16.93-5.15,3.6-3.47,7.32-1.56,7.83,3.57a37.61,37.61,0,0,0,4.88,16c2.7,4.59,2.53,10,1.59,15.35a10.63,10.63,0,0,0,.48,4.45c.92,3.39,2.46,6.66,3,10.1,1.2,8-3.07,15-10.51,18.13C589.17,1773.81,580.77,1773.58,575.49,1769.69Zm-10.91-56.8c-1.7-1.32-3-2.73-4.61-3.49a67.17,67.17,0,0,0-7.36-2.53c-.48,2.5-1.69,5.12-1.3,7.48.78,4.73-.14,9.07-1,13.61-2.32,11.62,3.59,21.2,14.91,24.55a37.35,37.35,0,0,0,24.4-1.27c12.16-4.63,17.43-16.07,12-27.87-2.56-5.57-4.72-10.89-5.17-17-.29-3.89-2.5-4.71-5.88-2.45a97.08,97.08,0,0,0-7.62,6.3C578.45,1707.67,567.11,1709.19,564.58,1712.89Zm39.32,29.29-1.17.16c-7.74,14.11-37.1,18.68-51,3.21-.95,3.87-2.09,7.18-2.53,10.57-.62,4.7.91,8.86,5.28,11.17a24.36,24.36,0,0,0,16.25,2.8c1.57-.3,3.8-2.08,4-3.39s-1.48-3.59-2.92-4.39c-2.28-1.27-5.12-1.51-7.59-2.51a48.67,48.67,0,0,1-5.67-3.17l.47-.76,17.45,7.1,17.7-6.67c-.79,2.58-3.4,3.33-5.8,4.16-2.87,1-6,1.37-8.68,2.71-1.43.71-3.23,3.19-2.9,4.29.45,1.51,2.77,3.51,4.26,3.48,5.05-.1,10.27-.36,15.08-1.75,6.81-2,10.8-8,10.36-15.09C606.25,1750.09,604.8,1746.15,603.9,1742.18Z"/><path d="M573.47,1736.24l6.06-.48-2.51,4c2.77,3.3,4.12,3.47,7.32,1-.43,3.06-2.2,4.13-5.17,2.62a4.43,4.43,0,0,0-5.28.28c-2.09,1.47-4.08,1.17-5.6-2.37,3,2.16,5.33,2,6.83-.4.42-.67-.77-2.36-1.22-3.59Z"/><path d="M554.13,1717.83,559,1715l-5.71-6,.78-.8,6.41,6.26-5.27,4.49Z"/><path d="M593.92,1731.09l-9.81,4C586.77,1731,590.49,1729.54,593.92,1731.09Z"/><path d="M568.34,1736.23l-10.49-1.94C560.43,1732,563.94,1732.56,568.34,1736.23Z"/><path d="M593.34,1714.53l-6.25-2.77c2-2.73,3.86-5.18,5.68-7.63l1,.71c-1.46,2-2.93,4-4.47,6.06l4.46,2.71Z"/><path d="M69.49,944.69c-10.35,5.79-25.24.12-27.23-10.72-.68-3.75,1.26-8,1.87-12,.24-1.64.67-3.54.1-5-2.35-5.82-2.23-11.6-.79-17.57A35,35,0,0,0,44,892c0-2.67-.37-5.37-.14-8,.25-3,2.13-4.31,5.11-3.55a9.61,9.61,0,0,1,4,1.65c3.17,2.84,6.44,3.26,10.25,1.51a9.63,9.63,0,0,1,3.93-.71c6.17,0,11.87-.29,16.93-5.15,3.6-3.47,7.32-1.56,7.83,3.57a37.61,37.61,0,0,0,4.88,16c2.7,4.59,2.53,10,1.59,15.35a10.63,10.63,0,0,0,.48,4.45c.92,3.39,2.46,6.66,3,10.1,1.2,8-3.07,15-10.51,18.13C83.17,948.81,74.77,948.58,69.49,944.69Zm-10.91-56.8c-1.7-1.32-3-2.73-4.61-3.49a67.17,67.17,0,0,0-7.36-2.53c-.48,2.5-1.69,5.12-1.3,7.48.78,4.73-.14,9.07-1.05,13.61-2.32,11.62,3.59,21.2,14.91,24.55a37.35,37.35,0,0,0,24.4-1.27c12.16-4.63,17.43-16.07,12-27.87-2.56-5.57-4.72-10.89-5.17-17-.29-3.89-2.5-4.71-5.88-2.45a97.08,97.08,0,0,0-7.62,6.3C72.45,882.67,61.11,884.19,58.58,887.89ZM97.9,917.18l-1.17.16C89,931.45,59.63,936,45.78,920.55c-1,3.87-2.09,7.18-2.53,10.57-.62,4.7.91,8.86,5.28,11.17a24.36,24.36,0,0,0,16.25,2.8c1.57-.3,3.8-2.08,4-3.39s-1.48-3.59-2.92-4.39c-2.28-1.27-5.12-1.51-7.59-2.51a48.67,48.67,0,0,1-5.67-3.17l.47-.76L70.47,938l17.7-6.67c-.79,2.58-3.4,3.33-5.8,4.16-2.87,1-6,1.37-8.68,2.71-1.43.71-3.23,3.19-2.9,4.29.45,1.51,2.77,3.51,4.26,3.48,5-.1,10.27-.36,15.08-1.75,6.81-2,10.8-8,10.36-15.09C100.25,925.09,98.8,921.15,97.9,917.18Z"/><path d="M67.47,911.24l6.06-.48-2.51,4c2.77,3.3,4.12,3.47,7.32,1-.43,3.06-2.2,4.13-5.17,2.62a4.43,4.43,0,0,0-5.28.28c-2.09,1.47-4.08,1.17-5.6-2.37,3,2.16,5.33,2,6.83-.4.42-.67-.77-2.36-1.22-3.59Z"/><path d="M48.13,892.83,53,890l-5.71-6,.78-.8,6.41,6.26L49.25,894Z"/><path d="M87.92,906.09l-9.81,4C80.77,906,84.49,904.54,87.92,906.09Z"/><path d="M62.34,911.23l-10.49-1.94C54.43,907,57.94,907.56,62.34,911.23Z"/><path d="M87.34,889.53l-6.25-2.77c2-2.73,3.86-5.18,5.68-7.63l1,.71c-1.46,2-2.93,4-4.47,6.06l4.46,2.71Z"/><path d="M568.49,2031.69c-10.35,5.79-25.24.12-27.23-10.72-.68-3.75,1.26-8,1.87-12,.24-1.64.67-3.54.1-5-2.35-5.82-2.23-11.6-.79-17.57A35,35,0,0,0,543,1979c0-2.67-.37-5.37-.14-8,.25-3,2.13-4.31,5.11-3.55a9.61,9.61,0,0,1,4,1.65c3.17,2.84,6.44,3.26,10.25,1.51a9.63,9.63,0,0,1,3.93-.71c6.17,0,11.87-.29,16.93-5.15,3.6-3.47,7.32-1.56,7.83,3.57a37.61,37.61,0,0,0,4.88,16c2.7,4.59,2.53,10,1.59,15.35a10.63,10.63,0,0,0,.48,4.45c.92,3.39,2.46,6.66,3,10.1,1.2,8-3.07,15-10.51,18.13C582.17,2035.81,573.77,2035.58,568.49,2031.69Zm-10.91-56.8c-1.7-1.32-3-2.73-4.61-3.49a67.17,67.17,0,0,0-7.36-2.53c-.48,2.5-1.69,5.12-1.3,7.48.78,4.73-.14,9.07-1,13.61-2.32,11.62,3.59,21.2,14.91,24.55a37.35,37.35,0,0,0,24.4-1.27c12.16-4.63,17.43-16.07,12-27.87-2.56-5.57-4.72-10.89-5.17-17-.29-3.89-2.5-4.71-5.88-2.45a97.08,97.08,0,0,0-7.62,6.3C571.45,1969.67,560.11,1971.19,557.58,1974.89Zm39.32,29.29-1.17.16c-7.74,14.11-37.1,18.68-51,3.21-.95,3.87-2.09,7.18-2.53,10.57-.62,4.7.91,8.86,5.28,11.17a24.36,24.36,0,0,0,16.25,2.8c1.57-.3,3.8-2.08,4-3.39s-1.48-3.59-2.92-4.39c-2.28-1.27-5.12-1.51-7.59-2.51a48.67,48.67,0,0,1-5.67-3.17l.47-.76,17.45,7.1,17.7-6.67c-.79,2.58-3.4,3.33-5.8,4.16-2.87,1-6,1.37-8.68,2.71-1.43.71-3.23,3.19-2.9,4.29.45,1.51,2.77,3.51,4.26,3.48,5.05-.1,10.27-.36,15.08-1.75,6.81-2,10.8-8,10.36-15.09C599.25,2012.09,597.8,2008.15,596.9,2004.18Z"/><path d="M566.47,1998.24l6.06-.48-2.51,4c2.77,3.3,4.12,3.47,7.32,1-.43,3.06-2.2,4.13-5.17,2.62a4.43,4.43,0,0,0-5.28.28c-2.09,1.47-4.08,1.17-5.6-2.37,3,2.16,5.33,2,6.83-.4.42-.67-.77-2.36-1.22-3.59Z"/><path d="M547.13,1979.83,552,1977l-5.71-6,.78-.8,6.41,6.26-5.27,4.49Z"/><path d="M586.92,1993.09l-9.81,4C579.77,1993,583.49,1991.54,586.92,1993.09Z"/><path d="M561.34,1998.23l-10.49-1.94C553.43,1994,556.94,1994.56,561.34,1998.23Z"/><path d="M586.34,1976.53l-6.25-2.77c2-2.73,3.86-5.18,5.68-7.63l1,.71c-1.46,2-2.93,4-4.47,6.06l4.46,2.71Z"/><path d="M356.71,469.34c-13.45,7.53-32.82.16-35.4-13.94-.9-4.87,1.63-10.35,2.42-15.57.32-2.13.88-4.61.14-6.44-3.06-7.57-2.91-15.08-1-22.85.75-3.11.64-6.46.69-9.7.05-3.48-.47-7-.18-10.43.32-3.85,2.77-5.61,6.65-4.61,1.82.46,3.88,1,5.21,2.14,4.11,3.68,8.37,4.23,13.32,2a12.45,12.45,0,0,1,5.12-.92c8,0,15.43-.38,22-6.71,4.68-4.5,9.52-2,10.18,4.66.74,7.47,2.46,14.24,6.35,20.84,3.52,6,3.29,13.06,2.07,20a13.94,13.94,0,0,0,.63,5.8c1.2,4.4,3.19,8.66,3.86,13.13,1.56,10.38-4,19.51-13.66,23.59C374.51,474.69,363.58,474.4,356.71,469.34Zm-14.18-73.87c-2.21-1.72-3.9-3.56-6-4.54a87.1,87.1,0,0,0-9.57-3.3c-.64,3.26-2.21,6.67-1.71,9.74,1,6.14-.18,11.8-1.35,17.7-3,15.11,4.66,27.57,19.38,31.93,10.74,3.18,21.4,2.27,31.74-1.66,15.82-6,22.67-20.9,15.62-36.24-3.33-7.25-6.14-14.16-6.72-22.16-.38-5.05-3.26-6.12-7.65-3.18-3.52,2.36-6.58,5.41-9.91,8.2C360.57,388.68,345.82,390.66,342.53,395.47Zm51.13,38.09-1.51.21c-10.07,18.35-48.26,24.29-66.26,4.18-1.25,5-2.73,9.33-3.31,13.74-.8,6.11,1.19,11.53,6.87,14.53,6.56,3.46,13.75,5.1,21.14,3.65,2-.4,5-2.72,5.14-4.42s-1.92-4.66-3.79-5.7c-3-1.66-6.66-2-9.88-3.27a63.85,63.85,0,0,1-7.38-4.13l.62-1L358,460.6l23-8.67c-1,3.35-4.42,4.33-7.53,5.4-3.74,1.29-7.82,1.79-11.3,3.53-1.86.92-4.2,4.15-3.78,5.58.59,2,3.62,4.56,5.55,4.53,6.57-.14,13.36-.47,19.61-2.28,8.86-2.57,14.05-10.43,13.48-19.63C396.72,443.84,394.84,438.73,393.66,433.56Z"/><path d="M354.09,425.83l7.88-.62-3.27,5.17c3.62,4.3,5.36,4.52,9.52,1.31-.55,4-2.86,5.37-6.72,3.4-2.61-1.33-4.45-1.32-6.86.37-2.72,1.91-5.3,1.52-7.29-3.09,3.85,2.82,6.93,2.58,8.88-.51.55-.87-1-3.07-1.58-4.67Z"/><path d="M328.93,401.89l6.4-3.62-7.44-7.82,1-1,8.34,8.14-6.86,5.84Z"/><path d="M380.69,419.14l-12.76,5.16C371.39,419,376.23,417.12,380.69,419.14Z"/><path d="M347.42,425.82l-13.64-2.52C337.13,420.34,341.69,421.05,347.42,425.82Z"/><path d="M379.93,397.61,371.81,394l7.38-9.91,1.33.92-5.81,7.88,5.8,3.52Z"/><path d="M923.42,487c-9.94,5.56-24.25.12-26.16-10.3-.66-3.6,1.2-7.65,1.79-11.51.24-1.57.65-3.4.1-4.76-2.26-5.59-2.15-11.14-.76-16.89a32.76,32.76,0,0,0,.5-7.16c0-2.57-.34-5.16-.13-7.71.24-2.84,2-4.15,4.91-3.41a9.28,9.28,0,0,1,3.85,1.59c3,2.72,6.19,3.12,9.85,1.44a9.26,9.26,0,0,1,3.78-.68c5.93,0,11.41-.28,16.27-4.95,3.46-3.33,7-1.5,7.52,3.44a36.36,36.36,0,0,0,4.69,15.4c2.6,4.42,2.44,9.65,1.53,14.75a10.39,10.39,0,0,0,.47,4.29c.88,3.25,2.36,6.4,2.85,9.7,1.15,7.67-3,14.42-10.1,17.43C936.58,491,928.5,490.76,923.42,487Zm-10.48-54.59c-1.63-1.27-2.88-2.63-4.43-3.36a64.71,64.71,0,0,0-7.07-2.43c-.47,2.41-1.63,4.93-1.26,7.19.76,4.54-.13,8.72-1,13.09-2.23,11.16,3.45,20.37,14.32,23.59A35.91,35.91,0,0,0,937,469.28c11.69-4.44,16.75-15.44,11.54-26.78-2.46-5.35-4.53-10.46-5-16.37-.27-3.73-2.4-4.53-5.64-2.35a89.7,89.7,0,0,0-7.33,6.05C926.28,427.41,915.37,428.87,912.94,432.43Zm37.79,28.15-1.12.16c-7.44,13.56-35.66,17.95-49,3.08-.92,3.72-2,6.9-2.44,10.16-.59,4.51.88,8.52,5.08,10.73a23.39,23.39,0,0,0,15.62,2.7c1.51-.3,3.65-2,3.8-3.26s-1.43-3.45-2.81-4.22c-2.19-1.22-4.92-1.45-7.29-2.41a48,48,0,0,1-5.46-3l.46-.74,16.77,6.83,17-6.41c-.76,2.48-3.26,3.2-5.57,4-2.76,1-5.77,1.32-8.35,2.6-1.37.68-3.1,3.07-2.79,4.12.44,1.46,2.67,3.38,4.1,3.35a56.24,56.24,0,0,0,14.5-1.68,13.73,13.73,0,0,0,10-14.51C953,468.18,951.6,464.4,950.73,460.58Z"/><path d="M921.48,454.87l5.83-.46-2.42,3.82c2.67,3.17,4,3.34,7,1-.41,2.93-2.12,4-5,2.51a4.28,4.28,0,0,0-5.07.27c-2,1.41-3.92,1.13-5.39-2.28,2.85,2.08,5.13,1.91,6.57-.38.41-.64-.74-2.27-1.17-3.45Z"/><path d="M902.89,437.18l4.73-2.68-5.49-5.78.75-.77,6.16,6L904,438.28Z"/><path d="M941.14,449.92l-9.43,3.81C934.27,449.85,937.85,448.43,941.14,449.92Z"/><path d="M916.56,454.86,906.47,453C909,450.81,912.32,451.34,916.56,454.86Z"/><path d="M940.58,434l-6-2.67c1.95-2.63,3.7-5,5.46-7.33l1,.68-4.3,5.83,4.29,2.6Z"/><path d="M789.71,1189.34c-13.45,7.53-32.82.16-35.4-13.94-.9-4.87,1.63-10.35,2.42-15.57.32-2.13.88-4.61.14-6.44-3.06-7.57-2.91-15.08-1-22.85.75-3.11.64-6.46.69-9.7.05-3.48-.47-7-.18-10.43.32-3.85,2.77-5.61,6.65-4.61,1.82.46,3.88,1,5.21,2.14,4.11,3.68,8.37,4.23,13.32,2a12.45,12.45,0,0,1,5.12-.92c8,0,15.43-.38,22-6.71,4.68-4.5,9.52-2,10.18,4.66.74,7.47,2.46,14.24,6.35,20.84,3.52,6,3.29,13.06,2.07,20a13.94,13.94,0,0,0,.63,5.8c1.2,4.4,3.19,8.66,3.86,13.13,1.56,10.38-4,19.51-13.66,23.59C807.51,1194.69,796.58,1194.4,789.71,1189.34Zm-14.18-73.87c-2.21-1.72-3.9-3.56-6-4.54a87.1,87.1,0,0,0-9.57-3.3c-.64,3.26-2.21,6.67-1.71,9.74,1,6.14-.18,11.8-1.35,17.7-3,15.11,4.66,27.57,19.38,31.93,10.74,3.18,21.4,2.27,31.74-1.66,15.82-6,22.67-20.9,15.62-36.24-3.33-7.25-6.14-14.16-6.72-22.16-.38-5-3.26-6.12-7.65-3.18-3.52,2.36-6.58,5.41-9.91,8.2C793.57,1108.68,778.82,1110.66,775.53,1115.47Zm51.13,38.09-1.51.21c-10.07,18.35-48.26,24.29-66.26,4.18-1.25,5-2.73,9.33-3.31,13.74-.8,6.11,1.19,11.53,6.87,14.53,6.56,3.46,13.75,5.1,21.14,3.65,2-.4,4.95-2.72,5.14-4.42s-1.92-4.66-3.79-5.7c-3-1.66-6.66-2-9.88-3.27a63.85,63.85,0,0,1-7.38-4.13l.62-1L791,1180.6l23-8.67c-1,3.35-4.42,4.33-7.53,5.4-3.74,1.29-7.82,1.79-11.3,3.53-1.86.92-4.2,4.15-3.78,5.58.59,2,3.62,4.56,5.55,4.53,6.57-.14,13.36-.47,19.61-2.28,8.86-2.57,14.05-10.43,13.48-19.63C829.72,1163.84,827.84,1158.73,826.66,1153.56Z"/><path d="M787.09,1145.83l7.88-.62-3.27,5.17c3.62,4.3,5.36,4.52,9.52,1.31-.55,4-2.86,5.37-6.72,3.4-2.61-1.33-4.45-1.32-6.86.37-2.72,1.91-5.3,1.52-7.29-3.09,3.85,2.82,6.93,2.58,8.88-.51.55-.87-1-3.07-1.58-4.67Z"/><path d="M761.93,1121.89l6.4-3.62-7.44-7.82,1-1,8.34,8.14-6.86,5.84Z"/><path d="M813.69,1139.14l-12.76,5.16C804.39,1139,809.23,1137.12,813.69,1139.14Z"/><path d="M780.42,1145.82l-13.64-2.52C770.13,1140.34,774.69,1141.05,780.42,1145.82Z"/><path d="M812.93,1117.61l-8.12-3.62,7.38-9.91,1.33.92-5.81,7.88,5.8,3.52Z"/><path d="M405.71,1257.34c-13.45,7.53-32.82.16-35.4-13.94-.9-4.87,1.63-10.35,2.42-15.57.32-2.13.88-4.61.14-6.44-3.06-7.57-2.91-15.08-1-22.85.75-3.11.64-6.46.69-9.7.05-3.48-.47-7-.18-10.43.32-3.85,2.77-5.61,6.65-4.61,1.82.46,3.88,1,5.21,2.14,4.11,3.68,8.37,4.23,13.32,2a12.45,12.45,0,0,1,5.12-.92c8,0,15.43-.38,22-6.71,4.68-4.5,9.52-2,10.18,4.66.74,7.47,2.46,14.24,6.35,20.84,3.52,6,3.29,13.06,2.07,20a13.94,13.94,0,0,0,.63,5.8c1.2,4.4,3.19,8.66,3.86,13.13,1.56,10.38-4,19.51-13.66,23.59C423.51,1262.69,412.58,1262.4,405.71,1257.34Zm-14.18-73.87c-2.21-1.72-3.9-3.56-6-4.54a87.1,87.1,0,0,0-9.57-3.3c-.64,3.26-2.21,6.67-1.71,9.74,1,6.14-.18,11.8-1.35,17.7-3,15.11,4.66,27.57,19.38,31.93,10.74,3.18,21.4,2.27,31.74-1.66,15.82-6,22.67-20.9,15.62-36.24-3.33-7.25-6.14-14.16-6.72-22.16-.38-5-3.26-6.12-7.65-3.18-3.52,2.36-6.58,5.41-9.91,8.2C409.57,1176.68,394.82,1178.66,391.53,1183.47Zm51.13,38.09-1.51.21c-10.07,18.35-48.26,24.29-66.26,4.18-1.25,5-2.73,9.33-3.31,13.74-.8,6.11,1.19,11.53,6.87,14.53,6.56,3.46,13.75,5.1,21.14,3.65,2-.4,5-2.72,5.14-4.42s-1.92-4.66-3.79-5.7c-3-1.66-6.66-2-9.88-3.27a63.85,63.85,0,0,1-7.38-4.13l.62-1L407,1248.6l23-8.67c-1,3.35-4.42,4.33-7.53,5.4-3.74,1.29-7.82,1.79-11.3,3.53-1.86.92-4.2,4.15-3.78,5.58.59,2,3.62,4.56,5.55,4.53,6.57-.14,13.36-.47,19.61-2.28,8.86-2.57,14.05-10.43,13.48-19.63C445.72,1231.84,443.84,1226.73,442.66,1221.56Z"/><path d="M403.09,1213.83l7.88-.62-3.27,5.17c3.62,4.3,5.36,4.52,9.52,1.31-.55,4-2.86,5.37-6.72,3.4-2.61-1.33-4.45-1.32-6.86.37-2.72,1.91-5.3,1.52-7.29-3.09,3.85,2.82,6.93,2.58,8.88-.51.55-.87-1-3.07-1.58-4.67Z"/><path d="M377.93,1189.89l6.4-3.62-7.44-7.82,1-1,8.34,8.14-6.86,5.84Z"/><path d="M429.69,1207.14l-12.76,5.16C420.39,1207,425.23,1205.12,429.69,1207.14Z"/><path d="M396.42,1213.82l-13.64-2.52C386.13,1208.34,390.69,1209.05,396.42,1213.82Z"/><path d="M428.93,1185.61l-8.12-3.62,7.38-9.91,1.33.92-5.81,7.88,5.8,3.52Z"/><path d="M1146.71,125.34c-13.45,7.53-32.82.16-35.4-13.94-.9-4.87,1.63-10.35,2.42-15.57.32-2.13.88-4.61.14-6.44-3.06-7.57-2.91-15.08-1-22.85.75-3.11.64-6.46.69-9.7,0-3.48-.47-7-.18-10.43.32-3.85,2.77-5.61,6.65-4.61,1.82.46,3.88,1,5.21,2.14,4.11,3.68,8.37,4.23,13.32,2a12.45,12.45,0,0,1,5.12-.92c8,0,15.43-.38,22-6.71,4.68-4.5,9.52-2,10.18,4.66.74,7.47,2.46,14.24,6.35,20.84,3.52,6,3.29,13.06,2.07,20a13.94,13.94,0,0,0,.63,5.8c1.2,4.4,3.19,8.66,3.86,13.13,1.56,10.38-4,19.51-13.66,23.59C1164.51,130.69,1153.58,130.4,1146.71,125.34Zm-14.18-73.87c-2.21-1.72-3.9-3.56-6-4.54a87.1,87.1,0,0,0-9.57-3.3c-.64,3.26-2.21,6.67-1.71,9.74,1,6.14-.18,11.8-1.35,17.7-3,15.11,4.66,27.57,19.38,31.93,10.74,3.18,21.4,2.27,31.74-1.66,15.82-6,22.67-20.9,15.62-36.24-3.33-7.25-6.14-14.16-6.72-22.16-.38-5-3.26-6.12-7.65-3.18-3.52,2.36-6.58,5.41-9.91,8.2C1150.57,44.68,1135.82,46.66,1132.53,51.47Zm51.13,38.09-1.51.21c-10.07,18.35-48.26,24.29-66.26,4.18-1.25,5-2.73,9.33-3.31,13.74-.8,6.11,1.19,11.53,6.87,14.53,6.56,3.46,13.75,5.1,21.14,3.65,2-.4,5-2.72,5.14-4.42s-1.92-4.66-3.79-5.7c-3-1.66-6.66-2-9.88-3.27a63.85,63.85,0,0,1-7.38-4.13l.62-1L1148,116.6l23-8.67c-1,3.35-4.42,4.33-7.53,5.4-3.74,1.29-7.82,1.79-11.3,3.53-1.86.92-4.2,4.15-3.78,5.58.59,2,3.62,4.56,5.55,4.53,6.57-.14,13.36-.47,19.61-2.28,8.86-2.57,14-10.43,13.48-19.63C1186.72,99.84,1184.84,94.73,1183.66,89.56Z"/><path d="M1144.09,81.83l7.88-.62-3.27,5.17c3.62,4.3,5.36,4.52,9.52,1.31-.55,4-2.86,5.37-6.72,3.4-2.61-1.33-4.45-1.32-6.86.37-2.72,1.91-5.3,1.52-7.29-3.09,3.85,2.82,6.93,2.58,8.88-.51.55-.87-1-3.07-1.58-4.67Z"/><path d="M1118.93,57.89l6.4-3.62-7.44-7.82,1-1,8.34,8.14-6.86,5.84Z"/><path d="M1170.69,75.14l-12.76,5.16C1161.39,75,1166.23,73.12,1170.69,75.14Z"/><path d="M1137.42,81.82l-13.64-2.52C1127.13,76.34,1131.69,77.05,1137.42,81.82Z"/><path d="M1169.93,53.61,1161.81,50l7.38-9.91,1.33.92-5.81,7.88,5.8,3.52Z"/><path d="M263.37,1587.13c.27,4.58.49,8.22.86,14.61-11.58-10.54-22.32-9.61-33.51-.94,4.93-13.5,2.41-23.76-10.17-31.7,13.53-1,24.14-4.86,27.29-19.58,3,5.21,4.94,11.92,9.39,15.21,4.25,3.13,11.13,2.7,17.73,4-2.61,2.93-4.52,5.08-7.43,8.33,16.36,2.58,31.46,5,46.77,1.89,6.26-1.27,8.13-6.13,4.65-11.06-3.67-5.19-8.09-10.74-13.52-13.66-22.63-12.19-45.75-23.48-68.72-35-2.59-1.31-5.38-2.24-7.86-3.88,31.1,7.47,62.2,15.08,88.72,34.23a50.17,50.17,0,0,1,13.2,14.12c7.48,12.22,2.83,23.17-11.28,25.38-10.58,1.66-21.57,1.24-32.36.93C279.4,1589.75,271.71,1588.18,263.37,1587.13Z" style="stroke:#000;stroke-miterlimit:10;stroke-width:0.5px"/><path d="M865.36,869c15.56-6,17-21.18,19.21-36.41,2.63,17.39,4.57,35.3,28.26,38.2-23.15,3.45-26.09,20.56-27.71,39.07-2.06-8.13-2.86-16-6.09-22.65S870.21,875.24,865.36,869Z"/><path d="M887,906.81c15.93-2.24,20.73-13,22.7-27.18,2,13.94,6.68,25,22.66,27.21-16.31,2.65-20.69,14-22.69,28.28C908,920.76,903.07,909.52,887,906.81Z"/><path d="M94.39,474.29c3.39,5.11,6.28,10,9.64,14.46,27.45,36.75,64.73,57.66,109.12,66.36,39.37,7.71,77.65,4.12,113.79-14.33,27.79-14.18,48.27-35.34,59.65-64.76a3,3,0,0,1,1.75-1.75c-.2,1.82-.35,3.64-.6,5.45s-.51,3.74-.92,5.58c-7.52,33.52-27.85,57.51-57.08,73.93C284.28,584.77,236.53,586.3,188,569.51c-32.17-11.12-58.67-30.35-78-58.8C102,499.05,95.46,483.85,94.39,474.29Z" style="fill:none;stroke:#000;stroke-miterlimit:10"/><path d="M325.72,352.82c20,.92,36.16,7.13,46.95,23.83,2.24,3.45,3,7.45.27,10.55-1.91,2.2-5.34,4.28-8,4.23a10.92,10.92,0,0,1-7.84-4.53c-12.5-20.84-51.28-19.44-61.52.88-2.52,5-8.29,6.27-12.84,3.7s-6.13-7.9-3.42-13c7.42-13.89,19.74-21,34.63-24.24A116.22,116.22,0,0,1,325.72,352.82Z" style="fill:none;stroke:#000;stroke-miterlimit:10"/><path d="M158.36,352.85c19.2,1,35.42,7.09,46.12,23.9,2.46,3.88,2.54,7.86-.28,11.52a8.35,8.35,0,0,1-10.13,3,13.23,13.23,0,0,1-5.68-4.79c-13.43-19.77-47.62-19.51-60.55.56-3.59,5.57-8.56,7.2-13.45,4.41s-6.11-8.57-2.55-14.34C122.56,359.72,139.17,353.63,158.36,352.85Z" style="fill:none;stroke:#000;stroke-miterlimit:10"/><path d="M389,508.78c2.33-10.81,4.76-22.07,6.95-32.25C398.42,487.64,395.67,498.86,389,508.78Z" style="fill:none;stroke:#000;stroke-miterlimit:10"/><path d="M92,499.63q-2.7-8.82-5.39-17.64l1.24-.38q2.8,8.79,5.62,17.57Z" style="fill:none;stroke:#000;stroke-miterlimit:10"/><path d="M142.44,1349.34c3.39,5.12,6.28,10,9.64,14.47,27.46,36.75,64.74,57.65,109.12,66.35,39.37,7.72,77.65,4.12,113.79-14.32,27.79-14.19,48.27-35.35,59.66-64.77a3,3,0,0,1,1.75-1.75c-.2,1.82-.36,3.64-.61,5.45s-.51,3.75-.92,5.58c-7.52,33.52-27.85,57.51-57.07,73.93-45.46,25.54-93.22,27.07-141.8,10.28-32.17-11.12-58.67-30.35-78-58.79C150.07,1374.1,143.52,1358.9,142.44,1349.34Z" style="fill:none;stroke:#000;stroke-miterlimit:10;stroke-width:0.75px"/><path d="M373.78,1227.87c20,.92,36.15,7.14,47,23.83,2.23,3.45,3,7.45.27,10.56-1.91,2.19-5.34,4.28-8.05,4.22a10.92,10.92,0,0,1-7.84-4.53c-12.5-20.83-51.28-19.44-61.51.88a9.06,9.06,0,0,1-12.85,3.7c-4.52-2.55-6.13-7.89-3.42-13,7.42-13.88,19.74-21,34.63-24.24A116.05,116.05,0,0,1,373.78,1227.87Z" style="fill:none;stroke:#000;stroke-miterlimit:10;stroke-width:0.75px"/><path d="M206.41,1227.91c19.2.95,35.42,7.09,46.12,23.9,2.47,3.87,2.54,7.85-.28,11.51a8.37,8.37,0,0,1-10.13,3,13.38,13.38,0,0,1-5.68-4.8c-13.43-19.77-47.62-19.51-60.54.56-3.6,5.58-8.57,7.21-13.46,4.41s-6.11-8.57-2.54-14.34C170.61,1234.78,187.22,1228.69,206.41,1227.91Z" style="fill:none;stroke:#000;stroke-miterlimit:10;stroke-width:0.75px"/><path d="M437,1383.84c2.33-10.81,4.76-22.08,6.95-32.26C446.47,1362.69,443.73,1373.92,437,1383.84Z" style="fill:none;stroke:#000;stroke-miterlimit:10;stroke-width:0.75px"/><path d="M140.07,1374.68q-2.7-8.81-5.39-17.63l1.24-.38q2.82,8.77,5.62,17.57Z" style="fill:none;stroke:#000;stroke-miterlimit:10;stroke-width:0.75px"/><path d="M564.5,486.2l-31.76-1.51,0-.61,31.61,1.38Z"/><path d="M570.93,504.89h15.42v.36H570.84Z"/><path d="M589.9,467.73,579.43,467l0-.94,10.47.85Z"/><path d="M494.34,446.25q-1.29-10.53-2.57-21.06l.73-.14L495.23,446Z"/><path d="M487.33,507.65q2-6,4.07-12.07l.86.47L488,508.2Z"/><path d="M518.17,417.65l5.58-15.39c.2.11.4.22.61.32q-2.64,7.85-5.26,15.68Z"/><path d="M540.52,631l-11.74-10.23.43-.79,11.88,10Z"/><path d="M519.33,607.2l7.94,10.35-8.64-9.39Z"/><path d="M254.94,228.7,249,228l-18.56-11.87-22.62-14.54-3.59-5.23c1.38.24,3,0,4.12.77C223.93,207.59,239.43,218.16,254.94,228.7Z"/><path d="M351.19,37.92l6,45.91-1.56.31-5.77-46.07Z"/><path d="M312.22,124.62q-6.17-19.4-12.32-38.79l2.3-1q4.94,20,9.86,40Z"/><path d="M218.07,312.65q-3,15.66-6,31.33l-1.17-.28q2.79-16.06,5.57-32.13Z"/><path d="M158.18,375.6l-27.67,16.29c-.29-.88-.59-1.75-.88-2.62l28.67-13.48Z"/><path d="M350.75,2017.37l-40.7,36.2c-.29-.87-.58-1.73-.86-2.6l40.71-36.63C350.18,2015.35,350.47,2016.36,350.75,2017.37Z" style="fill:none;stroke:#000;stroke-miterlimit:10;stroke-width:0.5px"/><path d="M304.29,1992.15l-31.58,29.1c-.36-1.09-.71-2.18-1.07-3.28l32.19-26.72Z" style="fill:none;stroke:#000;stroke-miterlimit:10;stroke-width:0.5px"/><path d="M386.79,1992.33l-22.88,31.23c-.49-1-1-2.08-1.49-3.11l23.66-29.36Z" style="fill:none;stroke:#000;stroke-miterlimit:10;stroke-width:0.5px"/><path d="M205.07,2147.33l12.21-43.23,1.42,1-12,43.28Z" style="fill:none;stroke:#000;stroke-miterlimit:10;stroke-width:0.5px"/><path d="M228.9,2079q9.34-15.71,18.7-31.41l.5.82-19.65,30Z" style="fill:none;stroke:#000;stroke-miterlimit:10;stroke-width:0.5px"/><path d="M447.44,1796.94c24.3-12.55,49-8.24,73.74-5.12C496.48,1788.89,471.8,1786.63,447.44,1796.94Z" style="fill:none;stroke:#000;stroke-miterlimit:10;stroke-width:0.5px"/><path d="M75.46,1868.11l68.37-6.62c0,.7,0,1.4.07,2.11l-68.26,7.85Z" style="fill:none;stroke:#000;stroke-miterlimit:10;stroke-width:0.5px"/><path d="M120.19,1885.22l49.48,7.75-.11,2.23L120,1887.63Z" style="fill:none;stroke:#000;stroke-miterlimit:10;stroke-width:0.5px"/><path d="M665.22,2185.21c-5.63,2.9-7,.5-5.54-4.86,2-7.46,1.82-13.77-5-17,6.79.45,12.59-1.86,16.72-8.81l-7.65,15.89,6.24-3-.13-.06c-2.08,4-4,8.18-6.3,12.06C661.45,2182.82,662.2,2184.41,665.22,2185.21Z" style="fill:none;stroke:#000;stroke-miterlimit:10"/><path d="M773.72,2006.18l-28.7,5.74.05.49,27.13-.81c-6.83.91-13.66,1.62-20.48,2.79-16.25,2.78-32.5,5.79-50.81,9.08l5.07,5.94c-3.26-1.17-6.72-2-9.73-3.58-7.67-4.07-15.48-7.37-26-5.39,1.6,4.26,2.84,7.55,4.07,10.84l1.24-.58c-.5-2.29-1-4.59-1.16-5.37l9,12.71,1.55-1.18c-.31-2-.63-4.09-1.13-7.37l3.45,8.34.76-.4c-.09-1.6-.18-3.2-.38-6.78,1.6,4.41,2.53,7,3.62,10,.72-2.74,1.3-5,1.74-6.67,2.77,1.81,4.7,3.73,7.1,4.34,1,.26,3-2.19,4.82-3.59l3.3,2c-.75-3-1.18-4.82-1.62-6.6,2.13,2,4.82,3.56,6.2,6.07,1,1.77,1.09,5.32,0,7.13-1.32,2.11-4.94,4.82-6.64,4.47-14.47-3.06-27.77-8.58-38.13-19-1.58-1.58-2.61-5.65-1.63-7.59s5-4.08,7.32-4c5.28.28,10.21,2.24,15.46,2.81,4.37.47,9.14,1,13.47-.33C726.27,2012.47,749.93,2007.65,773.72,2006.18Z" style="fill:none;stroke:#000;stroke-miterlimit:10"/><path d="M718.53,2099.08c-4.69,5.72-9.26,11.54-14.07,17.13-6.56,7.61-13.31,15-20,22.55l10.22-14.82-31.46,7.61c0-.55-.08-1.09-.13-1.63,8.24-2.19,16.46-4.81,24.71-6.42,7.73-1.51,13.56-5.61,18.77-12.16C710.13,2106.89,714.52,2103.14,718.53,2099.08Z" style="fill:none;stroke:#000;stroke-miterlimit:10"/><path d="M831.81,2155.5l16.05,52.5C837.75,2191.79,834,2172.7,831.81,2155.5Z" style="fill:none;stroke:#000;stroke-miterlimit:10"/><path d="M844.25,2157.4l-4-30.36,1.72-.53q1.89,15.38,3.79,30.77Z" style="fill:none;stroke:#000;stroke-miterlimit:10"/><path d="M822.8,2189.68l-2.71-25.09,1.86-.54q1.34,12.43,2.68,24.86Z" style="fill:none;stroke:#000;stroke-miterlimit:10"/><path d="M767.69,2161.59l-16.66,38-1.4-.52,17.47-37.72Z" style="fill:none;stroke:#000;stroke-miterlimit:10"/><path d="M894.15,1905l-41.56,9.84-.12-1.47L894,1903.15Z" style="fill:none;stroke:#000;stroke-miterlimit:10"/><path d="M827.86,1916.6l42.29-15.6c.11.6.23,1.2.35,1.79L828,1917.89Z" style="fill:none;stroke:#000;stroke-miterlimit:10"/><path d="M949.22,1910.14l-29.62,4.42.15-2.63,29.39-1.6Z" style="fill:none;stroke:#000;stroke-miterlimit:10"/><path d="M898.07,2097l35-16.63c.1.32.19.64.29,1l-35,16.63Z" style="fill:none;stroke:#000;stroke-miterlimit:10"/><path d="M853.7,778.15,827.07,771C836.24,768.45,845.51,771.27,853.7,778.15Z" style="fill:none;stroke:#000;stroke-miterlimit:10;stroke-width:0.75px"/><path d="M846.14,1083.86l-14.56,5.54c-.11-.42-.21-.85-.31-1.27l14.5-5.79Z" style="fill:none;stroke:#000;stroke-miterlimit:10;stroke-width:0.75px"/><path d="M1092.08,55.4c7.67-3.95,9.5-.68,7.54,6.62-2.73,10.15-2.47,18.74,6.86,23.21-9.24-.62-17.13,2.53-22.76,12,3.39-7,6.78-14.07,10.41-21.62l-8.49,4,.18.08c2.83-5.48,5.38-11.12,8.58-16.4C1097.21,58.66,1096.19,56.49,1092.08,55.4Z" style="fill:none;stroke:#000;stroke-miterlimit:10;stroke-width:0.75px"/><path d="M944.4,299.08l39.07-7.81-.07-.67-36.93,1.11c9.3-1.25,18.59-2.21,27.88-3.8,22.12-3.79,44.24-7.88,69.16-12.36l-6.9-8.08c4.43,1.59,9.15,2.7,13.24,4.87,10.44,5.54,21.08,10,35.43,7.33-2.18-5.8-3.86-10.28-5.55-14.75l-1.68.78,1.59,7.31-12.29-17.29-2.11,1.6c.43,2.79.86,5.57,1.54,10-2-4.84-3.35-8.09-4.7-11.34l-1,.54c.11,2.18.23,4.36.5,9.23l-4.92-13.62c-1,3.73-1.77,6.8-2.37,9.08-3.77-2.47-6.39-5.07-9.66-5.91-1.39-.35-4.13,3-6.57,4.89l-4.48-2.77c1,4.14,1.61,6.57,2.2,9-2.9-2.7-6.56-4.85-8.44-8.26-1.34-2.42-1.48-7.25.06-9.71,1.79-2.88,6.72-6.57,9-6.08,19.71,4.16,37.8,11.67,51.91,25.81,2.15,2.16,3.55,7.69,2.21,10.34s-6.85,5.55-10,5.39c-7.19-.38-13.9-3.05-21-3.83-6-.64-12.44-1.37-18.34.45C1009,290.52,976.78,297.08,944.4,299.08Z" style="fill:none;stroke:#000;stroke-miterlimit:10;stroke-width:0.75px"/><path d="M1019.53,172.63c6.37-7.78,12.59-15.7,19.15-23.31,8.93-10.36,18.11-20.48,27.19-30.7-4.4,6.37-8.79,12.75-13.91,20.18l42.82-10.35c.06.73.12,1.47.17,2.21-11.2,3-22.39,6.55-33.62,8.74-10.53,2.06-18.47,7.63-25.56,16.55C1031,162,1025,167.1,1019.53,172.63Z" style="fill:none;stroke:#000;stroke-miterlimit:10;stroke-width:0.75px"/><path d="M865.34,95.83,843.5,24.38C857.25,46.44,862.36,72.44,865.34,95.83Z" style="fill:none;stroke:#000;stroke-miterlimit:10;stroke-width:0.75px"/><path d="M848.4,93.25l5.47,41.33-2.33.72-5.16-41.88Z" style="fill:none;stroke:#000;stroke-miterlimit:10;stroke-width:0.75px"/><path d="M877.6,49.31l3.69,34.15-2.53.74q-1.83-16.92-3.65-33.84Z" style="fill:none;stroke:#000;stroke-miterlimit:10;stroke-width:0.75px"/><path d="M952.61,87.55,975.29,35.8l1.91.7q-11.9,25.68-23.78,51.34Z" style="fill:none;stroke:#000;stroke-miterlimit:10;stroke-width:0.75px"/><path d="M780.48,436.78l56.57-13.39c.05.67.11,1.34.16,2l-56.52,13.92Z" style="fill:none;stroke:#000;stroke-miterlimit:10;stroke-width:0.75px"/><path d="M870.71,421l-57.56,21.24-.48-2.45,57.92-20.54Z" style="fill:none;stroke:#000;stroke-miterlimit:10;stroke-width:0.75px"/><path d="M705.53,429.8l40.31-6c-.07,1.19-.13,2.38-.2,3.58l-40,2.18Z" style="fill:none;stroke:#000;stroke-miterlimit:10;stroke-width:0.75px"/><path d="M775.14,175.41l-47.65,22.64-.39-1.31,47.65-22.64Z" style="fill:none;stroke:#000;stroke-miterlimit:10;stroke-width:0.75px"/><path d="M425.71,996.2l-2.94-39.49.54-.05q1.5,19.64,3,39.28Z"/><path d="M410.44,1006.44l2.05,19.08-.31,0-2.07-19.19Z"/><path d="M445,1025.35l-.81-13,.82-.07.66,13.06Z"/><path d="M450.83,904.48l17.83-5.77.22.88-17.7,5.95Z"/><path d="M396.9,903.36l11,3.54c-.09.38-.19.75-.28,1.13l-11.06-3.79Z"/><path d="M478.69,930.44l14,5c-.06.26-.13.53-.19.79l-14.23-4.58C478.42,931.25,478.55,930.85,478.69,930.44Z"/><path d="M297.51,984.34l7.27-15.78.73.43-7,15.93Z"/><path d="M315.26,955.19l-7.87,11.09c2.18-3.71,4.56-7.78,6.95-11.84Z"/><path d="M867.84,1595.92c4.43,9,1.85,11.66-4.7,10.13-9.13-2.12-16.51-.75-19.12,11.35-.7-11.51-4.47-20.89-13.38-26.68l20.05,10.22-4.61-10-.05.23c5.11,2.83,10.32,5.29,15.3,8.59C865.71,1602.66,867.45,1601.13,867.84,1595.92Z" style="fill:none;stroke:#000;stroke-miterlimit:10;stroke-width:0.75px"/><path d="M757,1520.57c7.56,6.93,15.22,13.65,22.66,20.83,10.13,9.77,20.09,19.89,30.13,29.86l-19.27-14.73,14.64,51.71-1.89.49c-4.06-13.5-8.63-26.91-12-40.53-3.18-12.77-9-21.91-17.69-29.58C767.69,1533.41,762.49,1526.64,757,1520.57Z" style="fill:none;stroke:#000;stroke-miterlimit:10;stroke-width:0.75px"/><path d="M802.71,1320.37l58.75-35.82C844.26,1304.29,822.51,1313.8,802.71,1320.37Z" style="fill:none;stroke:#000;stroke-miterlimit:10;stroke-width:0.75px"/><path d="M802.68,1299.09,767.75,1311c-.32-.93-.63-1.87-.94-2.8l35.46-11.54C802.41,1297.44,802.54,1298.27,802.68,1299.09Z" style="fill:none;stroke:#000;stroke-miterlimit:10;stroke-width:0.75px"/><path d="M844.49,1329.82l-29,8.76-1-3,28.72-8.67Z" style="fill:none;stroke:#000;stroke-miterlimit:10;stroke-width:0.75px"/><path d="M821.5,1427.32,869.18,1449c-.12.82-.23,1.63-.35,2.45l-47.48-23.11Z" style="fill:none;stroke:#000;stroke-miterlimit:10;stroke-width:0.75px"/><path d="M497.15,1257.31q9.56,34.17,19.1,68.34l-1.71.46Q504.78,1292,495,1257.89Z" style="fill:none;stroke:#000;stroke-miterlimit:10;stroke-width:0.75px"/><path d="M522.79,1367q-13-34.29-26-68.59l2-.89,25.45,69.13Z" style="fill:none;stroke:#000;stroke-miterlimit:10;stroke-width:0.75px"/><path d="M493.18,1163.73q5.29,24.57,10.57,49.14l-3.12.18q-3.6-24.6-7.21-49.22Z" style="fill:none;stroke:#000;stroke-miterlimit:10;stroke-width:0.75px"/><path d="M722,1218.56l-25.9-56.16,1.09-.64,25.89,56.16Z" style="fill:none;stroke:#000;stroke-miterlimit:10;stroke-width:0.75px"/><path d="M204.32,8.91,177.68,1.76C186.86-.79,196.12,2,204.32,8.91Z" style="fill:none;stroke:#000;stroke-miterlimit:10;stroke-width:2px"/><path d="M196.76,314.62l-14.57,5.54c-.1-.42-.21-.85-.31-1.28l14.51-5.78Z" style="fill:none;stroke:#000;stroke-miterlimit:10;stroke-width:2px"/><path d="M1066.15,722.43l-40.7,36.19c-.29-.86-.58-1.73-.86-2.59l40.71-36.64C1065.59,720.4,1065.87,721.41,1066.15,722.43Z" style="fill:none;stroke:#000;stroke-miterlimit:10;stroke-width:0.5px"/><path d="M1019.7,697.2l-31.59,29.11c-.35-1.09-.71-2.19-1.07-3.28l32.19-26.73C1019.38,696.6,1019.54,696.9,1019.7,697.2Z" style="fill:none;stroke:#000;stroke-miterlimit:10;stroke-width:0.5px"/><path d="M1102.19,697.39l-22.87,31.22-1.5-3.11,23.67-29.36Z" style="fill:none;stroke:#000;stroke-miterlimit:10;stroke-width:0.5px"/><path d="M920.47,852.38l12.21-43.22,1.42,1q-6,21.63-12,43.27Z" style="fill:none;stroke:#000;stroke-miterlimit:10;stroke-width:0.5px"/><path d="M944.3,784.09,963,752.67l.5.83-19.65,30Z" style="fill:none;stroke:#000;stroke-miterlimit:10;stroke-width:0.5px"/><path d="M1162.84,502c24.31-12.56,49-8.25,73.74-5.12C1211.88,493.94,1187.2,491.69,1162.84,502Z" style="fill:none;stroke:#000;stroke-miterlimit:10;stroke-width:0.5px"/><path d="M790.86,573.16l68.37-6.61c0,.7,0,1.4.07,2.1l-68.25,7.86C791,575.39,790.92,574.28,790.86,573.16Z" style="fill:none;stroke:#000;stroke-miterlimit:10;stroke-width:0.5px"/><path d="M835.59,590.27,885.07,598l-.11,2.23-49.53-7.57Z" style="fill:none;stroke:#000;stroke-miterlimit:10;stroke-width:0.5px"/><path d="M1238.59,1765c5,4.32,4.13,7-.26,8.43-6.12,2-10.27,5.59-8.75,14.54-3.38-7.35-8.09-12.16-15-12.72l14.85-.62-5.38-4.92,0,.17c3.84,0,7.65-.3,11.54.05C1239,1770.19,1239.69,1768.54,1238.59,1765Z" style="fill:none;stroke:#000;stroke-miterlimit:10;stroke-width:0.75px"/><path d="M1059.08,1748.62l19.45,26.93.31-.32-15.28-28c4.32,6.64,8.51,13.41,13,19.92,10.7,15.49,21.55,30.87,33.71,48.25.67-4.55,1-6.54,1.25-8.53,1,4,2.32,8.11,2.87,12.12,1.43,10.24,3.45,20.21,10.51,30.17l5.09-10.15-1.06-1-3,4.14c1-4.59,2.34-10.47,3.65-16.35l-1.63-1-4.35,5.19c1.59-3.47,2.67-5.8,3.74-8.14l-.68-.57-4.37,4.07,4.78-9.22-5.44,1.81c-.28-3.89,0-6.94-.93-9.79-.38-1.21-3.13-2-5-3.1,0-.4-.17-1.79-.42-4.56l-3.57,5.29c.17-3.31-.22-7,.71-9.79.67-2,3-4,4.83-3.83,2.14.23,5.94,2.55,6.62,4.52,5.8,16.81,9.3,33.73,7.94,50.22-.21,2.51-2.39,5.8-4.24,5.82s-5.48-3-6.64-5.51c-2.67-5.67-4-11.9-6.5-17.7-2.06-4.83-4.28-10.12-7.54-13.93A445.85,445.85,0,0,1,1059.08,1748.62Z" style="fill:none;stroke:#000;stroke-miterlimit:10;stroke-width:0.75px"/><path d="M1151.63,1755.94c6.39,1.79,12.79,3.41,19.18,5.42,8.69,2.73,17.36,5.76,26,8.66l-15.54-2.65,22.21,28.8-1,1c-5.94-7.43-12.18-14.61-17.74-22.37-5.22-7.28-11.15-11.16-18.39-13C1161.45,1760.48,1156.54,1757.92,1151.63,1755.94Z" style="fill:none;stroke:#000;stroke-miterlimit:10;stroke-width:0.75px"/><path d="M1128.1,1606.72l26.64-45.32C1149.32,1580.79,1138.49,1595.09,1128.1,1606.72Z" style="fill:none;stroke:#000;stroke-miterlimit:10;stroke-width:0.75px"/><path d="M1122.62,1592.66l-18.27,20.7-1.29-1.5,18.67-20.69Z" style="fill:none;stroke:#000;stroke-miterlimit:10;stroke-width:0.75px"/><path d="M1156,1597.59,1140.59,1614l-1.38-1.65,15.29-16.31Z" style="fill:none;stroke:#000;stroke-miterlimit:10;stroke-width:0.75px"/><path d="M1167,1670.52l34.65-3.21.42,1.75-34.9,2.2Z" style="fill:none;stroke:#000;stroke-miterlimit:10;stroke-width:0.75px"/><path d="M925.53,1677.52l29.2,38.16-.93.92-29.44-37.91Z" style="fill:none;stroke:#000;stroke-miterlimit:10;stroke-width:0.75px"/><path d="M969.34,1740.61l-33.48-35.79,1-1.34,33.28,36.34Z" style="fill:none;stroke:#000;stroke-miterlimit:10;stroke-width:0.75px"/><path d="M899.08,1617.1l19.06,28.6c-.62.42-1.24.84-1.85,1.27l-17-29.9Z" style="fill:none;stroke:#000;stroke-miterlimit:10;stroke-width:0.75px"/><path d="M1052.73,1569.11l-30.22-27.61.5-.82,30.21,27.61Z" style="fill:none;stroke:#000;stroke-miterlimit:10;stroke-width:0.75px"/><path d="M224.28,792.75c4.49-2.6,6.57,2.6,6.93,11.92.49,13,2.73,24.93,10.42,34.55-6.7-4.27-11.55-2.88-13.28,8.07.72-8.45,1.44-16.89,2.21-25.95l-5.06,2.41.15.18c.69-6.51,1.15-13.34,2.16-19.43C228.69,799.15,227.45,795.78,224.28,792.75Z" style="fill:none;stroke:#000;stroke-miterlimit:10;stroke-width:0.75px"/><path d="M177.78,1073.8l25.85,3.76-.21-1-25.94-12.2c6.3,1.73,12.67,3.87,18.88,5.13,14.79,3,29.51,5.58,46.12,8.68-3.63-7.3-5.23-10.51-6.83-13.71,3.53,3.84,7.14,7.12,10.56,11.63,8.74,11.52,17.36,21.66,26.91,23.29-2.94-8.81-5.21-15.6-7.47-22.4l-1,.45,2.88,10.67-12.86-28.4-1.12,1.41c1,4,2,8,3.5,14.41L251,1058.18l-.6.36c.61,3,1.21,6.1,2.57,12.92-3-9.09-4.71-14.37-6.76-20.61.21,4.78.37,8.72.5,11.64-3.27-4.81-5.75-9.37-8.27-11.74-1.07-1-2.22,2.58-3.5,4.3l-3.84-5.49c1.71,6.09,2.71,9.66,3.72,13.22-2.71-4.79-5.82-9.12-8-14.53-1.53-3.83-2.78-10.53-2.28-13.36.58-3.3,3.2-6.55,4.95-5,15,13.06,29.62,30.15,43,54.9,2,3.76,4.36,11.91,4,15.07s-3.53,5.1-5.78,3.72c-5.19-3.2-10.59-9.37-15.84-13.09-4.38-3.11-9.16-6.53-12.92-6.21C221.57,1086,200.27,1083.08,177.78,1073.8Z" style="fill:none;stroke:#000;stroke-miterlimit:10;stroke-width:0.75px"/><path d="M200.84,927.4c2.66-8.36,5.18-17,8-25,3.86-11,8-21.5,12-32.22-1.6,7.16-3.19,14.31-5.05,22.65l27.92,1.65c.22,1,.43,2.08.65,3.12-7.24-.07-14.32.7-21.77-.45-7-1.08-11.28,3.64-14.18,13.3C206.4,917,203.38,921.8,200.84,927.4Z" style="fill:none;stroke:#000;stroke-miterlimit:10;stroke-width:0.75px"/><path d="M73,764.17,40.43,657.53C55.47,693.06,65.31,730.8,73,764.17Z" style="fill:none;stroke:#000;stroke-miterlimit:10;stroke-width:0.75px"/><path d="M60.39,754.31l13.77,59-1.48.14Q65.84,783.63,59,753.79Z" style="fill:none;stroke:#000;stroke-miterlimit:10;stroke-width:0.75px"/><path d="M70.6,704.59,81.39,753l-1.63.07-10.68-48Z" style="fill:none;stroke:#000;stroke-miterlimit:10;stroke-width:0.75px"/><path d="M133,785.2l3.72-62.91,1.52,1.68-4.59,61.94Z" style="fill:none;stroke:#000;stroke-miterlimit:10;stroke-width:0.75px"/><path d="M94.39,1202.69l36.94,2.58.6,2.82-36.79-1.82Z" style="fill:none;stroke:#000;stroke-miterlimit:10;stroke-width:0.75px"/><path d="M154.65,1214.51l-35.76,7.87-.93-3.55,36.19-6.78C154.32,1212.87,154.49,1213.69,154.65,1214.51Z" style="fill:none;stroke:#000;stroke-miterlimit:10;stroke-width:0.75px"/><path d="M39.53,1165.2l27.17,6.7c.23,1.62.47,3.23.71,4.85l-27.87-11.87Z" style="fill:none;stroke:#000;stroke-miterlimit:10;stroke-width:0.75px"/><path d="M28.05,840.34l-28.4,13.5c-.19-.65-.39-1.3-.58-2l28.39-13.49Z" style="fill:none;stroke:#000;stroke-miterlimit:10;stroke-width:0.75px"/><path d="M914.33,863.81l-26.63-7.15C896.87,854.1,906.13,856.93,914.33,863.81Z" style="fill:none;stroke:#000;stroke-miterlimit:10;stroke-width:0.75px"/><path d="M906.77,1169.51l-14.57,5.55c-.1-.42-.2-.85-.31-1.28L906.4,1168Z" style="fill:none;stroke:#000;stroke-miterlimit:10;stroke-width:0.75px"/><path d="M811.94,687.45,785.3,680.3C794.48,677.75,803.74,680.57,811.94,687.45Z" style="fill:none;stroke:#000;stroke-miterlimit:10;stroke-width:0.75px"/><path d="M804.38,993.16l-14.57,5.55c-.1-.43-.21-.85-.31-1.28L804,991.65Z" style="fill:none;stroke:#000;stroke-miterlimit:10;stroke-width:0.75px"/><path d="M1160.8,524.89c1.15,3.56,2.25,7,3.46,10.67C1160.73,532.66,1159.45,528.62,1160.8,524.89Z"/><path d="M1146.36,525.53l-2.42,6.79-6.65-6.18.62-1.1,5.28,4.85,2.36-4.85Z"/><path d="M1068.74,1307.18c.27,4.58.49,8.22.86,14.61-11.58-10.54-22.32-9.61-33.51-.94,4.93-13.5,2.41-23.76-10.17-31.7,13.54-1,24.14-4.86,27.29-19.58,3,5.21,4.94,11.93,9.39,15.21,4.25,3.13,11.13,2.7,17.73,4l-7.43,8.34c16.36,2.58,31.46,5,46.78,1.88,6.25-1.27,8.12-6.13,4.64-11.06-3.67-5.19-8.09-10.73-13.51-13.66-22.64-12.19-45.76-23.48-68.73-35-2.59-1.31-5.38-2.24-7.86-3.88,31.1,7.47,62.2,15.09,88.72,34.23a50.31,50.31,0,0,1,13.2,14.12c7.48,12.22,2.83,23.17-11.28,25.38-10.58,1.66-21.57,1.24-32.36.93C1084.77,1309.8,1077.08,1308.23,1068.74,1307.18Z" style="stroke:#000;stroke-miterlimit:10;stroke-width:0.5px"/><path d="M317.89,965l9-11.53c1.72,15.56,10.39,22,24.52,22.86-12.62,6.87-17.52,16.23-13.33,30.51-10.84-8.17-21.32-12.31-33.41-3.35,1.17-5.91,4.17-12.22,3-17.62-1.12-5.16-6.57-9.39-10.66-14.73l11.09-1.34c-10.57-12.75-20.31-24.54-33.85-32.33-5.53-3.18-10.15-.78-10.79,5.22-.68,6.33-1,13.41,1.1,19.19,8.92,24.11,18.81,47.86,28.4,71.72,1.08,2.7,2.55,5.24,3.34,8.11-18.41-26.16-36.7-52.44-43.94-84.34a50.27,50.27,0,0,1-.58-19.32c2.47-14.11,13.2-19.25,25.25-11.58,9,5.75,17,13.33,24.9,20.69C307.6,952.47,312.33,958.74,317.89,965Z" style="stroke:#000;stroke-miterlimit:10;stroke-width:0.5px"/><path d="M86.5,2027.5c12.32,5.11,22.82,10,35,14.46,99.71,36.75,235.12,57.66,396.33,66.36,143,7.71,282,4.12,413.32-14.32,101-14.19,175.33-35.35,216.68-64.77.88-.62,2.25-1.2,6.36-1.75-.72,1.82-1.29,3.64-2.19,5.45a28.27,28.27,0,0,1-3.35,5.58c-27.3,33.52-101.16,57.51-207.31,73.93-165.12,25.54-338.58,27.07-515,10.28-116.85-11.12-213.11-30.35-283.32-58.79C114.21,2052.26,90.41,2037.06,86.5,2027.5Z" style="fill:none;stroke:#000;stroke-miterlimit:10"/><path d="M926.78,1906c72.53.92,131.32,7.13,170.53,23.83,8.11,3.45,10.77,7.45,1,10.56a109.89,109.89,0,0,1-29.21,4.22c-9.8-.06-23.36-2.19-28.47-4.53-45.4-20.84-186.27-19.44-223.45.88-9.17,5-30.14,6.27-46.66,3.7s-22.26-7.89-12.41-13c26.94-13.88,71.69-21,125.77-24.24C899,1906.58,914.67,1906.42,926.78,1906Z" style="fill:none;stroke:#000;stroke-miterlimit:10"/><path d="M318.87,1906.07c69.72,1,128.65,7.08,167.51,23.9,8.95,3.87,9.23,7.85-1,11.51-9.34,3.34-22.9,4.48-36.79,3a82.68,82.68,0,0,1-20.66-4.79c-48.77-19.77-172.94-19.51-219.9.56-13.05,5.57-31.11,7.21-48.87,4.41s-22.2-8.57-9.25-14.34C188.82,1912.94,249.16,1906.84,318.87,1906.07Z" style="fill:none;stroke:#000;stroke-miterlimit:10"/><path d="M1156.58,2062l25.23-32.26C1190.81,2040.85,1180.85,2052.07,1156.58,2062Z" style="fill:none;stroke:#000;stroke-miterlimit:10"/><path d="M77.89,2052.84,58.31,2035.2l4.51-.37,20.41,17.56Z" style="fill:none;stroke:#000;stroke-miterlimit:10"/><path d="M770.46,1021.79c-7.44,0-14.7,0-22,0a12,12,0,0,1-2.87-.31,7.28,7.28,0,0,1,1.78-14.37c5.86,0,11.71,0,17.65-.3-3.18-1.44-6.46-2.72-9.54-4.36-5.17-2.77-10.26-5.68-15.29-8.69a7.25,7.25,0,0,1-2.56-10.08c2.3-3.64,6.39-4.53,10.29-2.4,6.3,3.46,12.66,6.82,19,10.2a11.19,11.19,0,0,0,1.6.65c-3-5.63-6.84-11.36-9.35-17.61-2.29-5.72-3.44-11.94-4.62-18a7,7,0,0,1,6.46-8.26c4.5-.44,7.59,2.26,8.05,6.94a52.62,52.62,0,0,0,8.88,24,8.7,8.7,0,0,0,.86,1c.95-1.5,1.78-2.89,2.69-4.22,13.78-20.2,32.79-31.12,57.31-32.06a67.8,67.8,0,0,1,40.87,11.64A70.18,70.18,0,0,1,908.47,1034c-6.46,21.87-20.58,37.1-41.59,45.82-2.1.86-4.91,0-7.38,0-9.12-.28-18.23-.79-27.34-.78-5.32,0-10.63.87-15.94,1.29a4.27,4.27,0,0,1-1.91-.41q-32.32-13.92-42-47.77c-.48-1.7-.72-3.48-1-5.23S770.72,1023.33,770.46,1021.79Zm86.66-22.9a32,32,0,1,0-31.93,31.71C842.41,1030.72,857,1016.27,857.12,998.89Zm-9.31-29.25a7.17,7.17,0,0,0,7.38-7,7.23,7.23,0,1,0-14.45-.31A7.14,7.14,0,0,0,847.81,969.64ZM804,1031.73a7.3,7.3,0,0,0-7.28,7.18,7.19,7.19,0,0,0,7,7.42,7.3,7.3,0,1,0,.24-14.6ZM867.33,978a5.35,5.35,0,0,0-5.19-5.52,5.2,5.2,0,0,0-5.14,5.08,5.33,5.33,0,0,0,4.94,5.31C864.75,982.85,867.31,980.54,867.33,978Z" style="fill:none;stroke:#000;stroke-miterlimit:10;stroke-width:0.5px"/><path d="M1126.17,982.9a52,52,0,0,0,9.48-22.62c.15-1,.27-1.91.37-2.87.44-4.36,3.82-7.29,8-6.89a7.39,7.39,0,0,1,6.58,8.3c-1.06,12.16-5.67,23-12.65,32.85a11.23,11.23,0,0,0-1.72,3,26.3,26.3,0,0,0,2.8-1.11q9.12-4.87,18.21-9.84c3.14-1.71,6.09-1.55,8.7.6,2.3,1.91,3.44,5.08,2.13,7.8a10.59,10.59,0,0,1-4,4.51c-7.45,4.15-15.06,8-22.62,11.94a1.93,1.93,0,0,0-1,.9c1.12.06,2.23.18,3.34.18,4.68,0,9.36-.15,14-.13a7.45,7.45,0,0,1,7.21,5.83,7.35,7.35,0,0,1-4.73,8.37,9,9,0,0,1-3,.48c-7.86-.13-15.72-.32-23.58-.47-.29,0-.57.06-.37,0-1.85,6-3.17,12-5.46,17.6a66.71,66.71,0,0,1-25.54,31.21c-.37.24-.71.55-1.06.82a9.87,9.87,0,0,1-6.46,2.21c-10.31,0-20.67,0-30.92.92-7.32.66-14.49,2.86-21.75,4.31a5.92,5.92,0,0,1-2.93-.06,70.52,70.52,0,0,1-31.72-110.39c11.6-14.48,26.66-23.34,45-25.94,19.39-2.75,37.16,1.75,52.91,13.63a69.81,69.81,0,0,1,20.28,24.19A4.44,4.44,0,0,0,1126.17,982.9Zm-47.12,15.9a32,32,0,0,0-32-32.28c-17.48-.26-31.93,14.41-32,32.06a32,32,0,0,0,64,.22Zm-60.3,40.1a7,7,0,0,0,7,7.38,7.19,7.19,0,0,0,7.41-7.26,7.4,7.4,0,0,0-7.18-7.3A7.23,7.23,0,0,0,1018.75,1038.9ZM1070,969.65a7.25,7.25,0,0,0,7.2-7.2,7.25,7.25,0,0,0-14.5-.31C1062.78,966.64,1065.72,969.66,1070,969.65Zm19.27,8.09a5.16,5.16,0,0,0-4.94-5.23,5.15,5.15,0,1,0-.18,10.29A5.18,5.18,0,0,0,1089.29,977.74Z" style="fill:none;stroke:#000;stroke-miterlimit:10;stroke-width:0.5px"/><path d="M977.22,1098.8c3,3.24,5.3,6.77,6.08,11.19a16.29,16.29,0,0,1-5.37,15.68c-5.78,5.3-13.11,7.09-20.51,8.47-8.25,1.54-16.59,1-24.9.39a7.48,7.48,0,0,1-6.81-7.72c.28-4.1,3.49-6.89,7.83-6.88,6.53,0,13.07.28,19.59-.06a28.61,28.61,0,0,0,13.9-4.29c2.2-1.39,2.39-3.12.82-5.23-2.31-3.12-5.83-3.4-9.18-3.73-3.83-.37-7.71-.24-11.56-.45a7.25,7.25,0,0,1-.77-14.4c3.46-.43,7-.28,10.42-.86a72.46,72.46,0,0,0,9.37-2.61,11,11,0,0,0,2.33-1.47c-1.58-2.15-3.8-2.56-5.93-3-8.85-1.89-17.73-1.36-26.61-.2-3.12.41-6,.45-8.32-2.32-3.62-4.34-1.71-10.94,3.91-11.73a145.41,145.41,0,0,1,20.83-1.49,70.74,70.74,0,0,1,15.84,2.09c7.69,1.83,13.19,6.39,14.63,14.65.85,4.85-1,8.88-4.15,12.43C978.22,1097.75,977.75,1098.22,977.22,1098.8Z" style="fill:none;stroke:#000;stroke-miterlimit:10;stroke-width:0.5px"/><path d="M950.64,609c-29.87-48.72-81.13-79.93-124.77-119.13-33.37-30-65.2-61.12-81.23-104.62-22.74-61.69-1.79-125.42,50.64-153.48,48.9-26.16,109.42-13.47,145.58,30.53,4.39,5.35,8.71,10.75,11.94,14.73,14.17-13,26.38-26.38,40.69-36.92,36.79-27.11,77.38-29.31,117.36-9.54,40.38,20,61,54.57,62.1,100.14,1.14,47.58-18.09,87.08-50.14,120.42-20.59,21.43-43.45,40.68-65.43,60.75C1022.26,544,987,575.91,950.64,609Zm4-306.95c-13.8-15.59-27.39-35.76-45.5-50.31C877.69,226.43,841,224,805,242c-35.85,17.85-55,47.34-56,88.53-1.19,48.35,19.47,87,53.22,118.53,50.39,47.07,102.6,92.18,152.76,137,24.85-22.64,51.28-47.09,78.13-71.07,21.26-19,43.71-36.68,64.43-56.23,35.8-33.77,62.92-72.17,62.62-124.59-.24-42.48-18.86-74.13-56.32-92.42-36.62-17.87-74-15.26-105.76,11.33C980.74,267.58,967.63,287.15,954.68,302.06Z"/><path d="M906.56,2111c-37.33-37.85-77.59-78.73-117.94-119.53-19.53-19.74-39-39.53-58.89-58.94-55.51-54.23-60.69-134.34-12-188.63,48.07-53.58,126.9-57.29,187.08-8.83,1.94,1.56,4,2.93,1.93,1.41,26.87-11.89,49.83-26,74.77-32.25,52.49-13.09,108.5,12.82,137,59,28.43,46,27.25,111.9-10.14,150.68C1043.87,1980.93,975.43,2044.21,906.56,2111Zm1.76-14.63c6.9-6.06,10.89-9.2,14.45-12.76q52.26-52.14,104.41-104.38c20.63-20.59,41.69-40.74,62-61.6,38.67-39.64,46.68-96.55,20.69-143.2-25.71-46.13-79-71.42-130.43-56.57-25,7.23-47.26,24-73.61,38a25.93,25.93,0,0,0-4.32-5.56c-49.43-48.58-122.59-48.93-170.57-.9-46.82,46.86-44.72,121.75,4.59,170.48,16.11,15.92,31.86,32.21,47.7,48.41C824.79,2010.8,866.28,2053.33,908.32,2096.39Z"/><path d="M1227.25,1744.91c1,53.25-18.93,88.55-44.36,121.22-38.62,49.63-86.24,89.09-139.52,122.28-20.9,13-38.82,13.88-60.47.16-62-39.3-117.18-85.32-157.54-147.42-26.93-41.46-35.13-86.43-20-133.68,25-77.79,108.56-109.71,180.77-68.31,18.84,10.8,31.51,12.29,51.29,1C1129,1587.84,1226.82,1647.72,1227.25,1744.91Zm-12.42,3.89c-1.12-39.84-16-78.81-58.11-101.16-42-22.25-84.63-19.85-122.33,9.33-17.42,13.48-27.52,10.87-44-.91-59.53-42.63-141.93-21.58-168.55,43-18.65,45.27-14.25,90,12.36,131.8,40.9,64.24,97.32,111.73,162,150.42,11.31,6.76,20.94,6.82,32.4.17C1092.88,1944.2,1148,1897,1189,1834.64,1204.81,1810.56,1215.37,1784.2,1214.83,1748.8Z" style="fill:none;stroke:#000;stroke-miterlimit:10"/><path d="M288.61,1433.44c-37.33-37.85-77.59-78.73-117.94-119.52-19.53-19.75-39-39.54-58.89-59-55.51-54.23-60.69-134.34-12-188.63,48.07-53.58,126.9-57.29,187.08-8.83,1.94,1.56,4.05,2.93,1.93,1.41,26.87-11.89,49.83-26,74.77-32.25,52.49-13.09,108.5,12.82,137.05,59,28.43,46,27.25,111.9-10.14,150.68C425.92,1303.35,357.48,1366.63,288.61,1433.44Zm1.77-14.63c6.89-6.06,10.88-9.2,14.45-12.76q52.25-52.14,104.4-104.38c20.63-20.59,41.69-40.74,62-61.59,38.66-39.65,46.68-96.56,20.68-143.21-25.71-46.13-79-71.42-130.43-56.57-25,7.23-47.26,24-73.61,38a25.53,25.53,0,0,0-4.32-5.57c-49.43-48.58-122.59-48.93-170.57-.9-46.82,46.86-44.72,121.75,4.59,170.48,16.12,15.92,31.86,32.21,47.7,48.41C206.85,1333.22,248.33,1375.75,290.38,1418.81Z"/><ellipse cx="614.83" cy="613.68" rx="753.42" ry="459.13" transform="translate(-252.11 558.7) rotate(-41.32)" style="fill:none;stroke:#000;stroke-miterlimit:10;stroke-width:0.5px"/><ellipse cx="620.97" cy="1108.75" rx="347.64" ry="1175.65" transform="translate(-412.81 369.69) rotate(-25.19)" style="fill:none;stroke:#000;stroke-miterlimit:10;stroke-width:0.5px"/><ellipse cx="622.06" cy="1564.96" rx="435.41" ry="593.76" transform="translate(-953.89 2158.63) rotate(-88.96)" style="fill:none;stroke:#000;stroke-miterlimit:10;stroke-width:0.5px"/><circle cx="367.63" cy="400.77" r="429.11" style="fill:none;stroke:#000;stroke-miterlimit:10;stroke-width:0.5px"/><ellipse cx="431.14" cy="1856.71" rx="414.42" ry="344.26" style="fill:none;stroke:#000;stroke-miterlimit:10;stroke-width:0.5px"/><ellipse cx="747.28" cy="595.95" rx="218.63" ry="669.76" transform="translate(-207.44 641.75) rotate(-41.32)" style="fill:none;stroke:#000;stroke-miterlimit:10;stroke-width:0.5px"/><ellipse cx="820.29" cy="1022.23" rx="388.79" ry="363.03" style="fill:none;stroke:#000;stroke-miterlimit:10;stroke-width:0.5px"/><ellipse cx="179.99" cy="1108" rx="109.51" ry="1072.5" style="fill:none;stroke:#000;stroke-miterlimit:10;stroke-width:0.5px"/><path d="M262.44,1410.34c3.39,5.12,6.28,10,9.64,14.47,27.46,36.75,64.74,57.65,109.12,66.35,39.37,7.72,77.65,4.12,113.79-14.32,27.79-14.19,48.27-35.35,59.66-64.77a3,3,0,0,1,1.75-1.75c-.2,1.82-.36,3.64-.61,5.45s-.51,3.75-.92,5.58c-7.52,33.52-27.85,57.51-57.07,73.93-45.46,25.54-93.22,27.07-141.8,10.28-32.17-11.12-58.67-30.35-78-58.79C270.07,1435.1,263.52,1419.9,262.44,1410.34Z" style="fill:none;stroke:#000;stroke-miterlimit:10;stroke-width:0.75px"/><path d="M493.78,1288.87c20,.92,36.15,7.14,47,23.83,2.23,3.45,3,7.45.27,10.56-1.91,2.19-5.34,4.28-8,4.22a10.92,10.92,0,0,1-7.84-4.53c-12.5-20.83-51.28-19.44-61.51.88a9.06,9.06,0,0,1-12.85,3.7c-4.52-2.55-6.13-7.89-3.42-13,7.42-13.88,19.74-21,34.63-24.24A116.05,116.05,0,0,1,493.78,1288.87Z" style="fill:none;stroke:#000;stroke-miterlimit:10;stroke-width:0.75px"/><path d="M326.41,1288.91c19.2.95,35.42,7.09,46.12,23.9,2.47,3.87,2.54,7.85-.28,11.51a8.37,8.37,0,0,1-10.13,3,13.38,13.38,0,0,1-5.68-4.8c-13.43-19.77-47.62-19.51-60.54.56-3.6,5.58-8.57,7.21-13.46,4.41s-6.11-8.57-2.54-14.34C290.61,1295.78,307.22,1289.69,326.41,1288.91Z" style="fill:none;stroke:#000;stroke-miterlimit:10;stroke-width:0.75px"/><path d="M557,1444.84c2.33-10.81,4.76-22.08,7-32.26C566.47,1423.69,563.73,1434.92,557,1444.84Z" style="fill:none;stroke:#000;stroke-miterlimit:10;stroke-width:0.75px"/><path d="M260.07,1435.68q-2.7-8.81-5.39-17.63l1.24-.38q2.82,8.77,5.62,17.57Z" style="fill:none;stroke:#000;stroke-miterlimit:10;stroke-width:0.75px"/><path d="M347.44,1471.34c3.39,5.12,6.28,10,9.64,14.47,27.46,36.75,64.74,57.65,109.12,66.35,39.37,7.72,77.65,4.12,113.79-14.32,27.79-14.19,48.27-35.35,59.66-64.77a3,3,0,0,1,1.75-1.75c-.2,1.82-.36,3.64-.61,5.45s-.51,3.75-.92,5.58c-7.52,33.52-27.85,57.51-57.07,73.93-45.46,25.54-93.22,27.07-141.8,10.28-32.17-11.12-58.67-30.35-78-58.79C355.07,1496.1,348.52,1480.9,347.44,1471.34Z" style="fill:none;stroke:#000;stroke-miterlimit:10;stroke-width:0.75px"/><path d="M578.78,1349.87c20,.92,36.15,7.14,47,23.83,2.23,3.45,3,7.45.27,10.56-1.91,2.19-5.34,4.28-8,4.22a10.92,10.92,0,0,1-7.84-4.53c-12.5-20.83-51.28-19.44-61.51.88a9.06,9.06,0,0,1-12.85,3.7c-4.52-2.55-6.13-7.89-3.42-13,7.42-13.88,19.74-21,34.63-24.24A116.05,116.05,0,0,1,578.78,1349.87Z" style="fill:none;stroke:#000;stroke-miterlimit:10;stroke-width:0.75px"/><path d="M411.41,1349.91c19.2.95,35.42,7.09,46.12,23.9,2.47,3.87,2.54,7.85-.28,11.51a8.37,8.37,0,0,1-10.13,3,13.38,13.38,0,0,1-5.68-4.8c-13.43-19.77-47.62-19.51-60.54.56-3.6,5.58-8.57,7.21-13.46,4.41s-6.11-8.57-2.54-14.34C375.61,1356.78,392.22,1350.69,411.41,1349.91Z" style="fill:none;stroke:#000;stroke-miterlimit:10;stroke-width:0.75px"/><path d="M642,1505.84c2.33-10.81,4.76-22.08,7-32.26C651.47,1484.69,648.73,1495.92,642,1505.84Z" style="fill:none;stroke:#000;stroke-miterlimit:10;stroke-width:0.75px"/><path d="M345.07,1496.68q-2.7-8.81-5.39-17.63l1.24-.38q2.82,8.77,5.62,17.57Z" style="fill:none;stroke:#000;stroke-miterlimit:10;stroke-width:0.75px"/><path d="M432.44,1536.34c3.39,5.12,6.28,10,9.64,14.47,27.46,36.75,64.74,57.65,109.12,66.35,39.37,7.72,77.65,4.12,113.79-14.32,27.79-14.19,48.27-35.35,59.66-64.77a3,3,0,0,1,1.75-1.75c-.2,1.82-.36,3.64-.61,5.45s-.51,3.75-.92,5.58c-7.52,33.52-27.85,57.51-57.07,73.93-45.46,25.54-93.22,27.07-141.8,10.28-32.17-11.12-58.67-30.35-78-58.79C440.07,1561.1,433.52,1545.9,432.44,1536.34Z" style="fill:none;stroke:#000;stroke-miterlimit:10;stroke-width:0.75px"/><path d="M663.78,1414.87c20,.92,36.15,7.14,47,23.83,2.23,3.45,3,7.45.27,10.56-1.91,2.19-5.34,4.28-8,4.22a10.92,10.92,0,0,1-7.84-4.53c-12.5-20.83-51.28-19.44-61.51.88a9.06,9.06,0,0,1-12.85,3.7c-4.52-2.55-6.13-7.89-3.42-13,7.42-13.88,19.74-21,34.63-24.24A116.05,116.05,0,0,1,663.78,1414.87Z" style="fill:none;stroke:#000;stroke-miterlimit:10;stroke-width:0.75px"/><path d="M496.41,1414.91c19.2.95,35.42,7.09,46.12,23.9,2.47,3.87,2.54,7.85-.28,11.51a8.37,8.37,0,0,1-10.13,3,13.38,13.38,0,0,1-5.68-4.8c-13.43-19.77-47.62-19.51-60.54.56-3.6,5.58-8.57,7.21-13.46,4.41s-6.11-8.57-2.54-14.34C460.61,1421.78,477.22,1415.69,496.41,1414.91Z" style="fill:none;stroke:#000;stroke-miterlimit:10;stroke-width:0.75px"/><path d="M727,1570.84c2.33-10.81,4.76-22.08,7-32.26C736.47,1549.69,733.73,1560.92,727,1570.84Z" style="fill:none;stroke:#000;stroke-miterlimit:10;stroke-width:0.75px"/><path d="M430.07,1561.68q-2.7-8.81-5.39-17.63l1.24-.38q2.82,8.77,5.62,17.57Z" style="fill:none;stroke:#000;stroke-miterlimit:10;stroke-width:0.75px"/><path d="M244.36,1662c15.56-6,17-21.18,19.21-36.41,2.63,17.39,4.57,35.3,28.26,38.2-23.15,3.45-26.09,20.56-27.71,39.07-2.06-8.13-2.86-16-6.09-22.65S249.21,1668.24,244.36,1662Z"/><path d="M266,1699.81c15.93-2.24,20.73-13,22.7-27.18,2,13.94,6.68,25,22.66,27.21-16.31,2.65-20.69,14-22.69,28.28C287,1713.76,282.07,1702.52,266,1699.81Z"/><path d="M51.36,624c15.56-6,17-21.18,19.21-36.41,2.63,17.39,4.57,35.3,28.26,38.2-23.15,3.45-26.09,20.56-27.71,39.07-2.06-8.13-2.86-16-6.09-22.65S56.21,630.24,51.36,624Z"/><path d="M73,661.81c15.93-2.24,20.73-13,22.7-27.18,2,13.94,6.68,25,22.66,27.21-16.31,2.65-20.69,14-22.69,28.28C94,675.76,89.07,664.52,73,661.81Z"/><path d="M350.44,673.34c3.39,5.12,6.28,10,9.64,14.47,27.46,36.75,64.74,57.65,109.12,66.35,39.37,7.72,77.65,4.12,113.79-14.32,27.79-14.19,48.27-35.35,59.66-64.77a3,3,0,0,1,1.75-1.75c-.2,1.82-.36,3.64-.61,5.45s-.51,3.75-.92,5.58c-7.52,33.52-27.85,57.51-57.07,73.93-45.46,25.54-93.22,27.07-141.8,10.28-32.17-11.12-58.67-30.35-78-58.79C358.07,698.1,351.52,682.9,350.44,673.34Z" style="fill:none;stroke:#000;stroke-miterlimit:10;stroke-width:0.75px"/><path d="M581.78,551.87c20,.92,36.15,7.14,47,23.83,2.23,3.45,3,7.45.27,10.56-1.91,2.19-5.34,4.28-8,4.22a10.92,10.92,0,0,1-7.84-4.53c-12.5-20.83-51.28-19.44-61.51.88a9.06,9.06,0,0,1-12.85,3.7c-4.52-2.55-6.13-7.89-3.42-13,7.42-13.88,19.74-21,34.63-24.24A116.05,116.05,0,0,1,581.78,551.87Z" style="fill:none;stroke:#000;stroke-miterlimit:10;stroke-width:0.75px"/><path d="M414.41,551.91c19.2,1,35.42,7.09,46.12,23.9,2.47,3.87,2.54,7.85-.28,11.51a8.37,8.37,0,0,1-10.13,3,13.38,13.38,0,0,1-5.68-4.8c-13.43-19.77-47.62-19.51-60.54.56-3.6,5.58-8.57,7.21-13.46,4.41s-6.11-8.57-2.54-14.34C378.61,558.78,395.22,552.69,414.41,551.91Z" style="fill:none;stroke:#000;stroke-miterlimit:10;stroke-width:0.75px"/><path d="M645,707.84c2.33-10.81,4.76-22.08,7-32.26C654.47,686.69,651.73,697.92,645,707.84Z" style="fill:none;stroke:#000;stroke-miterlimit:10;stroke-width:0.75px"/><path d="M348.07,698.68q-2.7-8.8-5.39-17.63l1.24-.38q2.82,8.77,5.62,17.57Z" style="fill:none;stroke:#000;stroke-miterlimit:10;stroke-width:0.75px"/><path d="M542,134.66c-5.14,0-10.16,0-15.18,0a8.23,8.23,0,0,1-2-.21,4.91,4.91,0,0,1-3.83-5.51,5,5,0,0,1,5.06-4.42c4,0,8.09,0,12.2-.21-2.21-1-4.47-1.88-6.6-3-3.57-1.91-7.09-3.93-10.56-6a5,5,0,0,1-1.78-7,5.06,5.06,0,0,1,7.11-1.66c4.36,2.38,8.75,4.71,13.14,7a7.27,7.27,0,0,0,1.1.44c-2.11-3.89-4.72-7.85-6.46-12.17A69.12,69.12,0,0,1,531,89.53a4.84,4.84,0,0,1,4.47-5.72c3.11-.3,5.24,1.57,5.56,4.8a36.45,36.45,0,0,0,6.13,16.57,7.16,7.16,0,0,0,.6.66c.66-1,1.23-2,1.86-2.92,9.52-14,22.66-21.51,39.61-22.16a46.8,46.8,0,0,1,28.24,8,48.5,48.5,0,0,1,19.88,54.26c-4.46,15.12-14.23,25.65-28.74,31.67-1.45.6-3.39,0-5.11,0-6.3-.19-12.59-.55-18.89-.54-3.67,0-7.34.6-11,.89a2.93,2.93,0,0,1-1.32-.28q-22.34-9.63-29-33a36,36,0,0,1-.72-3.61C542.36,136.94,542.18,135.73,542,134.66Zm59.89-15.82a22.15,22.15,0,1,0-22.07,21.91A22.28,22.28,0,0,0,601.89,118.84Zm-6.43-20.22a5,5,0,0,0,5.1-4.85,5,5,0,1,0-10-.22A4.94,4.94,0,0,0,595.46,98.62Zm-30.28,42.91a5,5,0,0,0-5,5,5,5,0,0,0,4.86,5.13,5,5,0,1,0,.17-10.09ZM609,104.4a3.7,3.7,0,0,0-3.59-3.82,3.59,3.59,0,0,0-3.55,3.51,3.68,3.68,0,0,0,3.41,3.67A3.73,3.73,0,0,0,609,104.4Z" style="fill:none;stroke:#000;stroke-miterlimit:10;stroke-width:0.5px"/><path d="M787.84,107.78a35.89,35.89,0,0,0,6.56-15.63c.1-.66.18-1.32.25-2a5,5,0,0,1,5.52-4.76,5.11,5.11,0,0,1,4.54,5.74,45.71,45.71,0,0,1-8.74,22.7,7.71,7.71,0,0,0-1.19,2.08,19.39,19.39,0,0,0,1.93-.77q6.31-3.37,12.59-6.8a5,5,0,0,1,6,.42,4.54,4.54,0,0,1,1.48,5.39,7.35,7.35,0,0,1-2.78,3.11c-5.15,2.87-10.41,5.52-15.63,8.25a1.29,1.29,0,0,0-.66.63c.76,0,1.53.12,2.3.12,3.23,0,6.47-.1,9.7-.09a5.16,5.16,0,0,1,5,4,5.08,5.08,0,0,1-3.27,5.78,6,6,0,0,1-2.11.33c-5.43-.08-10.87-.21-16.3-.32-.2,0-.39.05-.26,0-1.27,4.18-2.18,8.31-3.77,12.16a46.1,46.1,0,0,1-17.65,21.58,7.85,7.85,0,0,0-.73.56,6.85,6.85,0,0,1-4.47,1.53c-7.12,0-14.28,0-21.37.63-5,.46-10,2-15,3a4.06,4.06,0,0,1-2,0,48.63,48.63,0,0,1-32.44-48.7,48.76,48.76,0,0,1,78.18-36.1,48.16,48.16,0,0,1,14,16.72A3,3,0,0,0,787.84,107.78Zm-32.56,11a22.15,22.15,0,0,0-22.14-22.32c-12.08-.18-22.07,10-22.11,22.16a22.13,22.13,0,0,0,44.25.16ZM713.6,146.49a4.88,4.88,0,0,0,4.85,5.1,5,5,0,0,0,5.12-5,5.11,5.11,0,0,0-5-5A5,5,0,0,0,713.6,146.49ZM749,98.62a5,5,0,0,0,5-5,5.13,5.13,0,0,0-4.92-5.09,5.08,5.08,0,0,0-5.1,4.88A4.87,4.87,0,0,0,749,98.62Zm13.33,5.59a3.56,3.56,0,0,0-3.42-3.6,3.55,3.55,0,1,0-.12,7.1A3.58,3.58,0,0,0,762.36,104.21Z" style="fill:none;stroke:#000;stroke-miterlimit:10;stroke-width:0.5px"/><path d="M684.9,187.88a15.52,15.52,0,0,1,4.2,7.74,11.28,11.28,0,0,1-3.72,10.84c-4,3.66-9,4.9-14.17,5.85-5.7,1.06-11.46.68-17.2.27a5.19,5.19,0,0,1-4.72-5.33,5.09,5.09,0,0,1,5.42-4.76c4.51,0,9,.19,13.54,0a19.76,19.76,0,0,0,9.61-3c1.52-.95,1.64-2.15.56-3.61-1.6-2.16-4-2.35-6.35-2.58-2.64-.26-5.32-.16-8-.31a5,5,0,0,1-.53-9.95c2.38-.3,4.83-.2,7.19-.6a50,50,0,0,0,6.49-1.8,7.32,7.32,0,0,0,1.6-1c-1.09-1.48-2.62-1.76-4.1-2.08-6.11-1.3-12.25-.94-18.39-.13-2.16.28-4.15.31-5.75-1.61-2.5-3-1.18-7.56,2.7-8.1a99.23,99.23,0,0,1,14.4-1,48.87,48.87,0,0,1,10.95,1.44c5.31,1.27,9.11,4.41,10.11,10.12.59,3.35-.69,6.14-2.87,8.59C685.58,187.16,685.27,187.49,684.9,187.88Z" style="fill:none;stroke:#000;stroke-miterlimit:10;stroke-width:0.5px"/></svg>