<svg xmlns="http://www.w3.org/2000/svg" viewBox="0 0 2048 2732"><title>SVG-TABLET-RESPONSIVE</title><path d="M1838.5,1904.33c-24.07,10.59-58.7.22-63.33-19.62-1.59-6.86,2.92-14.56,4.33-21.91.58-3,1.58-6.48.25-9.06-5.46-10.66-5.2-21.22-1.85-32.16,1.34-4.38,1.14-9.09,1.23-13.65.1-4.89-.84-9.82-.32-14.67.58-5.42,5-7.9,11.89-6.49,3.25.66,7,1.35,9.32,3,7.35,5.18,15,6,23.83,2.75a27.92,27.92,0,0,1,9.15-1.29c14.35,0,27.61-.54,39.37-9.44,8.38-6.34,17-2.85,18.22,6.55,1.32,10.51,4.39,20,11.35,29.33,6.29,8.41,5.89,18.37,3.7,28.09-.59,2.59.23,5.53,1.13,8.16,2.14,6.2,5.71,12.18,6.9,18.47,2.79,14.61-7.14,27.46-24.44,33.19C1870.33,1911.86,1850.79,1911.44,1838.5,1904.33Zm-25.37-103.95c-4-2.42-7-5-10.72-6.39-5.43-2-11.38-3.13-17.12-4.64-1.13,4.59-4,9.39-3,13.7,1.82,8.65-.32,16.61-2.43,24.91-5.4,21.26,8.34,38.79,34.67,44.93,19.21,4.48,38.28,3.2,56.78-2.33,28.29-8.46,40.54-29.41,27.93-51-6-10.2-11-19.93-12-31.18-.66-7.1-5.82-8.61-13.66-4.47-6.3,3.32-11.78,7.6-17.73,11.53C1845.4,1790.83,1819,1793.61,1813.13,1800.38Zm91.46,53.6-2.7.3c-18,25.82-86.33,34.18-118.53,5.88-2.23,7.08-4.87,13.12-5.91,19.33-1.43,8.6,2.13,16.23,12.29,20.45,11.74,4.87,24.6,7.17,37.81,5.13,3.65-.57,8.85-3.82,9.2-6.22s-3.45-6.56-6.79-8c-5.32-2.33-11.92-2.76-17.66-4.59-4.64-1.48-8.82-3.85-13.2-5.82l1.1-1.39,40.58,13,41.18-12.21c-1.83,4.73-7.9,6.1-13.48,7.61-6.68,1.81-14,2.52-20.21,5-3.32,1.3-7.51,5.84-6.75,7.85,1.06,2.77,6.47,6.43,9.92,6.38,11.75-.19,23.9-.66,35.09-3.21,15.85-3.61,25.13-14.68,24.11-27.62C1910.06,1868.45,1906.7,1861.25,1904.59,1854Z"/><path d="M1833.8,1843.1l14.1-.87-5.84,7.28c6.46,6,9.59,6.36,17,1.83-1,5.6-5.12,7.57-12,4.8-4.67-1.87-8-1.86-12.27.51-4.87,2.69-9.49,2.15-13-4.34,6.88,4,12.4,3.63,15.89-.72,1-1.23-1.78-4.33-2.83-6.57Z"/><path d="M1788.81,1809.42l11.44-5.1-13.3-11,1.82-1.46,14.93,11.46-12.27,8.21Z"/><path d="M1881.39,1833.69l-22.83,7.25C1864.76,1833.55,1873.41,1830.85,1881.39,1833.69Z"/><path d="M1821.88,1843.09l-24.4-3.55C1803.48,1835.38,1811.64,1836.38,1821.88,1843.09Z"/><path d="M1880,1803.39l-14.53-5.09,13.21-14,2.37,1.3-10.39,11.09,10.37,5Z"/><path d="M1740.72,885.56c-27.12,11.93-66.16.25-71.37-22.11-1.8-7.73,3.29-16.41,4.88-24.69.65-3.38,1.77-7.31.28-10.22-6.16-12-5.86-23.91-2.09-36.24,1.51-4.93,1.29-10.24,1.39-15.38.11-5.51-1-11.07-.37-16.53.66-6.11,5.59-8.9,13.41-7.32,3.66.74,7.83,1.52,10.5,3.4,8.29,5.84,16.88,6.71,26.86,3.11a31.31,31.31,0,0,1,10.31-1.46c16.17,0,31.11-.6,44.37-10.64,9.44-7.14,19.19-3.21,20.53,7.39,1.49,11.84,4.94,22.57,12.79,33,7.09,9.47,6.64,20.7,4.17,31.65-.66,2.93.26,6.24,1.28,9.2,2.4,7,6.43,13.73,7.77,20.81,3.14,16.47-8,30.95-27.54,37.41C1776.59,894.05,1754.56,893.57,1740.72,885.56Zm-28.6-117.14c-4.45-2.73-7.85-5.65-12.07-7.21-6.12-2.26-12.84-3.53-19.3-5.22-1.27,5.16-4.45,10.57-3.42,15.43,2.05,9.74-.37,18.71-2.74,28.07-6.09,24,9.4,43.72,39.07,50.64,21.65,5,43.14,3.6,64-2.63,31.89-9.54,45.7-33.15,31.48-57.48-6.71-11.49-12.36-22.45-13.55-35.13-.75-8-6.56-9.71-15.4-5-7.1,3.75-13.28,8.57-20,13C1748.5,757.64,1718.75,760.78,1712.12,768.42Zm103.08,60.4-3,.33c-20.31,29.1-97.28,38.52-133.57,6.63-2.52,8-5.49,14.79-6.66,21.78-1.62,9.7,2.4,18.29,13.84,23,13.23,5.5,27.73,8.09,42.62,5.79,4.11-.64,10-4.3,10.37-7s-3.89-7.4-7.66-9c-6-2.63-13.43-3.11-19.9-5.17-5.23-1.67-9.94-4.33-14.88-6.55l1.25-1.58,45.73,14.66,46.41-13.76c-2.07,5.32-8.91,6.87-15.19,8.57-7.54,2-15.75,2.84-22.78,5.59-3.74,1.46-8.47,6.59-7.61,8.85,1.19,3.12,7.29,7.24,11.18,7.18,13.25-.2,26.93-.74,39.54-3.61,17.86-4.06,28.32-16.54,27.17-31.12C1821.36,845.12,1817.57,837,1815.2,828.82Z"/><path d="M1735.42,816.56l15.89-1-6.58,8.2c7.28,6.8,10.8,7.16,19.19,2.07-1.11,6.3-5.77,8.52-13.55,5.4-5.26-2.11-9-2.1-13.83.58-5.48,3-10.69,2.41-14.7-4.9,7.76,4.47,14,4.09,17.91-.81,1.11-1.39-2-4.88-3.19-7.4Z"/><path d="M1684.72,778.6l12.89-5.75-15-12.4,2.05-1.65,16.82,12.91L1687.67,781C1686.68,780.18,1685.7,779.39,1684.72,778.6Z"/><path d="M1789.05,805.94l-25.73,8.18C1770.31,805.8,1780.06,802.75,1789.05,805.94Z"/><path d="M1722,816.55l-27.51-4C1701.25,807.85,1710.44,809,1722,816.55Z"/><path d="M1787.52,771.8l-16.37-5.73L1786,750.35l2.67,1.46L1777,764.3l11.69,5.59Z"/><path d="M1380.34,1759.76c-11.85,5.21-28.89.1-31.17-9.66-.79-3.38,1.44-7.16,2.13-10.78.28-1.48.78-3.19.12-4.47-2.69-5.24-2.56-10.44-.91-15.82a24.73,24.73,0,0,0,.61-6.72c.05-2.41-.42-4.83-.16-7.22.28-2.67,2.44-3.89,5.85-3.19a12.85,12.85,0,0,1,4.59,1.48c3.62,2.55,7.37,2.93,11.73,1.36a13.62,13.62,0,0,1,4.5-.64c7.06,0,13.59-.26,19.38-4.64,4.12-3.12,8.38-1.41,9,3.22a29.09,29.09,0,0,0,5.59,14.44c3.1,4.13,2.9,9,1.82,13.82a7.71,7.71,0,0,0,.56,4c1,3,2.81,6,3.4,9.09,1.37,7.2-3.52,13.52-12,16.34C1396,1763.46,1386.38,1763.26,1380.34,1759.76Zm-12.49-51.16c-1.94-1.19-3.43-2.47-5.27-3.15-2.68-1-5.61-1.54-8.43-2.28-.56,2.25-1.94,4.62-1.5,6.74.9,4.25-.15,8.17-1.19,12.26-2.66,10.46,4.1,19.09,17.06,22.11a53.58,53.58,0,0,0,27.94-1.15c13.93-4.16,20-14.47,13.75-25.1-2.93-5-5.4-9.8-5.92-15.34-.32-3.5-2.86-4.24-6.72-2.2-3.1,1.63-5.8,3.74-8.73,5.67C1383.74,1703.89,1370.75,1705.26,1367.85,1708.6Zm45,26.38-1.33.14c-8.87,12.71-42.49,16.83-58.34,2.9-1.1,3.48-2.4,6.46-2.91,9.51-.7,4.23,1,8,6,10.06a34.47,34.47,0,0,0,18.61,2.53c1.79-.28,4.35-1.88,4.53-3.06s-1.7-3.23-3.35-4c-2.61-1.15-5.86-1.36-8.69-2.26a62.77,62.77,0,0,1-6.5-2.86l.55-.69,20,6.4,20.27-6c-.9,2.33-3.89,3-6.64,3.75-3.28.89-6.87,1.24-9.94,2.44-1.64.64-3.7,2.88-3.32,3.86.51,1.37,3.18,3.17,4.88,3.14a84.48,84.48,0,0,0,17.27-1.58c7.8-1.77,12.36-7.22,11.86-13.59C1415.56,1742.1,1413.9,1738.55,1412.87,1735Z"/><path d="M1378,1729.62l6.93-.43-2.87,3.58c3.18,3,4.72,3.13,8.38.91-.48,2.75-2.52,3.72-5.92,2.36a6.21,6.21,0,0,0-6,.25c-2.39,1.32-4.67,1.06-6.41-2.14,3.38,1.95,6.1,1.79,7.82-.35.48-.61-.88-2.13-1.4-3.23Z"/><path d="M1355.88,1713l5.63-2.51-6.54-5.41.89-.72,7.35,5.64c-2.41,1.6-4.22,2.82-6,4Z"/><path d="M1401.45,1725l-11.24,3.57C1393.26,1724.92,1397.52,1723.59,1401.45,1725Z"/><path d="M1372.16,1729.62l-12-1.75C1363.1,1725.82,1367.12,1726.31,1372.16,1729.62Z"/><path d="M1400.78,1710.07l-7.15-2.5c2.32-2.46,4.41-4.66,6.5-6.86l1.17.63-5.12,5.46,5.11,2.44Z"/><path d="M1097.82,609.91c-12.35,5.44-30.13.12-32.51-10.07-.82-3.52,1.5-7.47,2.23-11.24.29-1.54.8-3.33.12-4.65-2.8-5.47-2.67-10.89-1-16.51a25.67,25.67,0,0,0,.64-7c0-2.51-.44-5-.17-7.52.3-2.79,2.54-4.06,6.1-3.34a13.64,13.64,0,0,1,4.79,1.55c3.77,2.66,7.69,3.06,12.23,1.41a14.53,14.53,0,0,1,4.7-.66c7.36,0,14.17-.27,20.2-4.84,4.3-3.26,8.75-1.47,9.35,3.36a30.32,30.32,0,0,0,5.83,15.06c3.23,4.31,3,9.42,1.9,14.41a8.09,8.09,0,0,0,.58,4.19c1.1,3.18,2.93,6.25,3.54,9.48,1.43,7.5-3.66,14.1-12.54,17C1114.16,613.78,1104.12,613.57,1097.82,609.91Zm-13-53.35c-2-1.24-3.57-2.57-5.49-3.28-2.79-1-5.85-1.61-8.79-2.38-.58,2.35-2,4.82-1.56,7,.93,4.44-.17,8.52-1.25,12.79-2.77,10.91,4.28,19.91,17.8,23.06a56,56,0,0,0,29.14-1.2c14.52-4.34,20.81-15.1,14.33-26.18-3-5.23-5.63-10.22-6.17-16-.34-3.65-3-4.42-7-2.3-3.23,1.71-6,3.91-9.1,5.92C1101.36,551.66,1087.81,553.08,1084.79,556.56Zm47,27.51-1.39.15c-9.24,13.26-44.3,17.55-60.83,3-1.15,3.64-2.5,6.74-3,9.93-.74,4.41,1.09,8.32,6.3,10.49a36,36,0,0,0,19.41,2.63c1.87-.29,4.54-2,4.72-3.19s-1.77-3.36-3.49-4.12c-2.72-1.19-6.11-1.41-9.06-2.35a63.09,63.09,0,0,1-6.78-3l.57-.71L1099,603.6l21.14-6.26c-.94,2.42-4.06,3.12-6.92,3.9-3.43.93-7.17,1.29-10.37,2.55-1.71.66-3.86,3-3.47,4,.54,1.42,3.32,3.3,5.09,3.27,6-.1,12.27-.34,18-1.65,8.13-1.85,12.9-7.53,12.38-14.17C1134.55,591.5,1132.82,587.8,1131.74,584.07Z"/><path d="M1095.41,578.49l7.23-.45-3,3.74c3.31,3.1,4.92,3.26,8.74.94-.51,2.87-2.63,3.88-6.17,2.46a6.47,6.47,0,0,0-6.3.26c-2.5,1.38-4.87,1.1-6.7-2.23,3.53,2,6.37,1.87,8.16-.37.5-.63-.92-2.22-1.46-3.37Z"/><path d="M1072.32,561.2l5.87-2.62-6.83-5.65.93-.75,7.66,5.88-6.29,4.22Z"/><path d="M1119.83,573.65l-11.71,3.73C1111.3,573.59,1115.74,572.2,1119.83,573.65Z"/><path d="M1089.29,578.48l-12.53-1.82C1079.84,574.52,1084,575,1089.29,578.48Z"/><path d="M1119.14,558.1l-7.46-2.61,6.78-7.16,1.22.67-5.34,5.69,5.33,2.54Z"/><path d="M230,1987.12c-24.5,10.78-59.77.23-64.48-20-1.62-7,3-14.82,4.41-22.31.59-3,1.6-6.6.25-9.23-5.56-10.85-5.29-21.6-1.88-32.74,1.36-4.45,1.16-9.25,1.25-13.9.1-5-.86-10-.33-14.93.59-5.52,5.05-8,12.11-6.61,3.31.67,7.08,1.38,9.49,3.07,7.49,5.28,15.25,6.07,24.26,2.8a28.68,28.68,0,0,1,9.32-1.31c14.61,0,28.11-.54,40.08-9.61,8.53-6.45,17.35-2.91,18.55,6.67,1.35,10.7,4.47,20.4,11.56,29.86,6.4,8.56,6,18.71,3.76,28.6-.59,2.64.24,5.63,1.16,8.3,2.17,6.32,5.81,12.41,7,18.81,2.83,14.88-7.27,28-24.89,33.8C262.38,1994.79,242.48,1994.36,230,1987.12Zm-25.84-105.83c-4-2.46-7.09-5.1-10.9-6.51-5.53-2-11.6-3.19-17.43-4.72-1.16,4.67-4,9.55-3.1,14,1.85,8.8-.33,16.9-2.48,25.36-5.5,21.65,8.5,39.49,35.31,45.75,19.55,4.56,39,3.25,57.8-2.38,28.8-8.62,41.28-30,28.44-51.93-6.07-10.38-11.17-20.28-12.24-31.74-.68-7.23-5.93-8.77-13.92-4.56-6.41,3.39-12,7.75-18.05,11.74C237,1871.56,210.13,1874.4,204.13,1881.29Zm93.13,54.57-2.75.3c-18.35,26.29-87.9,34.81-120.68,6-2.27,7.21-5,13.36-6,19.68-1.46,8.76,2.16,16.52,12.5,20.82,12,5,25.05,7.31,38.5,5.22,3.71-.57,9-3.88,9.37-6.32s-3.52-6.68-6.92-8.18c-5.41-2.37-12.13-2.8-18-4.67-4.72-1.51-9-3.91-13.44-5.92l1.13-1.42,41.31,13.24,41.93-12.43c-1.87,4.81-8.05,6.21-13.72,7.75-6.81,1.84-14.23,2.56-20.58,5-3.38,1.33-7.65,6-6.87,8,1.07,2.82,6.58,6.54,10.1,6.49,12-.19,24.33-.67,35.72-3.26,16.13-3.68,25.58-15,24.54-28.12C302.82,1950.59,299.4,1943.26,297.26,1935.86Z"/><path d="M225.19,1924.78l14.35-.88-5.94,7.41c6.57,6.15,9.75,6.47,17.33,1.87-1,5.69-5.21,7.7-12.24,4.88-4.75-1.91-8.11-1.9-12.49.52-5,2.73-9.66,2.18-13.28-4.42,7,4,12.62,3.69,16.17-.74,1-1.25-1.81-4.4-2.88-6.68Z"/><path d="M179.38,1890.49,191,1885.3l-13.54-11.21,1.84-1.49,15.2,11.67L182,1892.63Z"/><path d="M273.64,1915.2l-23.25,7.39C256.7,1915.06,265.51,1912.31,273.64,1915.2Z"/><path d="M213.05,1924.77l-24.85-3.62C194.31,1916.92,202.62,1917.94,213.05,1924.77Z"/><path d="M272.25,1884.35l-14.79-5.18,13.45-14.2,2.41,1.32-10.58,11.29,10.56,5Z"/><path d="M623.12,1104.88c-20.84,9.17-50.82.19-54.83-17-1.38-5.94,2.52-12.6,3.75-19,.5-2.59,1.36-5.61.21-7.85-4.73-9.22-4.5-18.36-1.6-27.83,1.16-3.79,1-7.87,1.07-11.82.08-4.24-.73-8.51-.28-12.7.5-4.69,4.29-6.84,10.29-5.62,2.82.57,6,1.17,8.07,2.61,6.37,4.49,13,5.16,20.63,2.38a24.37,24.37,0,0,1,7.92-1.12c12.42,0,23.9-.46,34.09-8.16,7.25-5.49,14.74-2.48,15.77,5.67,1.14,9.1,3.8,17.34,9.82,25.39,5.45,7.27,5.1,15.9,3.21,24.31-.51,2.25.2,4.79,1,7.06,1.85,5.37,4.94,10.56,6,16C690.6,1089.9,682,1101,667,1106,650.67,1111.4,633.75,1111,623.12,1104.88Zm-22-90c-3.42-2.09-6-4.34-9.28-5.53-4.7-1.74-9.86-2.71-14.82-4-1,4-3.42,8.12-2.63,11.85,1.57,7.49-.28,14.38-2.11,21.57-4.67,18.41,7.23,33.58,30,38.9,16.63,3.87,33.14,2.76,49.15-2,24.49-7.32,35.1-25.46,24.18-44.15-5.16-8.82-9.49-17.25-10.41-27-.57-6.15-5-7.46-11.83-3.87-5.45,2.87-10.2,6.58-15.35,10C629.09,1006.62,606.24,1009,601.15,1014.89Zm79.18,46.41-2.34.25c-15.6,22.35-74.73,29.59-102.61,5.09-1.93,6.13-4.22,11.36-5.11,16.74-1.25,7.44,1.84,14,10.63,17.7,10.16,4.22,21.3,6.21,32.74,4.44,3.15-.49,7.65-3.3,8-5.38s-3-5.68-5.88-7c-4.6-2-10.31-2.39-15.29-4-4-1.28-7.63-3.33-11.43-5l1-1.21,35.13,11.26,35.65-10.57c-1.59,4.08-6.84,5.27-11.67,6.58-5.78,1.57-12.1,2.18-17.49,4.29-2.88,1.13-6.51,5.06-5.85,6.8.91,2.4,5.6,5.57,8.59,5.52,10.17-.16,20.69-.57,30.37-2.77,13.72-3.13,21.76-12.71,20.87-23.91C685.06,1073.82,682.15,1067.59,680.33,1061.3Z"/><path d="M619.05,1051.88l12.2-.75c-2.57,3.2-3.83,4.76-5,6.29,5.59,5.23,8.3,5.51,14.74,1.59-.85,4.85-4.43,6.55-10.41,4.15-4-1.62-6.9-1.61-10.62.45-4.21,2.32-8.22,1.85-11.29-3.76,6,3.43,10.73,3.14,13.75-.63.85-1.06-1.54-3.74-2.45-5.68Z"/><path d="M580.1,1022.72l9.9-4.42-11.51-9.53,1.57-1.26,12.92,9.91-10.62,7.11Z"/><path d="M660.25,1043.72,640.48,1050C645.85,1043.61,653.34,1041.27,660.25,1043.72Z"/><path d="M608.73,1051.87l-21.13-3.08C592.79,1045.19,599.86,1046.05,608.73,1051.87Z"/><path d="M659.07,1017.49l-12.58-4.4L657.93,1001l2.05,1.13c-3,3.14-5.9,6.28-9,9.6l9,4.28Z"/><path d="M1422.31,879.72c-13.88,6.11-33.85.13-36.52-11.31-.92-4,1.68-8.4,2.5-12.64.33-1.73.91-3.74.14-5.23-3.15-6.14-3-12.23-1.07-18.54.78-2.53.66-5.24.71-7.87.06-2.82-.48-5.67-.18-8.46.33-3.13,2.86-4.56,6.86-3.75,1.87.38,4,.78,5.37,1.74,4.24,3,8.64,3.44,13.74,1.59a16.14,16.14,0,0,1,5.28-.74c8.27,0,15.92-.31,22.71-5.45,4.83-3.65,9.82-1.64,10.5,3.78a34.05,34.05,0,0,0,6.55,16.92c3.63,4.84,3.39,10.59,2.13,16.19a9,9,0,0,0,.66,4.71c1.23,3.57,3.29,7,4,10.65,1.6,8.43-4.12,15.84-14.1,19.14C1440.67,884.06,1429.4,883.82,1422.31,879.72Zm-14.63-60c-2.28-1.39-4-2.89-6.18-3.68-3.13-1.16-6.57-1.81-9.87-2.68-.65,2.65-2.28,5.41-1.76,7.9,1.05,5-.18,9.58-1.4,14.37-3.11,12.26,4.81,22.37,20,25.91a63,63,0,0,0,32.74-1.35c16.31-4.88,23.38-17,16.11-29.41-3.44-5.88-6.33-11.49-6.94-18-.38-4.1-3.35-5-7.88-2.58-3.63,1.92-6.79,4.39-10.22,6.65C1426.29,814.26,1411.07,815.87,1407.68,819.77Zm52.75,30.92-1.56.17c-10.39,14.88-49.79,19.71-68.36,3.39-1.28,4.08-2.8,7.57-3.4,11.15-.83,5,1.23,9.35,7.08,11.79a40.45,40.45,0,0,0,21.81,3c2.1-.33,5.1-2.21,5.3-3.59s-2-3.78-3.91-4.63c-3.07-1.34-6.87-1.59-10.19-2.64a73.83,73.83,0,0,1-7.61-3.36l.64-.8,23.4,7.5,23.75-7c-1.06,2.72-4.56,3.51-7.78,4.38-3.85,1-8.06,1.46-11.65,2.86-1.92.75-4.33,3.37-3.89,4.53.6,1.6,3.72,3.71,5.72,3.68,6.77-.11,13.78-.38,20.23-1.85,9.14-2.08,14.49-8.47,13.9-15.93C1463.58,859,1461.64,854.87,1460.43,850.69Z"/><path d="M1419.6,844.41l8.13-.5-3.36,4.19c3.72,3.49,5.52,3.67,9.82,1.06-.57,3.23-3,4.37-6.94,2.77-2.69-1.08-4.59-1.08-7.07.29-2.81,1.55-5.48,1.24-7.53-2.5,4,2.28,7.16,2.09,9.17-.42.57-.71-1-2.49-1.64-3.78Z"/><path d="M1393.66,825l6.6-3-7.67-6.34,1-.85,8.61,6.61c-2.82,1.88-5,3.31-7.07,4.74Z"/><path d="M1447.05,839l-13.17,4.18C1437.46,838.9,1442.44,837.34,1447.05,839Z"/><path d="M1412.73,844.4l-14.08-2C1402.11,840,1406.82,840.53,1412.73,844.4Z"/><path d="M1446.27,821.51l-8.39-2.94,7.62-8,1.37.75c-2,2.09-3.93,4.18-6,6.39l6,2.86Z"/><path d="M994.93,1671.56c-13.88,6.11-33.85.13-36.52-11.32-.92-4,1.68-8.39,2.5-12.63.33-1.73.9-3.74.14-5.23-3.15-6.14-3-12.23-1.07-18.54.78-2.53.66-5.24.71-7.87.06-2.82-.48-5.67-.18-8.46.33-3.13,2.85-4.56,6.86-3.75,1.87.38,4,.78,5.37,1.74,4.24,3,8.64,3.44,13.74,1.59a16.15,16.15,0,0,1,5.28-.75c8.27,0,15.92-.3,22.71-5.44,4.83-3.65,9.82-1.65,10.5,3.78a34.05,34.05,0,0,0,6.55,16.92c3.63,4.84,3.39,10.59,2.13,16.19a9,9,0,0,0,.66,4.71c1.23,3.57,3.28,7,4,10.65,1.61,8.43-4.11,15.84-14.09,19.14C1013.29,1675.9,1002,1675.66,994.93,1671.56Zm-14.63-60c-2.28-1.39-4-2.89-6.18-3.68-3.13-1.16-6.57-1.81-9.87-2.68-.66,2.64-2.28,5.41-1.76,7.9,1,5-.18,9.58-1.4,14.37-3.11,12.26,4.81,22.37,20,25.91a63,63,0,0,0,32.74-1.35c16.31-4.88,23.38-17,16.11-29.41-3.44-5.88-6.33-11.49-6.94-18-.38-4.1-3.36-5-7.88-2.58-3.63,1.92-6.79,4.39-10.22,6.65C998.91,1606.1,983.69,1607.71,980.3,1611.61Zm52.75,30.91-1.56.17c-10.39,14.89-49.79,19.72-68.36,3.39-1.28,4.09-2.81,7.57-3.4,11.15-.83,5,1.22,9.36,7.08,11.79a40.46,40.46,0,0,0,21.81,3c2.1-.33,5.1-2.21,5.3-3.59s-2-3.78-3.92-4.63c-3.06-1.34-6.86-1.59-10.18-2.65a71.67,71.67,0,0,1-7.61-3.35l.64-.8,23.4,7.5,23.75-7c-1.06,2.72-4.56,3.51-7.78,4.38-3.85,1-8.06,1.46-11.65,2.86-1.92.75-4.33,3.37-3.89,4.53.6,1.6,3.72,3.71,5.72,3.68,6.77-.11,13.78-.38,20.23-1.85,9.14-2.08,14.49-8.47,13.9-15.93C1036.2,1650.87,1034.26,1646.71,1033.05,1642.52Z"/><path d="M992.22,1636.25l8.13-.5-3.36,4.19c3.72,3.49,5.52,3.67,9.82,1.06-.57,3.23-3,4.36-6.94,2.77-2.69-1.08-4.59-1.08-7.07.29-2.81,1.55-5.48,1.24-7.53-2.5,4,2.28,7.15,2.09,9.17-.42.57-.71-1-2.49-1.64-3.78Z"/><path d="M966.28,1616.82l6.59-2.94-7.67-6.34,1-.85,8.61,6.61-7.08,4.73Z"/><path d="M1019.67,1630.82,1006.5,1635C1010.08,1630.74,1015.06,1629.18,1019.67,1630.82Z"/><path d="M985.35,1636.24l-14.08-2C974.73,1631.79,979.44,1632.37,985.35,1636.24Z"/><path d="M1018.88,1613.34l-8.38-2.93,7.62-8,1.37.74-6,6.4,6,2.86Z"/><path d="M860,394.66c-20.83,9.17-50.82.19-54.82-17-1.38-5.94,2.52-12.6,3.75-19,.49-2.59,1.36-5.61.21-7.85-4.73-9.22-4.5-18.36-1.6-27.83,1.16-3.79,1-7.87,1.07-11.82.08-4.23-.74-8.5-.29-12.7.51-4.69,4.29-6.84,10.3-5.62,2.81.57,6,1.17,8.07,2.61,6.37,4.49,13,5.16,20.63,2.38a24.33,24.33,0,0,1,7.92-1.11c12.42,0,23.9-.47,34.09-8.17,7.25-5.49,14.74-2.48,15.77,5.67,1.14,9.1,3.79,17.34,9.82,25.39,5.45,7.27,5.1,15.9,3.2,24.31-.5,2.25.21,4.79,1,7.07,1.85,5.36,4.94,10.55,6,16,2.41,12.65-6.18,23.77-21.16,28.73C887.59,401.18,870.67,400.82,860,394.66Zm-22-90c-3.42-2.1-6-4.34-9.28-5.54-4.7-1.74-9.86-2.71-14.82-4-1,4-3.42,8.12-2.63,11.85,1.57,7.49-.28,14.38-2.11,21.57-4.67,18.41,7.22,33.58,30,38.9,16.63,3.88,33.13,2.76,49.15-2,24.49-7.32,35.1-25.46,24.18-44.15-5.16-8.82-9.5-17.24-10.41-27-.58-6.15-5-7.45-11.83-3.87-5.45,2.88-10.2,6.58-15.35,10C866,296.4,843.16,298.81,838.07,304.68Zm79.18,46.4-2.34.25c-15.6,22.35-74.74,29.6-102.61,5.09-1.93,6.13-4.22,11.37-5.12,16.74-1.24,7.45,1.85,14,10.64,17.7,10.16,4.22,21.3,6.21,32.73,4.44,3.16-.49,7.66-3.3,8-5.38s-3-5.68-5.88-6.95c-4.6-2-10.32-2.38-15.29-4-4-1.28-7.64-3.33-11.43-5l1-1.21L862,384l35.65-10.57c-1.59,4.09-6.84,5.27-11.67,6.58-5.79,1.57-12.1,2.18-17.5,4.3-2.87,1.12-6.5,5.06-5.84,6.79.91,2.4,5.59,5.57,8.59,5.52,10.17-.16,20.68-.57,30.37-2.77,13.72-3.13,21.76-12.71,20.87-23.91C922,363.6,919.07,357.37,917.25,351.08Z"/><path d="M856,341.66l12.2-.75c-2.57,3.2-3.83,4.76-5,6.29,5.59,5.23,8.29,5.51,14.74,1.59-.85,4.85-4.44,6.55-10.41,4.15-4-1.62-6.9-1.61-10.63.45-4.21,2.32-8.21,1.85-11.29-3.76,6,3.43,10.74,3.14,13.76-.63.85-1.06-1.55-3.74-2.45-5.68Z"/><path d="M817,312.5l9.9-4.42-11.51-9.53,1.57-1.26,12.92,9.92-10.62,7.1Z"/><path d="M897.16,333.51l-19.76,6.28C882.77,333.39,890.25,331.05,897.16,333.51Z"/><path d="M845.65,341.65l-21.13-3.08C829.71,335,836.78,335.84,845.65,341.65Z"/><path d="M896,307.27l-12.58-4.4,11.43-12.08,2.06,1.13-9,9.6,9,4.29Z"/><path d="M301,300.86c-20.83,9.17-50.82.19-54.82-17-1.39-5.94,2.52-12.61,3.74-19,.5-2.59,1.37-5.61.22-7.85-4.73-9.22-4.5-18.36-1.6-27.84,1.16-3.79,1-7.86,1.06-11.81.09-4.24-.73-8.51-.28-12.7.5-4.69,4.29-6.84,10.3-5.63,2.81.57,6,1.18,8.07,2.62,6.36,4.48,13,5.15,20.63,2.38a24.07,24.07,0,0,1,7.92-1.12c12.42,0,23.9-.46,34.08-8.17,7.26-5.48,14.75-2.47,15.77,5.67,1.15,9.1,3.8,17.35,9.83,25.4,5.45,7.27,5.1,15.9,3.2,24.31-.5,2.25.2,4.79,1,7.06,1.84,5.37,4.93,10.55,6,16C368.52,285.88,359.93,297,345,302,328.59,307.38,311.67,307,301,300.86Zm-22-90c-3.41-2.09-6-4.34-9.27-5.53-4.7-1.74-9.86-2.72-14.82-4-1,4-3.42,8.13-2.64,11.86,1.58,7.49-.28,14.38-2.1,21.57-4.68,18.4,7.22,33.58,30,38.9,16.63,3.87,33.13,2.76,49.15-2,24.49-7.32,35.1-25.46,24.18-44.15-5.16-8.82-9.5-17.25-10.41-27-.58-6.15-5-7.46-11.83-3.87-5.46,2.87-10.2,6.58-15.35,10C307,202.6,284.16,205,279.06,210.87Zm79.19,46.4-2.34.26c-15.6,22.35-74.74,29.59-102.62,5.09-1.93,6.13-4.21,11.36-5.11,16.74-1.24,7.44,1.84,14,10.64,17.7,10.16,4.22,21.29,6.21,32.73,4.44,3.16-.49,7.66-3.3,8-5.38s-3-5.68-5.89-6.95c-4.6-2-10.31-2.39-15.28-4-4-1.28-7.64-3.33-11.43-5l1-1.2L303,290.22l35.66-10.57c-1.59,4.08-6.84,5.27-11.67,6.58-5.79,1.57-12.1,2.18-17.5,4.29-2.87,1.13-6.5,5.06-5.84,6.8.91,2.4,5.59,5.57,8.59,5.52,10.17-.16,20.68-.57,30.37-2.77,13.72-3.13,21.75-12.71,20.87-23.92C363,269.8,360.07,263.56,358.25,257.27Z"/><path d="M297,247.85l12.2-.75c-2.56,3.21-3.82,4.77-5.05,6.3,5.6,5.23,8.3,5.5,14.75,1.59-.86,4.84-4.44,6.55-10.41,4.15-4-1.62-6.9-1.61-10.63.45-4.21,2.32-8.21,1.85-11.29-3.77,6,3.44,10.74,3.15,13.76-.62.85-1.07-1.55-3.74-2.46-5.68Z"/><path d="M258,218.7l9.9-4.42-11.52-9.53,1.58-1.26,12.92,9.91-10.62,7.11Z"/><path d="M338.16,239.7,318.4,246C323.76,239.59,331.25,237.25,338.16,239.7Z"/><path d="M286.64,247.85l-21.13-3.08C270.71,241.17,277.77,242,286.64,247.85Z"/><path d="M337,213.47l-12.58-4.4L335.84,197l2.05,1.12c-2.94,3.15-5.89,6.29-9,9.6l9,4.29Z"/><path d="M361.42,2335.28c-20.83,9.17-50.82.19-54.82-17-1.39-5.93,2.52-12.6,3.74-19,.5-2.6,1.37-5.61.22-7.85-4.73-9.22-4.5-18.37-1.6-27.84,1.16-3.79,1-7.87,1.06-11.82.09-4.23-.73-8.5-.28-12.7.51-4.69,4.29-6.83,10.3-5.62,2.81.57,6,1.17,8.07,2.62,6.36,4.48,13,5.15,20.63,2.38a24.07,24.07,0,0,1,7.92-1.12c12.42,0,23.9-.46,34.08-8.17,7.26-5.49,14.75-2.47,15.77,5.67,1.15,9.1,3.8,17.35,9.83,25.4,5.45,7.27,5.1,15.9,3.2,24.31-.5,2.25.21,4.79,1,7.06,1.84,5.37,4.93,10.55,6,16,2.41,12.65-6.18,23.78-21.16,28.74C389,2341.8,372.06,2341.44,361.42,2335.28Zm-22-90c-3.41-2.09-6-4.34-9.27-5.54-4.7-1.73-9.86-2.71-14.82-4-1,4-3.42,8.12-2.64,11.86,1.58,7.48-.27,14.38-2.1,21.57-4.68,18.4,7.22,33.58,30,38.89,16.63,3.88,33.13,2.77,49.15-2,24.49-7.32,35.1-25.46,24.18-44.15-5.16-8.83-9.5-17.25-10.41-27-.58-6.15-5-7.46-11.83-3.88-5.45,2.88-10.2,6.59-15.35,10C367.4,2237,344.55,2239.43,339.45,2245.29Zm79.19,46.4-2.34.26c-15.6,22.35-74.74,29.59-102.61,5.09-1.93,6.13-4.22,11.36-5.12,16.73-1.24,7.45,1.85,14.05,10.64,17.7,10.16,4.23,21.29,6.22,32.73,4.45,3.16-.49,7.66-3.31,8-5.38s-3-5.68-5.89-6.95c-4.59-2-10.31-2.39-15.28-4-4-1.28-7.64-3.32-11.43-5l1-1.21,35.12,11.26,35.66-10.57c-1.59,4.09-6.84,5.28-11.67,6.59-5.79,1.57-12.1,2.18-17.5,4.29-2.87,1.12-6.5,5.06-5.84,6.8.91,2.4,5.59,5.56,8.59,5.52,10.17-.16,20.68-.57,30.37-2.78,13.72-3.12,21.75-12.71,20.87-23.91C423.37,2304.22,420.46,2298,418.64,2291.69Z"/><path d="M357.35,2282.27l12.21-.75-5.06,6.3c5.6,5.23,8.3,5.5,14.75,1.59-.85,4.84-4.44,6.55-10.41,4.15-4-1.62-6.9-1.61-10.63.44-4.21,2.33-8.21,1.86-11.29-3.76,6,3.43,10.74,3.14,13.76-.62.85-1.07-1.55-3.75-2.46-5.69Z"/><path d="M318.41,2253.11l9.9-4.41-11.51-9.53,1.57-1.27,12.92,9.92-10.62,7.11Z"/><path d="M398.55,2274.12l-19.76,6.28C384.15,2274,391.64,2271.67,398.55,2274.12Z"/><path d="M347,2282.26l-21.12-3.07C331.1,2275.59,338.17,2276.45,347,2282.26Z"/><path d="M397.38,2247.89l-12.58-4.4,11.43-12.08,2.06,1.12-9,9.6,9,4.29Z"/><path d="M1155.79,1126.81c-20.83,9.17-50.82.19-54.82-17-1.38-5.93,2.52-12.6,3.75-19,.49-2.59,1.36-5.61.21-7.85-4.73-9.22-4.5-18.37-1.6-27.84,1.16-3.79,1-7.86,1.07-11.81.08-4.24-.74-8.51-.29-12.7.51-4.69,4.29-6.84,10.3-5.63,2.81.57,6,1.18,8.07,2.62,6.37,4.48,13,5.15,20.63,2.38a24.07,24.07,0,0,1,7.92-1.12c12.42,0,23.9-.46,34.09-8.17,7.25-5.49,14.74-2.47,15.77,5.67,1.14,9.1,3.79,17.35,9.82,25.4,5.45,7.27,5.1,15.9,3.2,24.31-.5,2.25.21,4.79,1,7.06,1.85,5.37,4.94,10.55,6,16,2.41,12.66-6.18,23.78-21.16,28.74C1183.35,1133.33,1166.43,1133,1155.79,1126.81Zm-22-90c-3.42-2.09-6-4.34-9.28-5.53-4.7-1.74-9.86-2.72-14.82-4-1,4-3.42,8.13-2.63,11.86,1.57,7.49-.28,14.38-2.11,21.57-4.67,18.4,7.22,33.58,30,38.89,16.63,3.88,33.13,2.77,49.15-2,24.49-7.32,35.1-25.46,24.18-44.15-5.16-8.83-9.5-17.25-10.41-27-.58-6.15-5-7.46-11.83-3.87-5.45,2.87-10.2,6.58-15.35,10C1161.77,1028.55,1138.92,1031,1133.83,1036.82Zm79.18,46.4-2.34.26c-15.6,22.35-74.74,29.59-102.61,5.09-1.93,6.13-4.22,11.36-5.12,16.74-1.24,7.44,1.85,14,10.64,17.7,10.16,4.22,21.3,6.21,32.73,4.44,3.16-.49,7.66-3.3,8-5.38s-3-5.68-5.88-7c-4.6-2-10.32-2.39-15.29-4-4-1.28-7.64-3.33-11.43-5l1-1.2,35.13,11.26,35.65-10.58c-1.59,4.09-6.84,5.28-11.67,6.59-5.79,1.57-12.1,2.18-17.5,4.29-2.87,1.13-6.5,5.06-5.84,6.8.91,2.4,5.59,5.57,8.59,5.52,10.17-.16,20.68-.57,30.37-2.78,13.72-3.12,21.76-12.7,20.87-23.91C1217.74,1095.75,1214.83,1089.51,1213,1083.22Z"/><path d="M1151.73,1073.8l12.2-.75-5,6.3c5.59,5.23,8.29,5.5,14.74,1.59-.85,4.84-4.44,6.55-10.41,4.15-4-1.62-6.9-1.61-10.62.44-4.22,2.33-8.22,1.86-11.3-3.76,6,3.44,10.74,3.14,13.76-.62.85-1.07-1.55-3.75-2.45-5.68Z"/><path d="M1112.78,1044.65l9.9-4.42-11.51-9.53,1.57-1.27,12.92,9.92-10.62,7.11Z"/><path d="M1192.92,1065.65l-19.76,6.28C1178.53,1065.54,1186,1063.2,1192.92,1065.65Z"/><path d="M1141.41,1073.8l-21.13-3.08C1125.47,1067.12,1132.54,1068,1141.41,1073.8Z"/><path d="M1191.75,1039.42l-12.58-4.4,11.43-12.08,2.06,1.12-9,9.6,9,4.29Z"/><path d="M992.85,2198c-16,7.05-39.07.15-42.15-13.05-1.06-4.57,1.94-9.69,2.88-14.59.38-2,1-4.31.16-6-3.63-7.09-3.46-14.12-1.23-21.4.9-2.92.76-6,.82-9.09.07-3.26-.56-6.54-.21-9.77.38-3.6,3.3-5.25,7.91-4.32,2.17.44,4.63.9,6.21,2,4.89,3.45,10,4,15.86,1.83a18.82,18.82,0,0,1,6.09-.86c9.55,0,18.38-.35,26.21-6.28,5.57-4.22,11.33-1.9,12.12,4.36a39.18,39.18,0,0,0,7.56,19.53c4.19,5.59,3.92,12.22,2.46,18.69a10.43,10.43,0,0,0,.76,5.43c1.42,4.13,3.79,8.11,4.59,12.3,1.85,9.72-4.75,18.28-16.27,22.09C1014,2203.06,1001,2202.78,992.85,2198ZM976,2128.86c-2.62-1.62-4.64-3.34-7.13-4.26-3.62-1.34-7.58-2.09-11.39-3.09-.76,3-2.64,6.25-2,9.12,1.21,5.76-.21,11-1.62,16.58-3.59,14.15,5.55,25.82,23.08,29.91a72.59,72.59,0,0,0,37.79-1.56c18.83-5.63,27-19.57,18.59-33.94-4-6.79-7.3-13.26-8-20.75-.44-4.73-3.88-5.74-9.1-3-4.19,2.21-7.84,5.06-11.8,7.67C997.45,2122.49,979.88,2124.35,976,2128.86Zm60.88,35.67-1.8.2c-12,17.18-57.46,22.75-78.89,3.91-1.49,4.72-3.24,8.74-3.93,12.87-1,5.73,1.41,10.8,8.17,13.61a46.65,46.65,0,0,0,25.17,3.42c2.43-.38,5.89-2.54,6.13-4.14s-2.3-4.37-4.53-5.34c-3.53-1.55-7.92-1.84-11.75-3.06a83.05,83.05,0,0,1-8.79-3.87l.74-.93,27,8.66,27.41-8.13c-1.22,3.15-5.26,4.06-9,5.07-4.45,1.2-9.3,1.67-13.45,3.3-2.21.86-5,3.89-4.5,5.22.7,1.85,4.3,4.28,6.61,4.25,7.82-.13,15.9-.44,23.35-2.14,10.55-2.4,16.73-9.77,16-18.38C1040.48,2174.16,1038.25,2169.37,1036.84,2164.53Z"/><path d="M989.72,2157.29l9.39-.58-3.89,4.84c4.3,4,6.38,4.24,11.34,1.23-.66,3.72-3.41,5-8,3.19-3.1-1.25-5.3-1.24-8.16.34-3.24,1.79-6.32,1.43-8.69-2.89,4.58,2.64,8.26,2.41,10.58-.48.66-.82-1.19-2.88-1.89-4.37Z"/><path d="M959.78,2134.87l7.61-3.4-8.85-7.32,1.21-1,9.93,7.62-8.16,5.47Z"/><path d="M1021.4,2151l-15.2,4.83C1010.33,2150.93,1016.09,2149.13,1021.4,2151Z"/><path d="M981.79,2157.28l-16.25-2.36C969.54,2152.15,975,2152.81,981.79,2157.28Z"/><path d="M1020.5,2130.85l-9.68-3.38,8.8-9.29,1.58.87c-2.27,2.41-4.54,4.83-6.92,7.38l6.9,3.29Z"/><path d="M209.32,1193c-16,7-39.07.14-42.15-13.06-1.07-4.57,1.94-9.69,2.88-14.58.38-2,1-4.32.16-6-3.63-7.09-3.46-14.12-1.23-21.4.89-2.92.76-6,.82-9.09.07-3.25-.56-6.54-.21-9.76.38-3.61,3.29-5.26,7.91-4.33,2.16.44,4.63.91,6.2,2,4.9,3.44,10,4,15.87,1.83a18.55,18.55,0,0,1,6.09-.86c9.55,0,18.37-.36,26.21-6.28,5.57-4.22,11.33-1.91,12.12,4.36a39.18,39.18,0,0,0,7.56,19.52c4.18,5.59,3.92,12.23,2.46,18.69a10.41,10.41,0,0,0,.75,5.43c1.42,4.13,3.8,8.12,4.6,12.3,1.85,9.73-4.76,18.28-16.27,22.09C230.51,1198,217.5,1197.75,209.32,1193Zm-16.89-69.19c-2.63-1.61-4.64-3.34-7.13-4.26-3.62-1.33-7.58-2.08-11.4-3.08-.75,3-2.63,6.24-2,9.11,1.21,5.76-.22,11.06-1.62,16.59-3.6,14.15,5.55,25.82,23.08,29.9a72.7,72.7,0,0,0,37.79-1.55c18.83-5.63,27-19.58,18.59-34-4-6.78-7.3-13.26-8-20.75-.45-4.73-3.88-5.74-9.1-3-4.19,2.21-7.84,5.06-11.8,7.68C213.91,1117.47,196.35,1119.32,192.43,1123.83Zm60.88,35.68-1.8.19c-12,17.19-57.46,22.76-78.89,3.92-1.49,4.71-3.25,8.73-3.93,12.86-1,5.73,1.41,10.8,8.17,13.61a46.65,46.65,0,0,0,25.17,3.42c2.43-.38,5.89-2.54,6.13-4.14s-2.3-4.36-4.53-5.34c-3.53-1.55-7.93-1.84-11.75-3.06a83,83,0,0,1-8.79-3.86l.74-.93,27,8.65,27.41-8.12c-1.22,3.14-5.26,4-9,5.06-4.45,1.21-9.31,1.68-13.46,3.3-2.21.86-5,3.89-4.49,5.23.7,1.84,4.3,4.28,6.61,4.24,7.82-.12,15.9-.44,23.35-2.13,10.55-2.4,16.72-9.77,16-18.39C257,1169.14,254.71,1164.34,253.31,1159.51Z"/><path d="M206.19,1152.26l9.38-.57-3.88,4.84c4.3,4,6.38,4.23,11.34,1.22-.66,3.72-3.41,5-8,3.19-3.11-1.25-5.3-1.24-8.17.34-3.24,1.79-6.31,1.43-8.68-2.89,4.58,2.64,8.26,2.42,10.58-.48.65-.82-1.19-2.88-1.89-4.37Z"/><path d="M176.25,1129.84l7.61-3.39-8.85-7.33,1.21-1,9.93,7.62-8.16,5.47Z"/><path d="M237.87,1146l-15.2,4.83C226.8,1145.91,232.56,1144.11,237.87,1146Z"/><path d="M198.26,1152.26,182,1149.89C186,1147.12,191.44,1147.79,198.26,1152.26Z"/><path d="M237,1125.83l-9.67-3.39,8.79-9.28,1.58.86-6.92,7.38,6.91,3.3Z"/><path d="M982,2517.22c-16,7.05-39.07.14-42.15-13.06-1.06-4.57,1.94-9.69,2.88-14.58.38-2,1-4.32.17-6-3.64-7.09-3.47-14.12-1.24-21.4.9-2.92.76-6,.82-9.09.07-3.25-.56-6.54-.21-9.76.38-3.61,3.3-5.26,7.92-4.33,2.16.44,4.62.9,6.2,2,4.89,3.45,10,4,15.86,1.84a18.55,18.55,0,0,1,6.09-.86c9.55,0,18.38-.36,26.21-6.29,5.57-4.22,11.33-1.9,12.12,4.36a39.18,39.18,0,0,0,7.56,19.53c4.19,5.59,3.92,12.23,2.46,18.69a10.41,10.41,0,0,0,.76,5.43c1.42,4.13,3.79,8.12,4.59,12.3,1.85,9.73-4.75,18.28-16.27,22.09C1003.2,2522.23,990.19,2522,982,2517.22ZM965.12,2448c-2.62-1.61-4.64-3.34-7.13-4.26-3.62-1.33-7.58-2.08-11.39-3.08-.76,3-2.63,6.24-2,9.11,1.21,5.76-.21,11.06-1.62,16.58-3.59,14.16,5.55,25.83,23.08,29.91a72.7,72.7,0,0,0,37.79-1.55c18.83-5.64,27-19.58,18.59-33.95-4-6.79-7.3-13.26-8-20.75-.44-4.73-3.87-5.74-9.1-3-4.19,2.21-7.84,5.06-11.8,7.67C986.61,2441.67,969,2443.52,965.12,2448ZM1026,2483.7l-1.8.2c-12,17.19-57.46,22.75-78.89,3.91-1.48,4.72-3.24,8.74-3.93,12.87-1,5.73,1.41,10.8,8.17,13.61a46.65,46.65,0,0,0,25.17,3.42c2.43-.38,5.89-2.54,6.13-4.14s-2.3-4.37-4.53-5.34c-3.53-1.55-7.92-1.84-11.75-3.06a81.05,81.05,0,0,1-8.79-3.87l.74-.92,27,8.65,27.41-8.13c-1.22,3.15-5.26,4.06-9,5.07-4.45,1.21-9.3,1.67-13.45,3.3-2.21.86-5,3.89-4.5,5.23.7,1.84,4.31,4.27,6.61,4.24,7.82-.12,15.9-.44,23.35-2.13,10.55-2.41,16.73-9.78,16-18.39C1029.64,2493.34,1027.41,2488.54,1026,2483.7Z"/><path d="M978.89,2476.46l9.38-.58-3.89,4.85c4.3,4,6.38,4.23,11.34,1.22-.66,3.72-3.41,5-8,3.19-3.1-1.25-5.3-1.24-8.16.34-3.24,1.79-6.32,1.43-8.69-2.89,4.58,2.64,8.26,2.41,10.58-.48.66-.82-1.19-2.88-1.89-4.37Z"/><path d="M948.94,2454l7.61-3.39-8.85-7.33,1.21-1,9.93,7.62-8.16,5.47Z"/><path d="M1010.56,2470.19,995.37,2475C999.49,2470.11,1005.25,2468.31,1010.56,2470.19Z"/><path d="M971,2476.46l-16.25-2.37C958.7,2471.32,964.13,2472,971,2476.46Z"/><path d="M1009.66,2450l-9.68-3.39,8.8-9.29,1.58.87c-2.27,2.42-4.54,4.83-6.92,7.38l6.9,3.3Z"/><path d="M654.09,613.94c-20.84,9.17-50.82.19-54.83-17-1.38-5.94,2.52-12.6,3.75-19,.5-2.59,1.36-5.61.21-7.85-4.73-9.22-4.5-18.36-1.6-27.83,1.16-3.79,1-7.87,1.07-11.82.08-4.24-.73-8.51-.28-12.7.5-4.69,4.29-6.84,10.29-5.62,2.82.57,6,1.17,8.07,2.61,6.37,4.49,13,5.16,20.63,2.38a24.37,24.37,0,0,1,7.92-1.12c12.42,0,23.9-.46,34.09-8.16,7.25-5.49,14.74-2.48,15.77,5.66,1.14,9.11,3.8,17.35,9.82,25.4,5.45,7.27,5.1,15.9,3.21,24.31-.51,2.25.2,4.79,1,7.06,1.85,5.37,4.94,10.56,6,16C721.57,599,713,610.08,698,615,681.64,620.46,664.72,620.1,654.09,613.94Zm-22-90c-3.42-2.09-6-4.34-9.28-5.53-4.7-1.74-9.86-2.71-14.82-4-1,4-3.42,8.13-2.63,11.86,1.57,7.49-.28,14.38-2.11,21.57-4.67,18.41,7.23,33.58,30,38.9,16.63,3.87,33.14,2.76,49.15-2,24.49-7.32,35.1-25.46,24.18-44.15-5.16-8.82-9.49-17.25-10.41-27-.57-6.15-5-7.46-11.83-3.87-5.45,2.87-10.2,6.58-15.35,10C660.06,515.68,637.21,518.09,632.12,524Zm79.18,46.41-2.34.25c-15.6,22.35-74.73,29.59-102.61,5.09-1.93,6.13-4.22,11.36-5.11,16.74-1.25,7.44,1.84,14,10.63,17.7,10.16,4.22,21.3,6.21,32.74,4.44,3.15-.49,7.65-3.3,8-5.38s-3-5.68-5.88-7c-4.6-2-10.31-2.39-15.29-4-4-1.28-7.63-3.33-11.43-5l1-1.21,35.13,11.26,35.65-10.57c-1.59,4.08-6.84,5.27-11.67,6.58-5.78,1.57-12.1,2.18-17.5,4.29-2.87,1.13-6.5,5.06-5.84,6.8.91,2.4,5.6,5.57,8.59,5.52,10.17-.16,20.69-.57,30.37-2.77,13.72-3.13,21.76-12.71,20.87-23.91C716,582.88,713.12,576.65,711.3,570.36Z"/><path d="M650,560.94l12.2-.76-5.05,6.3c5.59,5.23,8.3,5.51,14.74,1.59-.85,4.85-4.43,6.55-10.41,4.15-4-1.62-6.9-1.61-10.62.45-4.22,2.32-8.22,1.85-11.29-3.76,5.95,3.43,10.73,3.14,13.75-.63.85-1.06-1.55-3.74-2.45-5.68Z"/><path d="M611.07,531.78l9.9-4.42-11.51-9.53,1.57-1.26L624,526.48l-10.62,7.11Z"/><path d="M691.22,552.78l-19.77,6.29C676.82,552.67,684.31,550.33,691.22,552.78Z"/><path d="M639.7,560.93l-21.13-3.08C623.76,554.25,630.83,555.11,639.7,560.93Z"/><path d="M690,526.55l-12.58-4.4,11.43-12.08L691,511.2c-3,3.14-5.9,6.28-9,9.6l9,4.28Z"/><path d="M1531.63,635.48c-15.4,6.78-37.56.14-40.52-12.55-1-4.39,1.87-9.31,2.77-14,.37-1.91,1-4.14.16-5.8-3.5-6.81-3.33-13.57-1.19-20.57.86-2.8.74-5.81.79-8.73.06-3.13-.54-6.29-.21-9.39.38-3.46,3.18-5,7.61-4.15,2.08.42,4.45.86,6,1.93,4.7,3.31,9.58,3.81,15.24,1.76a18,18,0,0,1,5.86-.83c9.17,0,17.66-.34,25.19-6,5.36-4.06,10.89-1.83,11.65,4.19a37.77,37.77,0,0,0,7.26,18.76c4,5.38,3.77,11.75,2.37,18a9.94,9.94,0,0,0,.73,5.22c1.36,4,3.64,7.8,4.41,11.82,1.78,9.35-4.57,17.57-15.64,21.23C1552,640.3,1539.49,640,1531.63,635.48ZM1515.39,569c-2.52-1.55-4.46-3.21-6.85-4.09-3.48-1.29-7.29-2-11-3-.72,2.93-2.52,6-1.94,8.76,1.16,5.54-.21,10.63-1.56,15.94-3.45,13.6,5.34,24.82,22.19,28.75a69.88,69.88,0,0,0,36.32-1.5c18.1-5.41,25.94-18.81,17.87-32.63-3.81-6.52-7-12.74-7.69-19.94-.43-4.55-3.73-5.51-8.75-2.87-4,2.13-7.53,4.87-11.34,7.38C1536,562.86,1519.16,564.64,1515.39,569Zm58.52,34.29-1.73.19c-11.53,16.52-55.23,21.87-75.83,3.76-1.43,4.53-3.12,8.4-3.78,12.37-.92,5.5,1.36,10.38,7.86,13.08a44.83,44.83,0,0,0,24.19,3.28c2.33-.36,5.66-2.44,5.89-4s-2.21-4.2-4.35-5.14c-3.4-1.49-7.62-1.76-11.3-2.94a79.36,79.36,0,0,1-8.44-3.71l.7-.9,26,8.32,26.35-7.81c-1.17,3-5,3.9-8.62,4.87-4.28,1.16-8.94,1.61-12.93,3.17-2.13.83-4.81,3.74-4.32,5,.67,1.78,4.13,4.12,6.35,4.08,7.51-.12,15.28-.42,22.44-2.05,10.14-2.31,16.08-9.39,15.43-17.67C1577.41,612.53,1575.26,607.92,1573.91,603.27Z"/><path d="M1528.62,596.31l9-.56-3.74,4.66c4.14,3.86,6.14,4.06,10.9,1.17-.63,3.58-3.28,4.84-7.69,3.07-3-1.2-5.1-1.19-7.85.33-3.12,1.71-6.08,1.37-8.35-2.78,4.4,2.53,7.93,2.32,10.17-.46.63-.79-1.15-2.77-1.82-4.2Z"/><path d="M1499.84,574.76l7.32-3.27-8.51-7,1.16-.93,9.55,7.33-7.85,5.25Z"/><path d="M1559.07,590.28l-14.61,4.65C1548.43,590.2,1554,588.47,1559.07,590.28Z"/><path d="M1521,596.3,1505.38,594C1509.22,591.37,1514.44,592,1521,596.3Z"/><path d="M1558.2,570.9l-9.3-3.25,8.45-8.93,1.52.83-6.65,7.09,6.64,3.17Z"/><path d="M1324.58,1491.06c-20.84,9.16-50.82.19-54.83-17-1.38-5.94,2.53-12.6,3.75-19,.5-2.6,1.36-5.62.21-7.85-4.72-9.23-4.5-18.37-1.6-27.84,1.17-3.79,1-7.87,1.07-11.82.08-4.23-.73-8.5-.28-12.7.5-4.69,4.29-6.84,10.3-5.62,2.81.57,6,1.17,8.06,2.62,6.37,4.48,13,5.15,20.63,2.38a24.11,24.11,0,0,1,7.92-1.12c12.43,0,23.91-.46,34.09-8.17,7.25-5.49,14.74-2.47,15.77,5.67,1.15,9.1,3.8,17.34,9.83,25.39,5.44,7.28,5.1,15.91,3.2,24.32-.51,2.24.2,4.79,1,7.06,1.85,5.37,4.94,10.55,6,16,2.41,12.65-6.19,23.77-21.16,28.74C1352.13,1497.58,1335.21,1497.21,1324.58,1491.06Zm-22-90c-3.42-2.1-6-4.34-9.27-5.54-4.71-1.73-9.86-2.71-14.83-4-1,4-3.42,8.12-2.63,11.86,1.58,7.48-.28,14.37-2.1,21.56-4.68,18.41,7.22,33.59,30,38.9,16.63,3.88,33.14,2.77,49.15-2,24.5-7.33,35.11-25.46,24.18-44.15-5.15-8.83-9.49-17.25-10.41-27-.57-6.16-5-7.46-11.83-3.88-5.45,2.88-10.19,6.58-15.34,10C1330.55,1392.79,1307.7,1395.2,1302.61,1401.07Zm79.18,46.4-2.34.26c-15.6,22.35-74.73,29.59-102.61,5.08-1.93,6.14-4.21,11.37-5.11,16.74-1.24,7.45,1.84,14,10.63,17.7,10.17,4.22,21.3,6.22,32.74,4.45,3.16-.49,7.66-3.31,8-5.38s-3-5.68-5.88-7c-4.6-2-10.31-2.39-15.29-4-4-1.28-7.63-3.32-11.43-5l1-1.21,35.13,11.26,35.65-10.57c-1.58,4.09-6.84,5.28-11.67,6.59-5.78,1.57-12.09,2.18-17.49,4.29-2.88,1.12-6.51,5.06-5.85,6.8.91,2.4,5.6,5.56,8.59,5.51,10.17-.16,20.69-.56,30.38-2.77,13.71-3.12,21.75-12.71,20.87-23.91C1386.53,1460,1383.62,1453.76,1381.79,1447.47Z"/><path d="M1320.51,1438.05l12.2-.75-5,6.3c5.59,5.23,8.3,5.5,14.74,1.59-.85,4.84-4.43,6.54-10.41,4.14-4-1.62-6.89-1.61-10.62.45-4.21,2.32-8.21,1.86-11.29-3.76,6,3.43,10.73,3.14,13.75-.63.86-1.06-1.54-3.74-2.45-5.68Z"/><path d="M1281.56,1408.89l9.9-4.42L1280,1395l1.57-1.27,12.93,9.92-10.63,7.11Z"/><path d="M1361.71,1429.9l-19.77,6.28C1347.31,1429.78,1354.8,1427.44,1361.71,1429.9Z"/><path d="M1310.19,1438l-21.13-3.08C1294.26,1431.36,1301.32,1432.23,1310.19,1438Z"/><path d="M1360.53,1403.67l-12.58-4.41,11.44-12.07,2,1.12-9,9.6,9,4.29Z"/><path d="M730,1573.89c-20.83,9.17-50.82.2-54.82-17-1.39-5.94,2.52-12.6,3.74-19,.5-2.59,1.37-5.61.22-7.85-4.73-9.22-4.5-18.36-1.6-27.83,1.16-3.79,1-7.87,1.06-11.82.09-4.23-.73-8.5-.28-12.7.5-4.69,4.29-6.84,10.3-5.62,2.81.57,6,1.17,8.06,2.61,6.37,4.49,13,5.16,20.64,2.39a24,24,0,0,1,7.92-1.12c12.42,0,23.9-.46,34.08-8.17,7.26-5.49,14.75-2.48,15.77,5.67,1.15,9.1,3.8,17.34,9.83,25.39,5.45,7.28,5.1,15.9,3.2,24.32-.5,2.24.2,4.78,1,7.06,1.84,5.36,4.93,10.55,6,16,2.41,12.65-6.18,23.77-21.16,28.74C757.52,1580.42,740.6,1580.05,730,1573.89Zm-22-90c-3.41-2.1-6-4.34-9.27-5.54-4.7-1.73-9.86-2.71-14.82-4-1,4-3.42,8.12-2.64,11.86,1.58,7.48-.28,14.37-2.1,21.56-4.68,18.41,7.22,33.58,30,38.9,16.63,3.88,33.13,2.76,49.15-2,24.49-7.33,35.1-25.47,24.18-44.16-5.16-8.82-9.5-17.24-10.41-27-.58-6.15-5-7.45-11.83-3.87-5.46,2.88-10.2,6.58-15.35,10C735.94,1475.63,713.09,1478,708,1483.91Zm79.19,46.4-2.34.25c-15.6,22.36-74.74,29.6-102.62,5.09-1.93,6.14-4.21,11.37-5.11,16.74-1.24,7.45,1.84,14,10.64,17.7,10.16,4.22,21.29,6.21,32.73,4.44,3.16-.48,7.66-3.3,8-5.38s-3-5.68-5.89-7c-4.6-2-10.31-2.38-15.28-4-4-1.28-7.64-3.33-11.43-5l1-1.21,35.12,11.26,35.66-10.57c-1.59,4.09-6.85,5.28-11.67,6.59-5.79,1.56-12.1,2.17-17.5,4.29-2.87,1.12-6.5,5.06-5.84,6.8.91,2.39,5.59,5.56,8.59,5.51,10.17-.16,20.68-.57,30.37-2.77,13.72-3.12,21.75-12.71,20.87-23.91C791.91,1542.83,789,1536.6,787.18,1530.31Z"/><path d="M725.89,1520.89l12.2-.75c-2.56,3.2-3.82,4.77-5.05,6.29,5.6,5.23,8.3,5.51,14.75,1.59-.86,4.85-4.44,6.55-10.42,4.15-4-1.62-6.89-1.61-10.62.45-4.21,2.32-8.21,1.86-11.29-3.76,6,3.43,10.74,3.14,13.76-.63.85-1.06-1.55-3.74-2.46-5.68Z"/><path d="M687,1491.73l9.9-4.42-11.52-9.53,1.57-1.26,12.93,9.92-10.62,7.11Z"/><path d="M767.09,1512.74,747.33,1519C752.69,1512.62,760.18,1510.28,767.09,1512.74Z"/><path d="M715.57,1520.88l-21.13-3.08C699.64,1514.2,706.7,1515.07,715.57,1520.88Z"/><path d="M765.92,1486.51l-12.59-4.41L764.77,1470l2.05,1.12-9,9.6,9,4.29Z"/><path d="M1877.39,194.88c-20.84,9.16-50.82.19-54.83-17-1.38-5.94,2.53-12.6,3.75-19,.5-2.6,1.36-5.62.21-7.85-4.73-9.23-4.5-18.37-1.6-27.84,1.16-3.79,1-7.87,1.07-11.82.08-4.23-.73-8.5-.28-12.7.5-4.69,4.29-6.84,10.29-5.62,2.82.57,6,1.17,8.07,2.62,6.37,4.48,13,5.15,20.63,2.38a24.11,24.11,0,0,1,7.92-1.12c12.42,0,23.9-.46,34.09-8.17,7.25-5.49,14.74-2.47,15.77,5.67,1.15,9.1,3.8,17.34,9.83,25.39,5.44,7.28,5.09,15.91,3.2,24.32-.51,2.24.2,4.79,1,7.06,1.85,5.37,4.94,10.55,6,16,2.41,12.65-6.18,23.77-21.16,28.74C1904.94,201.4,1888,201,1877.39,194.88Zm-22-90c-3.42-2.1-6-4.34-9.28-5.54-4.7-1.73-9.85-2.71-14.82-4-1,4-3.42,8.12-2.63,11.86,1.58,7.48-.28,14.37-2.11,21.56-4.67,18.41,7.23,33.59,30,38.9,16.63,3.88,33.14,2.77,49.15-2,24.49-7.33,35.1-25.46,24.18-44.15-5.16-8.83-9.49-17.25-10.41-27-.57-6.15-5-7.46-11.83-3.88-5.45,2.88-10.2,6.59-15.35,10C1883.36,96.61,1860.51,99,1855.42,104.89Zm79.18,46.4-2.34.26c-15.6,22.35-74.73,29.59-102.61,5.09-1.93,6.13-4.22,11.36-5.11,16.73-1.25,7.45,1.84,14,10.63,17.7,10.16,4.22,21.3,6.22,32.74,4.45,3.15-.49,7.65-3.31,8-5.38s-3-5.68-5.88-6.95c-4.6-2-10.31-2.39-15.29-4-4-1.28-7.63-3.32-11.43-5l1-1.21,35.13,11.26L1915,173.66c-1.58,4.09-6.84,5.28-11.67,6.59-5.78,1.57-12.1,2.18-17.49,4.29-2.88,1.12-6.51,5.06-5.85,6.8.91,2.4,5.6,5.56,8.59,5.51,10.17-.15,20.69-.56,30.37-2.77,13.72-3.12,21.76-12.71,20.87-23.91C1939.33,163.82,1936.43,157.58,1934.6,151.29Z"/><path d="M1873.32,141.87l12.2-.75-5,6.3c5.59,5.23,8.3,5.5,14.74,1.59-.85,4.84-4.43,6.54-10.41,4.15-4-1.63-6.9-1.62-10.62.44-4.21,2.32-8.22,1.86-11.29-3.76,5.95,3.43,10.73,3.14,13.75-.62.86-1.07-1.54-3.75-2.45-5.69Z"/><path d="M1834.37,112.71l9.9-4.42-11.51-9.52,1.57-1.27,12.92,9.92-10.62,7.11Z"/><path d="M1914.52,133.72,1894.75,140C1900.12,133.6,1907.61,131.26,1914.52,133.72Z"/><path d="M1863,141.86l-21.13-3.08C1847.06,135.18,1854.13,136.05,1863,141.86Z"/><path d="M1913.34,107.49l-12.58-4.41c4.09-4.32,7.76-8.2,11.44-12.07l2,1.12-9,9.6,9,4.29Z"/><path d="M509.55,1975.64c.42,5.59.75,10,1.33,17.81-17.93-12.84-34.57-11.71-51.9-1.15,7.64-16.45,3.74-29-15.74-38.62,21-1.26,37.37-5.92,42.25-23.85,4.69,6.35,7.66,14.53,14.55,18.52,6.58,3.82,17.24,3.29,27.46,4.89-4,3.56-7,6.17-11.51,10.15,25.33,3.14,48.71,6.08,72.43,2.29,9.67-1.55,12.58-7.47,7.19-13.47-5.69-6.32-12.53-13.08-20.93-16.64-35-14.86-70.84-28.61-106.41-42.69-4-1.59-8.34-2.73-12.19-4.73,48.17,9.1,96.32,18.38,137.4,41.7a70.49,70.49,0,0,1,20.44,17.2c11.58,14.89,4.38,28.23-17.47,30.92-16.39,2-33.41,1.52-50.11,1.14C534.37,1978.84,522.46,1976.92,509.55,1975.64Z" style="stroke:#000;stroke-miterlimit:10;stroke-width:0.5px"/><path d="M1441.72,1100.79c24.1-7.34,26.32-25.81,29.75-44.36,4.06,21.19,7.07,43,43.75,46.54-35.84,4.2-40.39,25-42.9,47.59-3.2-9.91-4.44-19.46-9.43-27.58S1449.22,1108.42,1441.72,1100.79Z"/><path d="M1475.18,1146.87c24.67-2.73,32.09-15.9,35.15-33.11,3,17,10.34,30.48,35.08,33.14-25.25,3.23-32,17.09-35.13,34.45C1507.79,1163.87,1500.11,1150.18,1475.18,1146.87Z"/><path d="M247.88,620c5.25,6.23,9.73,12.14,14.93,17.62,42.51,44.77,100.24,70.24,169,80.83,61,9.4,120.23,5,176.2-17.45,43-17.28,74.74-43.05,92.37-78.89a4.3,4.3,0,0,1,2.71-2.14c-.3,2.22-.55,4.44-.93,6.65a66.07,66.07,0,0,1-1.43,6.79c-11.64,40.84-43.13,70.06-88.38,90.06C541.93,754.56,468,756.42,392.75,736,342.94,722.42,301.9,699,272,664.34,259.69,650.13,249.54,631.61,247.88,620Z" style="fill:none;stroke:#000;stroke-miterlimit:10"/><path d="M606.1,472c30.92,1.12,56,8.69,72.7,29,3.46,4.21,4.59,9.08.42,12.86-3,2.67-8.27,5.21-12.46,5.15s-10-2.67-12.14-5.52c-19.35-25.38-79.41-23.69-95.25,1.07-3.91,6.11-12.85,7.64-19.9,4.51s-9.49-9.62-5.29-15.8c11.49-16.92,30.56-25.61,53.62-29.53C594.24,472.66,600.94,472.47,606.1,472Z" style="fill:none;stroke:#000;stroke-miterlimit:10"/><path d="M346.94,472c29.72,1.15,54.85,8.63,71.41,29.11,3.82,4.72,3.94,9.57-.43,14-4,4.06-9.76,5.45-15.68,3.62a20.21,20.21,0,0,1-8.81-5.84c-20.79-24.08-73.73-23.77-93.75.68-5.56,6.79-13.26,8.78-20.83,5.38s-9.46-10.45-3.94-17.48C291.5,480.4,317.22,473,346.94,472Z" style="fill:none;stroke:#000;stroke-miterlimit:10"/><path d="M704.07,662c3.6-13.17,7.36-26.89,10.75-39.29C718.66,636.23,714.41,649.9,704.07,662Z" style="fill:none;stroke:#000;stroke-miterlimit:10"/><path d="M244.21,650.84l-8.35-21.49,1.93-.46q4.35,10.71,8.69,21.4Z" style="fill:none;stroke:#000;stroke-miterlimit:10"/><path d="M322.29,1686c5.25,6.23,9.73,12.14,14.93,17.62,42.51,44.77,100.24,70.24,169,80.84,61,9.4,120.23,5,176.2-17.45,43-17.28,74.74-43.06,92.37-78.9a4.29,4.29,0,0,1,2.71-2.13c-.3,2.21-.55,4.43-.93,6.64a66.82,66.82,0,0,1-1.43,6.8c-11.64,40.83-43.13,70-88.38,90-70.39,31.12-144.34,33-219.57,12.53-49.81-13.55-90.85-37-120.78-71.62C334.1,1716.13,324,1697.61,322.29,1686Z" style="fill:none;stroke:#000;stroke-miterlimit:10;stroke-width:0.75px"/><path d="M680.51,1538c30.92,1.13,56,8.7,72.7,29,3.46,4.21,4.59,9.08.41,12.86-3,2.68-8.26,5.22-12.45,5.15s-10-2.67-12.14-5.52c-19.35-25.38-79.41-23.68-95.25,1.08-3.91,6.1-12.85,7.63-19.9,4.5s-9.49-9.62-5.29-15.8c11.49-16.91,30.56-25.6,53.62-29.53C668.65,1538.66,675.35,1538.47,680.51,1538Z" style="fill:none;stroke:#000;stroke-miterlimit:10;stroke-width:0.75px"/><path d="M421.35,1538c29.72,1.16,54.85,8.63,71.41,29.11,3.82,4.72,3.94,9.57-.43,14-4,4.07-9.76,5.46-15.68,3.62a20.13,20.13,0,0,1-8.81-5.84c-20.79-24.08-73.73-23.77-93.75.68-5.56,6.8-13.26,8.78-20.83,5.38s-9.46-10.44-3.94-17.47C365.91,1546.41,391.63,1539,421.35,1538Z" style="fill:none;stroke:#000;stroke-miterlimit:10;stroke-width:0.75px"/><path d="M778.48,1728c3.6-13.17,7.36-26.89,10.75-39.29C793.07,1702.24,788.82,1715.91,778.48,1728Z" style="fill:none;stroke:#000;stroke-miterlimit:10;stroke-width:0.75px"/><path d="M318.62,1716.84q-4.17-10.74-8.35-21.49l1.93-.45q4.33,10.69,8.69,21.4Z" style="fill:none;stroke:#000;stroke-miterlimit:10;stroke-width:0.75px"/><path d="M975.85,634.48l-49.2-1.83,0-.76,48.95,1.69Z"/><path d="M985.79,657.25h23.88v.44h-24Z"/><path d="M1015.18,612,999,611.14,999,610l16.21,1Z"/><path d="M867.2,585.81q-2-12.82-4-25.65l1.13-.18q2.1,12.75,4.22,25.51Z"/><path d="M856.34,660.61l6.3-14.7,1.34.57q-3.32,7.39-6.62,14.8Z"/><path d="M904.1,551l8.63-18.74.95.39q-4.08,9.54-8.15,19.09Z"/><path d="M938.71,810.93l-18.18-12.47.66-1,18.41,12.13C939.3,810.06,939,810.49,938.71,810.93Z"/><path d="M905.89,781.88l12.29,12.61L904.8,783.05Z"/><path d="M496.5,320.79l-9.15-.83L458.6,305.5l-35-17.71L418,281.42c2.14.29,4.59,0,6.37.94C448.48,295.07,472.48,308,496.5,320.79Z"/><path d="M645.53,88.38l9.24,55.92-2.4.38-8.94-56.12Z"/><path d="M585.19,194l-19.08-47.26,3.56-1.24,15.27,48.7Z"/><path d="M439.4,423.06q-4.68,19.08-9.35,38.16l-1.81-.33q4.32-19.58,8.62-39.15Z"/><path d="M346.65,499.75l-42.84,19.83-1.36-3.18L346.85,500Z"/><path d="M644.85,2499.77l-63,44.1-1.33-3.16,63-44.63Z" style="fill:none;stroke:#000;stroke-miterlimit:10;stroke-width:0.5px"/><path d="M572.91,2469.05,524,2504.5l-1.66-4L572.19,2468Z" style="fill:none;stroke:#000;stroke-miterlimit:10;stroke-width:0.5px"/><path d="M700.65,2469.27l-35.41,38c-.78-1.26-1.55-2.53-2.32-3.79l36.64-35.77Z" style="fill:none;stroke:#000;stroke-miterlimit:10;stroke-width:0.5px"/><path d="M419.27,2658.09l18.91-52.66,2.19,1.26q-9.27,26.36-18.56,52.71Z" style="fill:none;stroke:#000;stroke-miterlimit:10;stroke-width:0.5px"/><path d="M456.16,2574.89l29-38.27c.26.34.52.67.77,1q-15.21,18.28-30.41,36.59Z" style="fill:none;stroke:#000;stroke-miterlimit:10;stroke-width:0.5px"/><path d="M794.57,2231.25c37.64-15.3,75.94-10.05,114.19-6.24C870.52,2221.43,832.3,2218.68,794.57,2231.25Z" style="fill:none;stroke:#000;stroke-miterlimit:10;stroke-width:0.5px"/><path d="M218.57,2317.94l105.87-8.06c0,.85.07,1.71.11,2.56L218.85,2322C218.76,2320.65,218.66,2319.3,218.57,2317.94Z" style="fill:none;stroke:#000;stroke-miterlimit:10;stroke-width:0.5px"/><path d="M287.83,2338.78l76.62,9.45-.17,2.71-76.7-9.23C287.67,2340.74,287.75,2339.76,287.83,2338.78Z" style="fill:none;stroke:#000;stroke-miterlimit:10;stroke-width:0.5px"/><path d="M1131.8,2704.23c-8.72,3.54-10.8.61-8.57-5.91,3.1-9.09,2.81-16.78-7.81-20.78,10.52.55,19.5-2.26,25.9-10.73l-11.85,19.36,9.66-3.61-.2-.08c-3.22,4.91-6.12,10-9.76,14.69C1126,2701.32,1127.13,2703.26,1131.8,2704.23Z" style="fill:none;stroke:#000;stroke-miterlimit:10"/><path d="M1299.81,2486.14l-44.44,7,.08.6,42-1c-10.58,1.12-21.15,2-31.72,3.4-25.16,3.39-50.32,7.06-78.68,11.06l7.86,7.23c-5.05-1.42-10.41-2.41-15.07-4.35-11.87-5-24-9-40.31-6.57,2.49,5.19,4.4,9.2,6.31,13.21l1.92-.7c-.77-2.8-1.54-5.6-1.81-6.55l14,15.48,2.4-1.43c-.49-2.49-1-5-1.75-9l5.34,10.15,1.17-.48c-.13-1.95-.27-3.9-.57-8.26,2.47,5.37,3.9,8.5,5.6,12.18,1.1-3.33,2-6.08,2.69-8.12,4.29,2.21,7.27,4.54,11,5.28,1.58.32,4.71-2.67,7.47-4.37l5.11,2.48-2.52-8.05c3.31,2.41,7.48,4.34,9.62,7.39,1.51,2.17,1.67,6.49-.07,8.69-2,2.57-7.65,5.88-10.28,5.44-22.42-3.72-43-10.45-59.05-23.1-2.45-1.93-4-6.88-2.52-9.25s7.8-5,11.34-4.82c8.17.34,15.8,2.73,23.92,3.42,6.78.57,14.16,1.23,20.88-.41C1226.34,2493.8,1263,2487.93,1299.81,2486.14Z" style="fill:none;stroke:#000;stroke-miterlimit:10"/><path d="M1214.35,2599.32c-7.25,7-14.33,14-21.79,20.86-10.16,9.27-20.61,18.33-30.93,27.48l15.82-18.06-48.71,9.26c-.07-.66-.14-1.32-.2-2,12.75-2.66,25.48-5.86,38.25-7.82a50.34,50.34,0,0,0,29.08-14.81C1201.34,2608.83,1208.14,2604.26,1214.35,2599.32Z" style="fill:none;stroke:#000;stroke-miterlimit:10"/><path d="M1389.76,2668.05l24.85,63.95C1399,2712.26,1393.15,2689,1389.76,2668.05Z" style="fill:none;stroke:#000;stroke-miterlimit:10"/><path d="M1409,2670.36l-6.23-37,2.66-.65q2.94,18.75,5.87,37.49Z" style="fill:none;stroke:#000;stroke-miterlimit:10"/><path d="M1375.81,2709.68l-4.2-30.56,2.89-.65q2.07,15.14,4.15,30.28Z" style="fill:none;stroke:#000;stroke-miterlimit:10"/><path d="M1290.48,2675.47q-12.92,23.15-25.81,46.31l-2.17-.63,27.06-46Z" style="fill:none;stroke:#000;stroke-miterlimit:10"/><path d="M1486.3,2362.9l-64.35,12c-.07-.6-.13-1.19-.19-1.79l64.3-12.46Z" style="fill:none;stroke:#000;stroke-miterlimit:10"/><path d="M1383.65,2377l65.48-19,.54,2.18-65.89,18.39C1383.74,2378.06,1383.7,2377.54,1383.65,2377Z" style="fill:none;stroke:#000;stroke-miterlimit:10"/><path d="M1571.56,2369.15l-45.85,5.38c.07-1.07.15-2.14.23-3.2l45.51-2Z" style="fill:none;stroke:#000;stroke-miterlimit:10"/><path d="M1492.37,2596.83l54.21-20.27c.15.39.3.79.44,1.18l-54.2,20.26Z" style="fill:none;stroke:#000;stroke-miterlimit:10"/><path d="M1423.66,990.13l-41.24-8.71C1396.63,978.32,1411,981.75,1423.66,990.13Z" style="fill:none;stroke:#000;stroke-miterlimit:10;stroke-width:0.75px"/><path d="M1412,1362.55l-22.56,6.76-.48-1.56,22.46-7C1411.58,1361.32,1411.77,1361.94,1412,1362.55Z" style="fill:none;stroke:#000;stroke-miterlimit:10;stroke-width:0.75px"/><path d="M1792.79,109.68c11.88-4.82,14.71-.83,11.67,8-4.22,12.37-3.82,22.84,10.63,28.28-14.31-.75-26.53,3.08-35.25,14.6L1796,134.27l-13.15,4.91.27.1c4.39-6.68,8.34-13.55,13.29-20C1800.73,113.64,1799.15,111,1792.79,109.68Z" style="fill:none;stroke:#000;stroke-miterlimit:10;stroke-width:0.75px"/><path d="M1564.11,406.52l60.49-9.5c0-.28-.07-.55-.1-.82l-57.18,1.35c14.39-1.52,28.78-2.69,43.17-4.63,34.25-4.62,68.49-9.6,107.09-15.06L1706.89,368c6.86,1.94,14.16,3.28,20.5,5.93,16.17,6.75,32.64,12.21,54.87,8.94l-8.59-18-2.61,1c1,3.8,2.1,7.61,2.46,8.9l-19-21.06-3.26,1.94c.66,3.4,1.33,6.79,2.39,12.22l-7.28-13.81-1.59.65c.18,2.66.37,5.31.78,11.25-3.36-7.32-5.32-11.57-7.63-16.59l-3.66,11.06c-5.84-3-9.89-6.18-15-7.19-2.15-.44-6.4,3.64-10.17,5.95l-6.94-3.37,3.41,10.95c-4.49-3.28-10.17-5.9-13.08-10.06-2.06-2.94-2.28-8.82.1-11.83,2.77-3.5,10.41-8,14-7.4,30.52,5.06,58.54,14.22,80.38,31.45,3.33,2.62,5.5,9.36,3.43,12.59s-10.62,6.76-15.43,6.56c-11.12-.47-21.52-3.72-32.57-4.66-9.22-.78-19.27-1.67-28.41.55C1664.12,396.1,1614.24,404.09,1564.11,406.52Z" style="fill:none;stroke:#000;stroke-miterlimit:10;stroke-width:0.75px"/><path d="M1680.44,252.48c9.87-9.47,19.5-19.12,29.66-28.39,13.82-12.62,28.05-25,42.1-37.4-6.81,7.76-13.61,15.53-21.54,24.58L1797,198.66l.27,2.69c-17.36,3.63-34.68,8-52.07,10.65-16.31,2.51-28.59,9.29-39.58,20.16C1698.14,239.53,1688.89,245.75,1680.44,252.48Z" style="fill:none;stroke:#000;stroke-miterlimit:10;stroke-width:0.75px"/><path d="M1441.69,158.93l-33.83-87.05C1429.16,98.76,1437.06,130.42,1441.69,158.93Z" style="fill:none;stroke:#000;stroke-miterlimit:10;stroke-width:0.75px"/><path d="M1415.45,155.79l8.48,50.34-3.62.88q-4-25.51-8-51Z" style="fill:none;stroke:#000;stroke-miterlimit:10;stroke-width:0.75px"/><path d="M1460.68,102.26l5.7,41.6-3.92.89q-2.84-20.61-5.65-41.21Z" style="fill:none;stroke:#000;stroke-miterlimit:10;stroke-width:0.75px"/><path d="M1576.82,148.84l35.12-63,3,.85-36.82,62.55Z" style="fill:none;stroke:#000;stroke-miterlimit:10;stroke-width:0.75px"/><path d="M1310.27,574.28l87.6-16.31c.09.81.17,1.62.26,2.44l-87.53,17Z" style="fill:none;stroke:#000;stroke-miterlimit:10;stroke-width:0.75px"/><path d="M1450,555.07l-89.12,25.87c-.24-1-.49-2-.74-3l89.69-25C1449.88,553.64,1449.94,554.36,1450,555.07Z" style="fill:none;stroke:#000;stroke-miterlimit:10;stroke-width:0.75px"/><path d="M1194.22,565.77l62.42-7.32c-.1,1.45-.21,2.9-.31,4.36l-61.95,2.65Z" style="fill:none;stroke:#000;stroke-miterlimit:10;stroke-width:0.75px"/><path d="M1302,255.87l-73.79,27.58c-.19-.53-.39-1.06-.59-1.59l73.78-27.58Z" style="fill:none;stroke:#000;stroke-miterlimit:10;stroke-width:0.75px"/><path d="M760.92,1255.76q-2.28-24-4.55-48.1l.83-.06,4.68,47.85Z"/><path d="M737.27,1268.24l3.19,23.25-.49,0-3.2-23.38Z"/><path d="M790.85,1291.28l-1.25-15.89,1.27-.08,1,15.9Z"/><path d="M799.82,1144l27.61-7c.12.36.23.72.35,1.08l-27.42,7.24Z"/><path d="M716.32,1142.67l17,4.32-.45,1.37-17.12-4.62Z"/><path d="M843,1175.66l21.72,6.1c-.11.32-.21.65-.31,1l-22-5.58Z"/><path d="M562.41,1241.32l11.25-19.22,1.14.52L564,1242Z"/><path d="M589.9,1205.81c-4.18,4.64-8.37,9.27-12.2,13.51l10.77-14.43Z"/><path d="M1445.55,1986.35c6.87,11,2.87,14.21-7.28,12.35-14.13-2.59-25.56-.91-29.6,13.82-1.09-14-6.92-25.44-20.72-32.5l31,12.45-7.14-12.2-.08.28c7.92,3.45,16,6.45,23.7,10.48C1442.26,1994.57,1445,1992.71,1445.55,1986.35Z" style="fill:none;stroke:#000;stroke-miterlimit:10;stroke-width:0.75px"/><path d="M1273.92,1894.57c11.71,8.43,23.57,16.62,35.1,25.37,15.68,11.9,31.11,24.23,46.64,36.37l-29.84-17.94c7.81,21.69,15.24,42.34,22.68,63l-2.92.59c-6.29-16.44-13.38-32.77-18.63-49.36-4.92-15.56-14-26.69-27.39-36C1290.48,1910.2,1282.43,1902,1273.92,1894.57Z" style="fill:none;stroke:#000;stroke-miterlimit:10;stroke-width:0.75px"/><path d="M1344.7,1650.68l91-43.63C1409,1631.09,1375.36,1642.67,1344.7,1650.68Z" style="fill:none;stroke:#000;stroke-miterlimit:10;stroke-width:0.75px"/><path d="M1344.66,1624.76l-54.1,14.44c-.48-1.14-1-2.27-1.45-3.41l54.91-14C1344.23,1622.74,1344.44,1623.75,1344.66,1624.76Z" style="fill:none;stroke:#000;stroke-miterlimit:10;stroke-width:0.75px"/><path d="M1409.41,1662.19l-44.88,10.67-1.5-3.71,44.46-10.57Z" style="fill:none;stroke:#000;stroke-miterlimit:10;stroke-width:0.75px"/><path d="M1373.8,1781l73.83,26.43-.54,3-73.52-28.15Z" style="fill:none;stroke:#000;stroke-miterlimit:10;stroke-width:0.75px"/><path d="M871.55,1573.86l29.58,83.25-2.65.55-30.27-83.1Z" style="fill:none;stroke:#000;stroke-miterlimit:10;stroke-width:0.75px"/><path d="M911.26,1707.49,871,1623.93l3.17-1.09q19.7,42.11,39.41,84.22Z" style="fill:none;stroke:#000;stroke-miterlimit:10;stroke-width:0.75px"/><path d="M865.41,1459.86q8.18,29.92,16.36,59.85l-4.83.23q-5.58-30-11.17-60Z" style="fill:none;stroke:#000;stroke-miterlimit:10;stroke-width:0.75px"/><path d="M1219.74,1526.65l-40.1-68.42,1.68-.78,40.09,68.42Z" style="fill:none;stroke:#000;stroke-miterlimit:10;stroke-width:0.75px"/><path d="M418.1,53l-41.24-8.71C391.07,41.22,405.41,44.65,418.1,53Z" style="fill:none;stroke:#000;stroke-miterlimit:10;stroke-width:2px"/><path d="M406.4,425.45l-22.56,6.76-.48-1.56,22.46-7Z" style="fill:none;stroke:#000;stroke-miterlimit:10;stroke-width:2px"/><path d="M1752.64,922.25l-63,44.1-1.33-3.16,63-44.63Z" style="fill:none;stroke:#000;stroke-miterlimit:10;stroke-width:0.5px"/><path d="M1680.7,891.53,1631.79,927l-1.65-4L1680,890.43Z" style="fill:none;stroke:#000;stroke-miterlimit:10;stroke-width:0.5px"/><path d="M1808.44,891.75l-35.42,38c-.77-1.26-1.54-2.53-2.32-3.79q18.33-17.88,36.65-35.77Z" style="fill:none;stroke:#000;stroke-miterlimit:10;stroke-width:0.5px"/><path d="M1527.06,1080.57l18.9-52.66,2.2,1.26-18.57,52.71Z" style="fill:none;stroke:#000;stroke-miterlimit:10;stroke-width:0.5px"/><path d="M1564,997.37l29-38.27.77,1-30.42,36.59Z" style="fill:none;stroke:#000;stroke-miterlimit:10;stroke-width:0.5px"/><path d="M1902.35,653.73c37.65-15.3,76-10.05,114.2-6.24C1978.3,643.91,1940.08,641.16,1902.35,653.73Z" style="fill:none;stroke:#000;stroke-miterlimit:10;stroke-width:0.5px"/><path d="M1326.35,740.42l105.88-8.06c0,.85.07,1.71.1,2.56l-105.69,9.57C1326.54,743.13,1326.45,741.77,1326.35,740.42Z" style="fill:none;stroke:#000;stroke-miterlimit:10;stroke-width:0.5px"/><path d="M1395.62,761.26l76.62,9.45-.17,2.71-76.7-9.23C1395.45,763.22,1395.53,762.24,1395.62,761.26Z" style="fill:none;stroke:#000;stroke-miterlimit:10;stroke-width:0.5px"/><path d="M2019.66,2192.27c7.77,5.26,6.38,8.57-.41,10.28-9.47,2.38-15.89,6.79-13.55,17.71-5.24-9-12.52-14.82-23.24-15.5l23-.76-8.34-6,.05.21c5.95,0,11.85-.37,17.87.06C2020.33,2198.66,2021.36,2196.65,2019.66,2192.27Z" style="fill:none;stroke:#000;stroke-miterlimit:10;stroke-width:0.75px"/><path d="M1741.69,2172.38l30.12,32.8.47-.39-23.66-34.05c6.7,8.1,13.18,16.34,20.14,24.27,16.57,18.88,33.37,37.6,52.2,58.78,1-5.54,1.48-8,1.93-10.4,1.52,4.93,3.59,9.88,4.45,14.77,2.21,12.48,5.34,24.62,16.27,36.76l7.88-12.37-1.64-1.2-4.62,5.05,5.66-19.92-2.53-1.2-6.73,6.33,5.78-9.92-1-.7-6.77,5c3.26-5,5.16-7.83,7.39-11.23l-8.41,2.2c-.44-4.74-.07-8.46-1.45-11.93-.58-1.47-4.84-2.42-7.8-3.78-.06-.48-.26-2.17-.65-5.54l-5.53,6.44c.27-4-.34-8.51,1.11-11.93,1-2.43,4.64-4.91,7.48-4.67,3.31.28,9.18,3.11,10.24,5.51,9,20.48,14.41,41.09,12.29,61.18-.32,3.06-3.69,7.06-6.55,7.09s-8.49-3.72-10.28-6.71c-4.15-6.91-6.25-14.5-10.07-21.56-3.19-5.89-6.64-12.33-11.69-17C1788.16,2228.73,1763.23,2201.74,1741.69,2172.38Z" style="fill:none;stroke:#000;stroke-miterlimit:10;stroke-width:0.75px"/><path d="M1885,2181.29c9.9,2.19,19.81,4.16,29.7,6.61,13.45,3.33,26.88,7,40.32,10.54l-24.06-3.22,34.4,35.08-1.59,1.24c-9.2-9.05-18.86-17.79-27.48-27.25-8.08-8.86-17.25-13.59-28.47-15.9C1900.21,2186.83,1892.61,2183.71,1885,2181.29Z" style="fill:none;stroke:#000;stroke-miterlimit:10;stroke-width:0.75px"/><path d="M1848.57,1999.51l41.25-55.2C1881.42,1967.92,1864.65,1985.34,1848.57,1999.51Z" style="fill:none;stroke:#000;stroke-miterlimit:10;stroke-width:0.75px"/><path d="M1840.08,1982.39l-28.29,25.21-2-1.83,28.9-25.2Z" style="fill:none;stroke:#000;stroke-miterlimit:10;stroke-width:0.75px"/><path d="M1891.79,1988.38l-23.89,20.06-2.13-2,23.67-19.87Z" style="fill:none;stroke:#000;stroke-miterlimit:10;stroke-width:0.75px"/><path d="M1908.84,2077.24l53.67-3.91c.21.71.42,1.42.64,2.13l-54,2.68Z" style="fill:none;stroke:#000;stroke-miterlimit:10;stroke-width:0.75px"/><path d="M1534.89,2085.76l45.21,46.48-1.43,1.13-45.6-46.18Z" style="fill:none;stroke:#000;stroke-miterlimit:10;stroke-width:0.75px"/><path d="M1602.72,2162.62,1550.89,2119c.53-.55,1-1.1,1.58-1.64l51.53,44.27Z" style="fill:none;stroke:#000;stroke-miterlimit:10;stroke-width:0.75px"/><path d="M1493.92,2012.15l29.52,34.84-2.87,1.55-26.39-36.42Z" style="fill:none;stroke:#000;stroke-miterlimit:10;stroke-width:0.75px"/><path d="M1731.86,1953.7l-46.8-33.64.77-1,46.79,33.63Z" style="fill:none;stroke:#000;stroke-miterlimit:10;stroke-width:0.75px"/><path d="M449,1007.92c7-3.16,10.18,3.17,10.73,14.53.77,15.81,4.23,30.37,16.14,42.09-10.38-5.21-17.89-3.51-20.57,9.82,1.12-10.28,2.23-20.57,3.43-31.6l-7.84,2.93.23.21c1.08-7.92,1.79-16.24,3.35-23.66C455.85,1015.72,453.93,1011.61,449,1007.92Z" style="fill:none;stroke:#000;stroke-miterlimit:10;stroke-width:0.75px"/><path d="M377,1350.3l40,4.59c-.11-.39-.21-.78-.32-1.16l-40.17-14.87c9.75,2.12,19.61,4.72,29.23,6.25,22.9,3.65,45.69,6.8,71.42,10.57L466.62,1339c5.46,4.68,11.06,8.67,16.36,14.17,13.52,14,26.88,26.39,41.65,28.38l-11.56-27.3-1.56.56c1.9,5.55,3.81,11.11,4.46,13l-19.91-34.61-1.73,1.72c1.5,4.88,3,9.76,5.41,17.55-4-9-6.68-15.11-9.37-21.18l-.93.44,4,15.74c-4.61-11.07-7.29-17.51-10.46-25.1.32,5.82.58,10.61.77,14.18-5.06-5.86-8.9-11.42-12.81-14.3-1.66-1.23-3.44,3.14-5.41,5.23l-5.95-6.68c2.65,7.41,4.2,11.76,5.76,16.1-4.19-5.84-9-11.11-12.35-17.7-2.36-4.66-4.3-12.83-3.53-16.28.91-4,5-8,7.68-6.12,23.19,15.92,45.86,36.74,66.61,66.88,3.16,4.59,6.75,14.52,6.26,18.36s-5.48,6.22-9,4.53c-8-3.89-16.4-11.41-24.53-16-6.78-3.78-14.18-7.94-20-7.55C444.81,1365.19,411.84,1361.61,377,1350.3Z" style="fill:none;stroke:#000;stroke-miterlimit:10;stroke-width:0.75px"/><path d="M412.71,1172c4.12-10.18,8-20.66,12.41-30.47,6-13.35,12.32-26.19,18.5-39.25-2.46,8.71-4.93,17.43-7.81,27.59l43.23,2c.33,1.26.67,2.53,1,3.8-11.21-.09-22.19.85-33.71-.55-10.81-1.32-17.47,4.44-22,16.21C421.33,1159.27,416.66,1165.14,412.71,1172Z" style="fill:none;stroke:#000;stroke-miterlimit:10;stroke-width:0.75px"/><path d="M214.8,973.11,164.32,843.19C187.61,886.48,202.85,932.45,214.8,973.11Z" style="fill:none;stroke:#000;stroke-miterlimit:10;stroke-width:0.75px"/><path d="M195.23,961.1,216.56,1033l-2.3.16q-10.59-36.35-21.19-72.69Z" style="fill:none;stroke:#000;stroke-miterlimit:10;stroke-width:0.75px"/><path d="M211,900.53l16.71,59-2.52.09q-8.26-29.25-16.54-58.48Z" style="fill:none;stroke:#000;stroke-miterlimit:10;stroke-width:0.75px"/><path d="M307.64,998.73q2.88-38.33,5.75-76.64l2.36,2-7.11,75.46Z" style="fill:none;stroke:#000;stroke-miterlimit:10;stroke-width:0.75px"/><path d="M247.88,1507.32l57.21,3.14c.31,1.15.61,2.3.92,3.44l-57-2.22Z" style="fill:none;stroke:#000;stroke-miterlimit:10;stroke-width:0.75px"/><path d="M341.2,1521.71l-55.38,9.6-1.44-4.33,56-8.26Z" style="fill:none;stroke:#000;stroke-miterlimit:10;stroke-width:0.75px"/><path d="M162.93,1461.64,205,1469.8q.56,3,1.1,5.92l-43.16-14.46Z" style="fill:none;stroke:#000;stroke-miterlimit:10;stroke-width:0.75px"/><path d="M145.16,1065.9l-44,16.44c-.3-.79-.6-1.59-.91-2.38l44-16.44Z" style="fill:none;stroke:#000;stroke-miterlimit:10;stroke-width:0.75px"/><path d="M1517.54,1094.48l-41.24-8.71C1490.51,1082.67,1504.85,1086.1,1517.54,1094.48Z" style="fill:none;stroke:#000;stroke-miterlimit:10;stroke-width:0.75px"/><path d="M1505.84,1466.9l-22.56,6.76-.48-1.56,22.46-7C1505.46,1465.67,1505.65,1466.29,1505.84,1466.9Z" style="fill:none;stroke:#000;stroke-miterlimit:10;stroke-width:0.75px"/><path d="M1359,879.65l-41.24-8.71C1332,867.83,1346.3,871.27,1359,879.65Z" style="fill:none;stroke:#000;stroke-miterlimit:10;stroke-width:0.75px"/><path d="M1347.28,1252.06l-22.55,6.76-.48-1.55,22.46-7Z" style="fill:none;stroke:#000;stroke-miterlimit:10;stroke-width:0.75px"/><path d="M1899.2,681.61c1.78,4.33,3.49,8.47,5.35,13C1899.1,691.08,1897.1,686.16,1899.2,681.61Z"/><path d="M1876.84,682.39l-3.75,8.27-10.29-7.52,1-1.35,8.18,5.92c1.38-2.25,2.52-4.08,3.65-5.91Z"/><path d="M1756.65,1634.61c.42,5.58.75,10,1.33,17.8-17.93-12.84-34.56-11.71-51.9-1.15,7.64-16.44,3.74-28.94-15.74-38.62,21-1.26,37.38-5.91,42.25-23.84,4.69,6.34,7.66,14.52,14.55,18.52,6.58,3.82,17.24,3.29,27.46,4.88l-11.51,10.15c25.33,3.14,48.72,6.08,72.43,2.29,9.68-1.55,12.58-7.46,7.19-13.46-5.69-6.33-12.53-13.09-20.93-16.65-35-14.85-70.84-28.6-106.41-42.69-4-1.59-8.33-2.73-12.18-4.72,48.16,9.09,96.32,18.37,137.39,41.7A70.31,70.31,0,0,1,1861,1606c11.58,14.9,4.38,28.23-17.47,30.92-16.39,2-33.41,1.52-50.11,1.14C1781.47,1637.8,1769.57,1635.89,1756.65,1634.61Z" style="stroke:#000;stroke-miterlimit:10;stroke-width:0.5px"/><path d="M594,1217.81l14-14c2.67,19,16.1,26.76,38,27.85-19.54,8.37-27.13,19.78-20.64,37.17-16.78-10-33-15-51.74-4.08,1.82-7.21,6.46-14.89,4.65-21.47-1.73-6.29-10.17-11.43-16.5-17.94l17.17-1.63c-16.37-15.53-31.44-29.9-52.42-39.39-8.56-3.88-15.71-1-16.71,6.36-1,7.71-1.59,16.33,1.72,23.37,13.8,29.38,29.11,58.31,44,87.38,1.68,3.29,4,6.38,5.17,9.88-28.49-31.88-56.82-63.88-68-102.74a48.41,48.41,0,0,1-.88-23.54c3.82-17.2,20.43-23.45,39.08-14.11,14,7,26.35,16.24,38.56,25.21C578,1202.5,585.35,1210.13,594,1217.81Z" style="stroke:#000;stroke-miterlimit:10;stroke-width:0.5px"/><path d="M235.66,2512.12c19.08,6.22,35.34,12.13,54.24,17.61C444.3,2574.5,654,2600,903.63,2610.57c221.45,9.4,436.74,5,640-17.45,156.33-17.28,271.5-43.06,335.53-78.9,1.36-.76,3.47-1.46,9.84-2.13a71.9,71.9,0,0,1-3.4,6.64,34,34,0,0,1-5.18,6.8c-42.28,40.83-156.65,70-321,90-255.69,31.12-524.29,33-797.53,12.53-180.95-13.55-330-37-438.72-71.62C278.57,2542.28,241.71,2523.76,235.66,2512.12Z" style="fill:none;stroke:#000;stroke-miterlimit:10"/><path d="M1536.82,2364.13c112.31,1.13,203.36,8.7,264.06,29,12.56,4.2,16.69,9.07,1.52,12.85-10.73,2.68-30,5.22-45.24,5.15s-36.17-2.66-44.09-5.52c-70.3-25.38-288.44-23.68-346,1.08-14.2,6.11-46.68,7.63-72.26,4.5-25.41-3.1-34.47-9.61-19.22-15.8,41.72-16.91,111-25.6,194.76-29.53C1493.76,2364.81,1518.07,2364.61,1536.82,2364.13Z" style="fill:none;stroke:#000;stroke-miterlimit:10"/><path d="M595.48,2364.18c108,1.16,199.22,8.63,259.38,29.11,13.87,4.73,14.31,9.57-1.56,14-14.45,4.07-35.45,5.46-57,3.62-12.38-1.05-24.35-3.4-32-5.83-75.53-24.09-267.8-23.78-340.51.67-20.21,6.8-48.18,8.79-75.67,5.38s-34.38-10.44-14.34-17.47C394.11,2372.55,487.54,2365.13,595.48,2364.18Z" style="fill:none;stroke:#000;stroke-miterlimit:10"/><path d="M1892.67,2554.14l39.07-39.3C1945.67,2528.38,1930.25,2542.05,1892.67,2554.14Z" style="fill:none;stroke:#000;stroke-miterlimit:10"/><path d="M222.33,2543,192,2521.5l7-.46,31.6,21.4Z" style="fill:none;stroke:#000;stroke-miterlimit:10"/><path d="M1294.77,1287c-11.52,0-22.77,0-34,0a24.23,24.23,0,0,1-4.43-.37c-5.81-1.1-9.24-5-8.59-9.72.63-4.51,5.38-7.78,11.35-7.79,9.06,0,18.13,0,27.33-.37-4.94-1.75-10-3.31-14.79-5.31-8-3.37-15.88-6.92-23.66-10.59-5.63-2.66-7.25-8.19-4-12.27,3.57-4.44,9.91-5.53,15.94-2.93,9.76,4.21,19.6,8.31,29.43,12.43a19.34,19.34,0,0,0,2.47.78c-4.72-6.85-10.59-13.84-14.47-21.45-3.55-7-5.33-14.54-7.16-21.95-1.29-5.19,3.59-9.58,10-10.07,7-.53,11.75,2.75,12.46,8.45,1.32,10.68,6.34,20.3,13.75,29.21a12.49,12.49,0,0,0,1.33,1.15c1.48-1.83,2.76-3.52,4.17-5.14,21.34-24.61,50.77-37.91,88.75-39.06a126.58,126.58,0,0,1,63.27,14.18c40,20.83,58.14,59.46,44.55,95.64-10,26.64-31.88,45.2-64.41,55.82-3.25,1.06-7.6,0-11.43,0-14.12-.34-28.23-1-42.34-1-8.23,0-16.45,1.06-24.68,1.57a8.12,8.12,0,0,1-3-.5q-50-17-65-58.2a54,54,0,0,1-1.61-6.37C1295.58,1291,1295.17,1288.82,1294.77,1287Zm134.18-27.9c.24-21.37-21.93-39.12-49.17-39.38s-49.91,17.27-50.06,38.92,21.93,38.92,49.79,39.08C1406.18,1297.82,1428.72,1280.22,1429,1259.05Zm-14.41-35.64c6.26.07,11.3-3.7,11.43-8.55s-4.82-9.09-11.12-9.15c-6.08-.06-11.18,3.91-11.25,8.77S1408.33,1223.35,1414.54,1223.41Zm-67.84,75.64c-6.07-.06-11.19,3.91-11.27,8.74s4.7,9,10.9,9,11.44-3.94,11.59-8.9C1358.07,1303.35,1352.71,1299.11,1346.7,1299.05Zm98.07-65.45c0-3.69-3.61-6.75-8-6.72s-7.86,2.76-8,6.18,3.64,6.49,7.64,6.46C1440.78,1239.5,1444.74,1236.69,1444.77,1233.6Z" style="fill:none;stroke:#000;stroke-miterlimit:10;stroke-width:0.5px"/><path d="M1845.57,1239.57c7.55-8.4,12.79-17.42,14.69-27.56.22-1.16.41-2.33.57-3.5.68-5.31,5.91-8.87,12.35-8.4s10.77,4.85,10.19,10.12c-1.64,14.82-8.77,28-19.59,40a13.47,13.47,0,0,0-2.66,3.65c1.45-.44,3-.78,4.33-1.35q14.13-5.94,28.21-12c4.86-2.09,9.42-1.89,13.46.73,3.58,2.32,5.34,6.18,3.31,9.5a14.63,14.63,0,0,1-6.23,5.49c-11.53,5-23.32,9.73-35,14.55a2.77,2.77,0,0,0-1.49,1.1c1.72.07,3.45.22,5.17.21,7.24,0,14.49-.18,21.74-.15,5.42,0,10.25,3.19,11.17,7.1,1,4.39-2,8.65-7.33,10.19a16.83,16.83,0,0,1-4.72.58c-12.17-.15-24.35-.38-36.52-.57-.44,0-.88.08-.57,0-2.86,7.38-4.91,14.65-8.46,21.45-8.24,15.74-21.27,28.62-39.54,38-.58.29-1.09.66-1.64,1a18,18,0,0,1-10,2.68c-16,0-32,0-47.88,1.12-11.33.81-22.44,3.49-33.67,5.26a11.59,11.59,0,0,1-4.55-.08c-22-6-39.65-16.69-53-31.57-14.57-16.22-21-34.46-19.64-54.27,1.26-18.14,9.09-34.44,23.55-48.63,18-17.65,41.29-28.44,69.67-31.6,30-3.35,57.53,2.12,81.93,16.6,13.36,7.92,23.77,17.78,31.39,29.47A7.13,7.13,0,0,0,1845.57,1239.57Zm-73,19.37c.11-21-20.74-39-49.6-39.32-27.07-.33-49.45,17.54-49.53,39.05s21.87,38.8,49.23,39S1772.48,1280.44,1772.61,1258.94Zm-93.38,48.85c0,5.08,4.51,8.85,10.86,9s11.48-3.83,11.48-8.85c0-4.76-5.18-8.9-11.12-8.89C1684.24,1299.06,1679.28,1302.93,1679.23,1307.79Zm79.4-84.37c6.12,0,11.15-4,11.15-8.76s-5-8.89-11-9-11.51,4-11.44,8.59C1747.41,1219.76,1752,1223.44,1758.63,1223.42Zm29.84,9.86c.07-3.4-3.33-6.22-7.66-6.37s-8.17,2.62-8.24,6.15,3.45,6.39,8,6.39C1784.81,1239.44,1788.41,1236.65,1788.47,1233.28Z" style="fill:none;stroke:#000;stroke-miterlimit:10;stroke-width:0.5px"/><path d="M1614.93,1380.75c4.58,4,8.2,8.26,9.41,13.63,1.72,7.62-1.22,14-8.32,19.11-8.94,6.46-20.3,8.64-31.75,10.32-12.78,1.87-25.69,1.2-38.55.47-6.18-.34-11-4.84-10.56-9.4.44-5,5.42-8.4,12.14-8.38,10.11,0,20.24.33,30.32-.07a53.4,53.4,0,0,0,21.53-5.23c3.41-1.69,3.7-3.8,1.28-6.37-3.59-3.8-9-4.15-14.23-4.55-5.93-.45-11.94-.28-17.9-.54-6.7-.29-11.14-4.43-10.61-9.69.4-3.9,4.26-7.34,9.43-7.85,5.34-.53,10.82-.35,16.12-1a140.11,140.11,0,0,0,14.52-3.18,18.81,18.81,0,0,0,3.6-1.79c-2.44-2.62-5.88-3.12-9.18-3.67-13.71-2.3-27.46-1.66-41.2-.24-4.84.5-9.32.54-12.89-2.83-5.6-5.29-2.64-13.33,6.06-14.29a284.61,284.61,0,0,1,32.26-1.81,136.89,136.89,0,0,1,24.52,2.54c11.9,2.23,20.42,7.78,22.66,17.85,1.31,5.9-1.56,10.81-6.44,15.14C1616.47,1379.47,1615.75,1380.06,1614.93,1380.75Z" style="fill:none;stroke:#000;stroke-miterlimit:10;stroke-width:0.5px"/><path d="M1573.78,784.08c-46.26-59.34-125.64-97.36-193.22-145.12-51.67-36.53-101-74.45-125.78-127.44-35.21-75.16-2.77-152.8,78.42-187,75.72-31.87,169.44-16.41,225.42,37.2,6.81,6.51,13.5,13.09,18.49,17.93,22-15.84,40.86-32.13,63-45,57-33,119.82-35.71,181.73-11.62,62.53,24.32,94.48,66.48,96.17,122,1.76,58-28,106.09-77.64,146.7-31.89,26.1-67.29,49.55-101.33,74C1684.68,704.85,1630.12,743.76,1573.78,784.08ZM1580,410.15c-21.37-19-42.42-43.56-70.46-61.29C1460.8,318,1404.05,315.11,1348.2,337c-55.51,21.75-85.11,57.67-86.67,107.85-1.84,58.9,30.16,106,82.42,144.39,78,57.34,158.88,112.3,236.54,166.88,38.48-27.59,79.4-57.37,121-86.58,32.92-23.14,67.69-44.69,99.78-68.5,55.43-41.14,97.42-87.92,97-151.77-.37-51.75-29.21-90.32-87.22-112.6-56.7-21.77-114.57-18.59-163.77,13.81C1620.37,368.15,1600.08,392,1580,410.15Z"/><path d="M1505.52,2613.86c-57.82-46.11-120.16-95.91-182.63-145.61-30.24-24.06-60.43-48.16-91.19-71.81-86-66.06-94-163.65-18.55-229.79,74.45-65.27,196.51-69.79,289.69-10.76,3,1.91,6.28,3.57,3,1.72,41.6-14.48,77.16-31.71,115.78-39.29,81.27-16,168,15.62,212.21,71.9,44,56.06,42.2,136.32-15.69,183.56C1718.13,2455.38,1612.16,2532.46,1505.52,2613.86Zm2.73-17.83c10.67-7.38,16.85-11.2,22.37-15.53q80.91-63.52,161.67-127.17c31.94-25.07,64.56-49.62,96.06-75,59.87-48.3,72.28-117.63,32-174.45-39.82-56.2-122.38-87-202-68.92-38.73,8.8-73.18,29.27-114,46.3a32.6,32.6,0,0,0-6.68-6.78c-76.54-59.18-189.83-59.6-264.13-1.1-72.5,57.08-69.25,148.32,7.11,207.68,25,19.39,49.34,39.24,73.87,59C1378.9,2491.77,1443.15,2543.58,1508.25,2596Z"/><path d="M2002.1,2167.86c1.48,64.87-29.32,107.88-68.69,147.67-59.8,60.46-133.55,108.53-216.05,149-32.36,15.85-60.12,16.91-93.63.2-96-47.88-181.46-103.94-244-179.6-41.71-50.49-54.4-105.28-30.91-162.84,38.69-94.77,168.1-133.65,279.92-83.22,29.17,13.16,48.79,15,79.42,1.2C1849.89,1976.52,2001.43,2049.46,2002.1,2167.86Zm-19.23,4.74c-1.74-48.54-24.75-96-90-123.24-65-27.11-131.05-24.18-189.43,11.37-27,16.42-42.6,13.24-68.07-1.11-92.18-51.93-219.77-26.29-261,52.39-28.89,55.15-22.07,109.67,19.13,160.57,63.35,78.25,150.71,136.11,250.91,183.23,17.52,8.24,32.43,8.31,50.17.21,99.43-45.38,184.72-102.9,248.23-178.85C1967.35,2247.84,1983.7,2215.72,1982.87,2172.6Z" style="fill:none;stroke:#000;stroke-miterlimit:10"/><path d="M548.64,1788.42c-57.82-46.11-120.16-95.91-182.63-145.61-30.25-24-60.43-48.16-91.19-71.8-86-66.07-94-163.66-18.55-229.8,74.45-65.26,196.51-69.78,289.69-10.76,3,1.91,6.28,3.57,3,1.72,41.6-14.48,77.16-31.71,115.78-39.29,81.27-15.94,168,15.63,212.21,71.91,44,56,42.2,136.31-15.7,183.55C761.25,1630,655.28,1707,548.64,1788.42Zm2.72-17.82c10.68-7.38,16.85-11.2,22.38-15.54q80.91-63.52,161.67-127.17c31.94-25.07,64.56-49.62,96.06-75,59.87-48.29,72.28-117.63,32-174.45-39.81-56.2-122.38-87-202-68.92-38.73,8.81-73.18,29.27-114,46.3a32.9,32.9,0,0,0-6.68-6.78c-76.54-59.18-189.83-59.6-264.13-1.1-72.5,57.09-69.25,148.32,7.11,207.68,25,19.4,49.34,39.25,73.86,59C422,1666.33,486.26,1718.14,551.36,1770.6Z"/><ellipse cx="1053.77" cy="789.77" rx="1080.22" ry="604.08" transform="translate(-248.04 591.1) rotate(-28.17)" style="fill:none;stroke:#000;stroke-miterlimit:10;stroke-width:0.5px"/><ellipse cx="1063.29" cy="1392.87" rx="509.46" ry="1513.32" transform="translate(-579.15 782.07) rotate(-32.24)" style="fill:none;stroke:#000;stroke-miterlimit:10;stroke-width:0.5px"/><ellipse cx="1064.96" cy="1948.64" rx="530.45" ry="919.39" transform="translate(-894.08 2994.35) rotate(-89.44)" style="fill:none;stroke:#000;stroke-miterlimit:10;stroke-width:0.5px"/><ellipse cx="670.98" cy="530.41" rx="664.46" ry="522.74" style="fill:none;stroke:#000;stroke-miterlimit:10;stroke-width:0.5px"/><ellipse cx="769.33" cy="2304.05" rx="641.72" ry="419.39" style="fill:none;stroke:#000;stroke-miterlimit:10;stroke-width:0.5px"/><ellipse cx="1258.88" cy="768.18" rx="299.57" ry="922.08" transform="translate(-140.33 1234.12) rotate(-49.81)" style="fill:none;stroke:#000;stroke-miterlimit:10;stroke-width:0.5px"/><ellipse cx="1371.92" cy="1287.48" rx="602.03" ry="442.25" style="fill:none;stroke:#000;stroke-miterlimit:10;stroke-width:0.5px"/><ellipse cx="380.43" cy="1391.96" rx="169.58" ry="1306.53" style="fill:none;stroke:#000;stroke-miterlimit:10;stroke-width:0.5px"/><path d="M508.11,1760.29c5.25,6.22,9.73,12.13,14.93,17.61,42.51,44.77,100.23,70.24,169,80.84,61,9.4,120.24,5,176.21-17.45,43-17.28,74.74-43.06,92.37-78.9a4.26,4.26,0,0,1,2.71-2.13c-.31,2.21-.55,4.43-.94,6.64a66.77,66.77,0,0,1-1.42,6.8c-11.64,40.83-43.13,70-88.38,90-70.39,31.12-144.34,33-219.57,12.53-49.82-13.55-90.85-37-120.78-71.62C519.92,1790.45,509.77,1771.93,508.11,1760.29Z" style="fill:none;stroke:#000;stroke-miterlimit:10;stroke-width:0.75px"/><path d="M866.33,1612.3c30.92,1.13,56,8.7,72.7,29,3.45,4.21,4.59,9.08.41,12.86-3,2.68-8.26,5.22-12.45,5.15s-10-2.66-12.14-5.52c-19.35-25.38-79.41-23.68-95.26,1.08-3.91,6.11-12.85,7.63-19.89,4.5s-9.49-9.61-5.29-15.8c11.48-16.91,30.56-25.6,53.62-29.53C854.47,1613,861.17,1612.78,866.33,1612.3Z" style="fill:none;stroke:#000;stroke-miterlimit:10;stroke-width:0.75px"/><path d="M607.17,1612.35c29.72,1.16,54.85,8.63,71.41,29.11,3.82,4.72,3.94,9.57-.43,14-4,4.07-9.76,5.46-15.69,3.62a20.22,20.22,0,0,1-8.8-5.83c-20.79-24.09-73.73-23.78-93.75.67-5.56,6.8-13.26,8.78-20.83,5.38s-9.46-10.44-4-17.47C551.73,1620.72,577.45,1613.3,607.17,1612.35Z" style="fill:none;stroke:#000;stroke-miterlimit:10;stroke-width:0.75px"/><path d="M964.3,1802.3c3.6-13.17,7.36-26.89,10.75-39.29C978.89,1776.55,974.64,1790.22,964.3,1802.3Z" style="fill:none;stroke:#000;stroke-miterlimit:10;stroke-width:0.75px"/><path d="M504.44,1791.15q-4.19-10.74-8.35-21.48l1.92-.46,8.7,21.4Z" style="fill:none;stroke:#000;stroke-miterlimit:10;stroke-width:0.75px"/><path d="M639.73,1834.6c5.25,6.22,9.73,12.13,14.93,17.61,42.51,44.77,100.23,70.24,169,80.84,61,9.4,120.24,5,176.21-17.45,43-17.28,74.74-43.06,92.37-78.9a4.26,4.26,0,0,1,2.71-2.13c-.31,2.21-.55,4.43-.94,6.64a63.65,63.65,0,0,1-1.42,6.8c-11.64,40.83-43.13,70-88.38,90-70.39,31.12-144.34,33-219.57,12.53-49.81-13.54-90.85-37-120.78-71.62C651.54,1864.76,641.39,1846.24,639.73,1834.6Z" style="fill:none;stroke:#000;stroke-miterlimit:10;stroke-width:0.75px"/><path d="M998,1686.62c30.92,1.12,56,8.69,72.7,29,3.45,4.2,4.59,9.07.41,12.86-3,2.67-8.26,5.21-12.45,5.14s-10-2.66-12.14-5.52c-19.35-25.38-79.41-23.68-95.26,1.08-3.91,6.11-12.85,7.63-19.89,4.5s-9.49-9.61-5.29-15.8c11.48-16.91,30.56-25.6,53.62-29.53C986.09,1687.29,992.79,1687.09,998,1686.62Z" style="fill:none;stroke:#000;stroke-miterlimit:10;stroke-width:0.75px"/><path d="M738.79,1686.66c29.72,1.16,54.85,8.63,71.41,29.12,3.82,4.72,3.94,9.56-.43,14-4,4.07-9.76,5.46-15.68,3.63a20.3,20.3,0,0,1-8.81-5.84c-20.79-24.09-73.73-23.78-93.75.67-5.56,6.8-13.26,8.79-20.83,5.38s-9.46-10.44-4-17.47C683.35,1695,709.07,1687.61,738.79,1686.66Z" style="fill:none;stroke:#000;stroke-miterlimit:10;stroke-width:0.75px"/><path d="M1095.92,1876.62c3.6-13.17,7.36-26.89,10.75-39.29C1110.51,1850.86,1106.26,1864.53,1095.92,1876.62Z" style="fill:none;stroke:#000;stroke-miterlimit:10;stroke-width:0.75px"/><path d="M636.06,1865.47q-4.18-10.76-8.35-21.49l1.92-.46,8.7,21.4Z" style="fill:none;stroke:#000;stroke-miterlimit:10;stroke-width:0.75px"/><path d="M771.35,1913.78c5.25,6.23,9.73,12.13,14.93,17.62,42.51,44.77,100.24,70.24,169,80.83,61,9.4,120.23,5,176.2-17.45,43-17.28,74.74-43.06,92.37-78.9a4.32,4.32,0,0,1,2.71-2.13c-.3,2.22-.55,4.44-.93,6.64a66.25,66.25,0,0,1-1.43,6.8c-11.64,40.84-43.13,70.06-88.38,90.06-70.39,31.12-144.34,33-219.57,12.52-49.81-13.54-90.85-37-120.78-71.62C783.16,1943.94,773,1925.42,771.35,1913.78Z" style="fill:none;stroke:#000;stroke-miterlimit:10;stroke-width:0.75px"/><path d="M1129.57,1765.8c30.92,1.12,56,8.69,72.7,29,3.46,4.21,4.59,9.08.41,12.86-3,2.67-8.26,5.21-12.45,5.14s-10-2.66-12.14-5.52c-19.35-25.38-79.41-23.68-95.25,1.08-3.91,6.11-12.86,7.64-19.9,4.51s-9.49-9.62-5.29-15.8c11.49-16.92,30.56-25.61,53.62-29.53C1117.71,1766.47,1124.41,1766.28,1129.57,1765.8Z" style="fill:none;stroke:#000;stroke-miterlimit:10;stroke-width:0.75px"/><path d="M870.41,1765.84c29.72,1.16,54.85,8.64,71.41,29.12,3.82,4.72,3.94,9.56-.43,14-4,4.06-9.76,5.45-15.68,3.62a20.21,20.21,0,0,1-8.81-5.84c-20.79-24.08-73.73-23.77-93.75.68-5.56,6.79-13.26,8.78-20.83,5.38s-9.46-10.45-3.94-17.48C815,1774.21,840.69,1766.79,870.41,1765.84Z" style="fill:none;stroke:#000;stroke-miterlimit:10;stroke-width:0.75px"/><path d="M1227.54,1955.8c3.6-13.17,7.36-26.89,10.75-39.29C1242.13,1930,1237.88,1943.71,1227.54,1955.8Z" style="fill:none;stroke:#000;stroke-miterlimit:10;stroke-width:0.75px"/><path d="M767.68,1944.65l-8.35-21.49,1.92-.46,8.7,21.4Z" style="fill:none;stroke:#000;stroke-miterlimit:10;stroke-width:0.75px"/><path d="M480.11,2066.83c24.1-7.34,26.33-25.81,29.75-44.35,4.06,21.18,7.07,43,43.75,46.53-35.84,4.2-40.39,25-42.9,47.6-3.2-9.91-4.43-19.47-9.43-27.59S487.61,2074.46,480.11,2066.83Z"/><path d="M513.57,2112.91c24.67-2.73,32.1-15.9,35.15-33.11,3,17,10.34,30.49,35.08,33.15-25.25,3.23-32,17.08-35.13,34.45C546.19,2129.92,538.5,2116.22,513.57,2112.91Z"/><path d="M181.26,802.32C205.35,795,207.58,776.52,211,758c4.06,21.19,7.08,43,43.75,46.53-35.84,4.21-40.39,25.06-42.9,47.6-3.2-9.91-4.43-19.46-9.43-27.59S188.76,810,181.26,802.32Z"/><path d="M214.71,848.41c24.68-2.73,32.1-15.9,35.15-33.11,3,17,10.35,30.48,35.09,33.14-25.25,3.23-32,17.09-35.14,34.45C247.33,865.41,239.64,851.72,214.71,848.41Z"/><path d="M644.37,862.46c5.25,6.23,9.73,12.14,14.94,17.62,42.5,44.77,100.23,70.24,169,80.83,61,9.4,120.24,5,176.2-17.45,43-17.28,74.75-43.05,92.38-78.89a4.24,4.24,0,0,1,2.71-2.14c-.31,2.22-.55,4.44-.94,6.65a66.07,66.07,0,0,1-1.43,6.79c-11.64,40.84-43.12,70.06-88.37,90.06-70.4,31.12-144.35,33-219.57,12.53-49.82-13.55-90.85-37-120.79-71.63C656.19,892.62,646,874.1,644.37,862.46Z" style="fill:none;stroke:#000;stroke-miterlimit:10;stroke-width:0.75px"/><path d="M1002.59,714.48c30.92,1.12,56,8.69,72.7,29,3.46,4.21,4.6,9.08.42,12.86-3,2.67-8.27,5.21-12.45,5.15s-10-2.67-12.14-5.52c-19.36-25.38-79.41-23.69-95.26,1.07C952,763.18,943,764.71,936,761.58s-9.49-9.62-5.3-15.8c11.49-16.92,30.57-25.61,53.62-29.53C990.74,715.15,997.43,715,1002.59,714.48Z" style="fill:none;stroke:#000;stroke-miterlimit:10;stroke-width:0.75px"/><path d="M743.43,714.53c29.73,1.15,54.85,8.63,71.42,29.11,3.81,4.72,3.93,9.57-.44,14-4,4.06-9.76,5.45-15.68,3.62a20.18,20.18,0,0,1-8.8-5.84c-20.8-24.08-73.73-23.77-93.75.68-5.56,6.79-13.26,8.78-20.83,5.38s-9.47-10.45-4-17.48C688,722.89,713.72,715.47,743.43,714.53Z" style="fill:none;stroke:#000;stroke-miterlimit:10;stroke-width:0.75px"/><path d="M1100.56,904.48c3.61-13.17,7.36-26.89,10.76-39.29C1115.15,878.72,1110.91,892.39,1100.56,904.48Z" style="fill:none;stroke:#000;stroke-miterlimit:10;stroke-width:0.75px"/><path d="M640.7,893.33l-8.34-21.49,1.92-.46,8.7,21.4Z" style="fill:none;stroke:#000;stroke-miterlimit:10;stroke-width:0.75px"/><path d="M941,206.23c-8,0-15.74,0-23.51,0a16.46,16.46,0,0,1-3.07-.26c-4-.76-6.38-3.48-5.93-6.71s3.72-5.38,7.84-5.39c6.26,0,12.53,0,18.89-.25-3.41-1.21-6.92-2.29-10.22-3.67q-8.29-3.49-16.36-7.32c-3.89-1.84-5-5.66-2.74-8.48,2.46-3.07,6.84-3.82,11-2,6.75,2.91,13.55,5.75,20.34,8.59a16.38,16.38,0,0,0,1.71.55c-3.27-4.74-7.32-9.57-10-14.83-2.45-4.81-3.69-10-5-15.17-.89-3.59,2.48-6.63,6.92-7,4.81-.37,8.12,1.9,8.61,5.84.91,7.38,4.38,14,9.5,20.19a9.17,9.17,0,0,0,.92.79c1-1.26,1.91-2.43,2.88-3.55,14.75-17,35.09-26.2,61.34-27a87.53,87.53,0,0,1,43.73,9.8c27.64,14.4,40.18,41.1,30.79,66.11-6.92,18.41-22,31.24-44.52,38.57-2.24.73-5.25,0-7.9,0-9.75-.24-19.51-.67-29.26-.66-5.68,0-11.37.73-17,1.09a5.74,5.74,0,0,1-2.05-.35Q953.33,243.38,943,214.87a37.78,37.78,0,0,1-1.11-4.4C941.56,209,941.27,207.53,941,206.23ZM1033.74,187c.16-14.76-15.16-27-34-27.21s-34.5,11.93-34.6,26.9,15.16,26.89,34.42,27C1018,213.75,1033.57,201.58,1033.74,187Zm-10-24.63c4.32.05,7.81-2.56,7.9-5.91s-3.34-6.28-7.69-6.32-7.73,2.7-7.78,6.06S1019.49,162.28,1023.78,162.32ZM976.89,214.6c-4.19,0-7.73,2.7-7.79,6s3.25,6.18,7.53,6.25,7.91-2.73,8-6.16C984.75,217.57,981,214.64,976.89,214.6Zm67.78-45.24c0-2.55-2.5-4.66-5.55-4.64s-5.44,1.91-5.51,4.27,2.53,4.48,5.29,4.47C1041.91,173.44,1044.64,171.5,1044.67,169.36Z" style="fill:none;stroke:#000;stroke-miterlimit:10;stroke-width:0.5px"/><path d="M1321.68,173.49c5.22-5.81,8.84-12,10.15-19.05.15-.8.29-1.61.39-2.42.48-3.67,4.09-6.13,8.54-5.8s7.44,3.35,7,7c-1.13,10.24-6.06,19.34-13.53,27.66a9.16,9.16,0,0,0-1.84,2.52c1-.3,2-.54,3-.93q9.76-4.11,19.49-8.28c3.36-1.44,6.52-1.31,9.31.5,2.47,1.61,3.69,4.28,2.29,6.57a10.13,10.13,0,0,1-4.31,3.79c-8,3.5-16.12,6.73-24.21,10.06a1.93,1.93,0,0,0-1,.76c1.19,0,2.38.15,3.57.15,5,0,10-.13,15-.11,3.75,0,7.09,2.2,7.72,4.91.72,3-1.34,6-5.06,7a11.8,11.8,0,0,1-3.26.41c-8.42-.11-16.83-.27-25.25-.4-.3,0-.6.06-.39,0-2,5.1-3.39,10.13-5.85,14.83-5.69,10.88-14.7,19.78-27.32,26.27-.4.21-.76.46-1.14.69a12.37,12.37,0,0,1-6.91,1.86c-11,0-22.12,0-33.1.78-7.83.56-15.51,2.41-23.27,3.63a7.89,7.89,0,0,1-3.14-.06c-15.22-4.13-27.4-11.53-36.64-21.82-10.07-11.21-14.53-23.81-13.58-37.51.87-12.53,6.28-23.8,16.27-33.61,12.43-12.19,28.54-19.65,48.16-21.84,20.74-2.31,39.76,1.47,56.62,11.48a64.73,64.73,0,0,1,21.7,20.37A4.35,4.35,0,0,0,1321.68,173.49Zm-50.43,13.39c.08-14.55-14.33-26.94-34.28-27.18-18.71-.22-34.17,12.12-34.23,27s15.12,26.81,34,26.95S1271.16,201.73,1271.25,186.88Zm-64.53,33.76c0,3.51,3.11,6.12,7.5,6.21s7.93-2.65,7.93-6.11c0-3.3-3.58-6.16-7.69-6.15C1210.18,214.61,1206.75,217.28,1206.72,220.64Zm54.87-58.31c4.23,0,7.7-2.74,7.7-6.06s-3.48-6.14-7.61-6.2-8,2.78-7.91,5.94C1253.84,159.8,1257,162.34,1261.59,162.33Zm20.63,6.81c0-2.35-2.31-4.3-5.3-4.4s-5.65,1.81-5.69,4.25,2.38,4.41,5.5,4.41C1279.68,173.4,1282.17,171.47,1282.22,169.14Z" style="fill:none;stroke:#000;stroke-miterlimit:10;stroke-width:0.5px"/><path d="M1162.27,271.07c3.17,2.73,5.67,5.7,6.51,9.42,1.18,5.26-.85,9.65-5.75,13.2-6.18,4.47-14,6-22,7.13-8.83,1.3-17.76.83-26.64.33-4.27-.24-7.58-3.34-7.3-6.5.31-3.45,3.74-5.8,8.39-5.79,7,0,14,.23,21-.05a37,37,0,0,0,14.88-3.61c2.35-1.17,2.55-2.63.88-4.4-2.48-2.63-6.24-2.87-9.83-3.15-4.1-.31-8.25-.19-12.37-.37-4.64-.2-7.71-3.07-7.34-6.7.28-2.7,3-5.08,6.52-5.43s7.48-.24,11.14-.72a97.57,97.57,0,0,0,10-2.2,12.47,12.47,0,0,0,2.48-1.24c-1.68-1.81-4.06-2.15-6.34-2.54-9.47-1.58-19-1.14-28.48-.16-3.34.34-6.44.38-8.9-2-3.88-3.66-1.83-9.22,4.18-9.88a195.19,195.19,0,0,1,22.3-1.25A94.25,94.25,0,0,1,1152.6,247c8.22,1.55,14.11,5.38,15.65,12.34.91,4.08-1.07,7.47-4.44,10.46C1163.34,270.18,1162.84,270.58,1162.27,271.07Z" style="fill:none;stroke:#000;stroke-miterlimit:10;stroke-width:0.5px"/></svg>